AnekDevanagari-CondensedThin.ufo
<glyph name="eight" format="2">
  <advance width="589"/>
  <unicode hex="0038"/>
  <outline>
    <contour>
      <point x="294" y="-20" type="curve" smooth="yes"/>
      <point x="439" y="-20"/>
      <point x="507" y="75"/>
      <point x="507" y="259" type="curve" smooth="yes"/>
      <point x="507" y="407" type="line" smooth="yes"/>
      <point x="507" y="561"/>
      <point x="459" y="653"/>
      <point x="326" y="666" type="curve"/>
      <point x="326" y="663" type="line"/>
      <point x="452" y="675"/>
      <point x="496" y="762"/>
      <point x="496" y="911" type="curve" smooth="yes"/>
      <point x="496" y="1024" type="line" smooth="yes"/>
      <point x="496" y="1201"/>
      <point x="431" y="1293"/>
      <point x="294" y="1293" type="curve" smooth="yes"/>
      <point x="157" y="1293"/>
      <point x="93" y="1201"/>
      <point x="93" y="1024" type="curve" smooth="yes"/>
      <point x="93" y="911" type="line" smooth="yes"/>
      <point x="93" y="762"/>
      <point x="137" y="675"/>
      <point x="263" y="663" type="curve"/>
      <point x="263" y="666" type="line"/>
      <point x="130" y="653"/>
      <point x="82" y="561"/>
      <point x="82" y="407" type="curve" smooth="yes"/>
      <point x="82" y="259" type="line" smooth="yes"/>
      <point x="82" y="75"/>
      <point x="150" y="-20"/>
    </contour>
    <contour>
      <point x="294" y="14" type="curve" smooth="yes"/>
      <point x="175" y="14"/>
      <point x="119" y="97"/>
      <point x="119" y="256" type="curve" smooth="yes"/>
      <point x="119" y="411" type="line" smooth="yes"/>
      <point x="119" y="565"/>
      <point x="175" y="646"/>
      <point x="294" y="646" type="curve" smooth="yes"/>
      <point x="414" y="646"/>
      <point x="469" y="565"/>
      <point x="469" y="411" type="curve" smooth="yes"/>
      <point x="469" y="256" type="line" smooth="yes"/>
      <point x="469" y="97"/>
      <point x="414" y="14"/>
    </contour>
    <contour>
      <point x="294" y="683" type="curve" smooth="yes"/>
      <point x="182" y="683"/>
      <point x="131" y="760"/>
      <point x="131" y="907" type="curve" smooth="yes"/>
      <point x="131" y="1028" type="line" smooth="yes"/>
      <point x="131" y="1180"/>
      <point x="182" y="1259"/>
      <point x="294" y="1259" type="curve" smooth="yes"/>
      <point x="407" y="1259"/>
      <point x="458" y="1180"/>
      <point x="458" y="1028" type="curve" smooth="yes"/>
      <point x="458" y="907" type="line" smooth="yes"/>
      <point x="458" y="760"/>
      <point x="407" y="683"/>
    </contour>
  </outline>
</glyph>
<glyph name="colon" format="2">
  <advance width="231"/>
  <unicode hex="003A"/>
  <outline>
    <contour>
      <point x="115" y="-9" type="curve" smooth="yes"/>
      <point x="137" y="-9"/>
      <point x="145" y="9"/>
      <point x="145" y="50" type="curve" smooth="yes"/>
      <point x="145" y="68" type="line" smooth="yes"/>
      <point x="145" y="108"/>
      <point x="137" y="127"/>
      <point x="115" y="127" type="curve" smooth="yes"/>
      <point x="93" y="127"/>
      <point x="86" y="108"/>
      <point x="86" y="68" type="curve" smooth="yes"/>
      <point x="86" y="50" type="line" smooth="yes"/>
      <point x="86" y="9"/>
      <point x="93" y="-9"/>
    </contour>
    <contour>
      <point x="115" y="759" type="curve" smooth="yes"/>
      <point x="137" y="759"/>
      <point x="145" y="777"/>
      <point x="145" y="818" type="curve" smooth="yes"/>
      <point x="145" y="836" type="line" smooth="yes"/>
      <point x="145" y="876"/>
      <point x="137" y="895"/>
      <point x="115" y="895" type="curve" smooth="yes"/>
      <point x="93" y="895"/>
      <point x="86" y="876"/>
      <point x="86" y="836" type="curve" smooth="yes"/>
      <point x="86" y="818" type="line" smooth="yes"/>
      <point x="86" y="777"/>
      <point x="93" y="759"/>
    </contour>
  </outline>
</glyph>
<glyph name="semicolon" format="2">
  <advance width="231"/>
  <unicode hex="003B"/>
  <outline>
    <contour>
      <point x="101" y="206" type="line"/>
      <point x="106" y="169"/>
      <point x="110" y="129"/>
      <point x="110" y="90" type="curve" smooth="yes"/>
      <point x="110" y="-37"/>
      <point x="79" y="-145"/>
      <point x="25" y="-237" type="curve"/>
      <point x="44" y="-263" type="line"/>
      <point x="117" y="-155"/>
      <point x="147" y="-42"/>
      <point x="147" y="90" type="curve" smooth="yes"/>
      <point x="147" y="140"/>
      <point x="141" y="188"/>
      <point x="138" y="206" type="curve"/>
    </contour>
    <contour>
      <point x="115" y="759" type="curve" smooth="yes"/>
      <point x="137" y="759"/>
      <point x="145" y="777"/>
      <point x="145" y="818" type="curve" smooth="yes"/>
      <point x="145" y="836" type="line" smooth="yes"/>
      <point x="145" y="876"/>
      <point x="137" y="895"/>
      <point x="115" y="895" type="curve" smooth="yes"/>
      <point x="93" y="895"/>
      <point x="86" y="876"/>
      <point x="86" y="836" type="curve" smooth="yes"/>
      <point x="86" y="818" type="line" smooth="yes"/>
      <point x="86" y="777"/>
      <point x="93" y="759"/>
    </contour>
  </outline>
</glyph>
<glyph name="less" format="2">
  <advance width="655"/>
  <unicode hex="003C"/>
  <outline>
    <contour>
      <point x="547" y="807" type="line"/>
      <point x="547" y="842" type="line"/>
      <point x="61" y="667" type="line"/>
      <point x="61" y="606" type="line"/>
      <point x="547" y="431" type="line"/>
      <point x="547" y="466" type="line"/>
      <point x="91" y="630" type="line"/>
      <point x="91" y="643" type="line"/>
    </contour>
  </outline>
</glyph>
<glyph name="equal" format="2">
  <advance width="654"/>
  <unicode hex="003D"/>
  <outline>
    <contour>
      <point x="570" y="460" type="line"/>
      <point x="570" y="493" type="line"/>
      <point x="84" y="493" type="line"/>
      <point x="84" y="460" type="line"/>
    </contour>
    <contour>
      <point x="570" y="780" type="line"/>
      <point x="570" y="813" type="line"/>
      <point x="84" y="813" type="line"/>
      <point x="84" y="780" type="line"/>
    </contour>
  </outline>
</glyph>
<glyph name="R" format="2">
  <advance width="620"/>
  <unicode hex="0052"/>
  <anchor x="322" y="0" name="bottom"/>
  <anchor x="310" y="1278" name="top"/>
  <outline>
    <contour>
      <point x="550" y="0" type="line"/>
      <point x="513" y="317" type="line" smooth="yes"/>
      <point x="494" y="477"/>
      <point x="465" y="575"/>
      <point x="335" y="603" type="curve"/>
      <point x="341" y="591" type="line"/>
      <point x="345" y="596" type="line"/>
      <point x="480" y="611"/>
      <point x="532" y="704"/>
      <point x="532" y="847" type="curve" smooth="yes"/>
      <point x="532" y="1011" type="line" smooth="yes"/>
      <point x="532" y="1175"/>
      <point x="476" y="1278"/>
      <point x="316" y="1278" type="curve" smooth="yes"/>
      <point x="139" y="1278" type="line"/>
      <point x="139" y="1243" type="line"/>
      <point x="314" y="1243" type="line" smooth="yes"/>
      <point x="451" y="1243"/>
      <point x="494" y="1155"/>
      <point x="494" y="1010" type="curve" smooth="yes"/>
      <point x="494" y="846" type="line" smooth="yes"/>
      <point x="494" y="708"/>
      <point x="451" y="618"/>
      <point x="298" y="617" type="curve" smooth="yes"/>
      <point x="151" y="616" type="line"/>
      <point x="151" y="584" type="line"/>
      <point x="278" y="584" type="line" smooth="yes"/>
      <point x="431" y="584"/>
      <point x="461" y="460"/>
      <point x="476" y="317" type="curve" smooth="yes"/>
      <point x="510" y="0" type="line"/>
    </contour>
    <contour>
      <point x="160" y="0" type="line"/>
      <point x="160" y="594" type="line"/>
      <point x="160" y="610" type="line"/>
      <point x="160" y="1278" type="line"/>
      <point x="121" y="1278" type="line"/>
      <point x="121" y="0" type="line"/>
    </contour>
  </outline>
</glyph>
<glyph name="V" format="2">
  <advance width="618"/>
  <unicode hex="0056"/>
  <anchor x="309" y="0" name="bottom"/>
  <anchor x="309" y="1278" name="top"/>
  <outline>
    <contour>
      <point x="349" y="0" type="line"/>
      <point x="564" y="1278" type="line"/>
      <point x="524" y="1278" type="line"/>
      <point x="319" y="33" type="line"/>
      <point x="298" y="33" type="line"/>
      <point x="94" y="1278" type="line"/>
      <point x="54" y="1278" type="line"/>
      <point x="269" y="0" type="line"/>
    </contour>
  </outline>
</glyph>
<glyph name="b" format="2">
  <advance width="617"/>
  <unicode hex="0062"/>
  <anchor x="309" y="0" name="bottom"/>
  <anchor x="309" y="1334" name="top"/>
  <outline>
    <contour>
      <point x="326" y="-13" type="curve" smooth="yes"/>
      <point x="464" y="-13"/>
      <point x="528" y="83"/>
      <point x="528" y="259" type="curve" smooth="yes"/>
      <point x="528" y="738" type="line" smooth="yes"/>
      <point x="528" y="911"/>
      <point x="465" y="1003"/>
      <point x="333" y="1003" type="curve" smooth="yes"/>
      <point x="214" y="1003"/>
      <point x="156" y="918"/>
      <point x="136" y="808" type="curve"/>
      <point x="120" y="808" type="line"/>
      <point x="143" y="762" type="line"/>
      <point x="166" y="883"/>
      <point x="219" y="970"/>
      <point x="327" y="970" type="curve" smooth="yes"/>
      <point x="443" y="970"/>
      <point x="491" y="887"/>
      <point x="491" y="736" type="curve" smooth="yes"/>
      <point x="491" y="259" type="line" smooth="yes"/>
      <point x="491" y="105"/>
      <point x="438" y="20"/>
      <point x="326" y="20" type="curve" smooth="yes"/>
      <point x="212" y="20"/>
      <point x="151" y="109"/>
      <point x="145" y="247" type="curve"/>
      <point x="116" y="208" type="line"/>
      <point x="134" y="208" type="line"/>
      <point x="138" y="85"/>
      <point x="201" y="-13"/>
    </contour>
    <contour>
      <point x="146" y="0" type="line"/>
      <point x="142" y="158" type="line"/>
      <point x="145" y="195" type="line"/>
      <point x="145" y="799" type="line"/>
      <point x="143" y="815" type="line"/>
      <point x="147" y="1025" type="line"/>
      <point x="147" y="1334" type="line"/>
      <point x="110" y="1334" type="line"/>
      <point x="110" y="0" type="line"/>
    </contour>
  </outline>
</glyph>
<glyph name="l" format="2">
  <advance width="269"/>
  <unicode hex="006C"/>
  <anchor x="135" y="0" name="bottom"/>
  <anchor x="135" y="667" name="center"/>
  <anchor x="135" y="1334" name="top"/>
  <anchor x="303" y="1334" name="topright"/>
  <outline>
    <contour>
      <point x="153" y="0" type="line"/>
      <point x="153" y="1334" type="line"/>
      <point x="116" y="1334" type="line"/>
      <point x="116" y="0" type="line"/>
    </contour>
  </outline>
</glyph>
<glyph name="u" format="2">
  <advance width="623"/>
  <unicode hex="0075"/>
  <anchor x="312" y="0" name="bottom"/>
  <anchor x="560" y="0" name="ogonek"/>
  <anchor x="312" y="990" name="top"/>
  <anchor x="605" y="990" name="topright"/>
  <outline>
    <contour>
      <point x="102" y="990" type="line"/>
      <point x="102" y="250" type="line" smooth="yes"/>
      <point x="102" y="79"/>
      <point x="161" y="-13"/>
      <point x="290" y="-13" type="curve" smooth="yes"/>
      <point x="402" y="-13"/>
      <point x="464" y="61"/>
      <point x="485" y="185" type="curve"/>
      <point x="498" y="185" type="line"/>
      <point x="478" y="230" type="line"/>
      <point x="453" y="93"/>
      <point x="396" y="20"/>
      <point x="296" y="20" type="curve" smooth="yes"/>
      <point x="183" y="20"/>
      <point x="139" y="103"/>
      <point x="139" y="252" type="curve" smooth="yes"/>
      <point x="139" y="990" type="line"/>
    </contour>
    <contour>
      <point x="476" y="990" type="line"/>
      <point x="476" y="168" type="line"/>
      <point x="479" y="168" type="line"/>
      <point x="475" y="0" type="line"/>
      <point x="513" y="0" type="line"/>
      <point x="513" y="990" type="line"/>
    </contour>
  </outline>
</glyph>
<glyph name="guillemetleft" format="2">
  <advance width="640"/>
  <unicode hex="00AB"/>
  <outline>
    <contour>
      <point x="561" y="877" type="line"/>
      <point x="526" y="877" type="line"/>
      <point x="361" y="508" type="line"/>
      <point x="361" y="480" type="line"/>
      <point x="526" y="111" type="line"/>
      <point x="561" y="111" type="line"/>
      <point x="393" y="494" type="line"/>
    </contour>
    <contour>
      <point x="287" y="877" type="line"/>
      <point x="252" y="877" type="line"/>
      <point x="87" y="508" type="line"/>
      <point x="87" y="480" type="line"/>
      <point x="252" y="111" type="line"/>
      <point x="287" y="111" type="line"/>
      <point x="119" y="494" type="line"/>
    </contour>
  </outline>
</glyph>
<glyph name="softhyphen" format="2">
  <advance width="579"/>
  <unicode hex="00AD"/>
  <outline>
    <contour>
      <point x="468" y="521" type="line"/>
      <point x="468" y="554" type="line"/>
      <point x="111" y="554" type="line"/>
      <point x="111" y="521" type="line"/>
    </contour>
  </outline>
</glyph>
<glyph name="onehalf" format="2">
  <advance width="768"/>
  <unicode hex="00BD"/>
  <outline>
    <contour>
      <point x="189" y="595" type="line"/>
      <point x="189" y="1278" type="line"/>
      <point x="143" y="1278" type="line"/>
      <point x="16" y="1159" type="line"/>
      <point x="16" y="1119" type="line"/>
      <point x="152" y="1245" type="line"/>
      <point x="156" y="1245" type="line"/>
      <point x="156" y="595" type="line"/>
    </contour>
    <contour>
      <point x="166" y="0" type="line"/>
      <point x="574" y="1278" type="line"/>
      <point x="537" y="1278" type="line"/>
      <point x="129" y="0" type="line"/>
    </contour>
    <contour>
      <point x="731" y="0" type="line"/>
      <point x="731" y="30" type="line"/>
      <point x="510" y="30" type="line"/>
      <point x="525" y="18" type="line"/>
      <point x="525" y="34" type="line"/>
      <point x="614" y="202" type="line" smooth="yes"/>
      <point x="701" y="366"/>
      <point x="726" y="430"/>
      <point x="726" y="518" type="curve" smooth="yes"/>
      <point x="726" y="541" type="line" smooth="yes"/>
      <point x="726" y="637"/>
      <point x="690" y="691"/>
      <point x="606" y="691" type="curve" smooth="yes"/>
      <point x="563" y="691"/>
      <point x="529" y="671"/>
      <point x="509" y="655" type="curve"/>
      <point x="505" y="620" type="line"/>
      <point x="536" y="641"/>
      <point x="565" y="660"/>
      <point x="607" y="660" type="curve" smooth="yes"/>
      <point x="666" y="660"/>
      <point x="692" y="617"/>
      <point x="692" y="539" type="curve" smooth="yes"/>
      <point x="692" y="516" type="line" smooth="yes"/>
      <point x="692" y="432"/>
      <point x="663" y="363"/>
      <point x="588" y="218" type="curve" smooth="yes"/>
      <point x="493" y="35" type="line"/>
      <point x="493" y="0" type="line"/>
    </contour>
  </outline>
</glyph>
<glyph name="Aacute" format="2">
  <advance width="639"/>
  <unicode hex="00C1"/>
  <anchor x="320" y="0" name="bottom"/>
  <anchor x="635" y="0" name="ogonek"/>
  <anchor x="320" y="1516" name="top"/>
  <outline>
    <contour>
      <point x="98" y="0" type="line"/>
      <point x="307" y="1245" type="line"/>
      <point x="328" y="1245" type="line"/>
      <point x="541" y="0" type="line"/>
      <point x="581" y="0" type="line"/>
      <point x="357" y="1278" type="line"/>
      <point x="278" y="1278" type="line"/>
      <point x="58" y="0" type="line"/>
    </contour>
    <contour>
      <point x="476" y="452" type="line"/>
      <point x="476" y="485" type="line"/>
      <point x="161" y="485" type="line"/>
      <point x="161" y="452" type="line"/>
    </contour>
    <contour>
      <point x="301" y="1386" type="line"/>
      <point x="301" y="1386" type="line"/>
      <point x="338" y="1386" type="line"/>
      <point x="523" y="1589" type="line"/>
      <point x="523" y="1589" type="line"/>
      <point x="477" y="1589" type="line"/>
    </contour>
  </outline>
</glyph>
<glyph name="Atilde" format="2">
  <advance width="639"/>
  <unicode hex="00C3"/>
  <anchor x="320" y="0" name="bottom"/>
  <anchor x="635" y="0" name="ogonek"/>
  <anchor x="320" y="1529" name="top"/>
  <outline>
    <contour>
      <point x="98" y="0" type="line"/>
      <point x="307" y="1245" type="line"/>
      <point x="328" y="1245" type="line"/>
      <point x="541" y="0" type="line"/>
      <point x="581" y="0" type="line"/>
      <point x="357" y="1278" type="line"/>
      <point x="278" y="1278" type="line"/>
      <point x="58" y="0" type="line"/>
    </contour>
    <contour>
      <point x="476" y="452" type="line"/>
      <point x="476" y="485" type="line"/>
      <point x="161" y="485" type="line"/>
      <point x="161" y="452" type="line"/>
    </contour>
    <contour>
      <point x="410" y="1433" type="curve" smooth="yes"/>
      <point x="470" y="1433"/>
      <point x="490" y="1464"/>
      <point x="490" y="1522" type="curve" smooth="yes"/>
      <point x="490" y="1550" type="line"/>
      <point x="458" y="1550" type="line"/>
      <point x="458" y="1526" type="line" smooth="yes"/>
      <point x="458" y="1481"/>
      <point x="448" y="1464"/>
      <point x="412" y="1464" type="curve" smooth="yes"/>
      <point x="356" y="1464"/>
      <point x="297" y="1543"/>
      <point x="229" y="1543" type="curve" smooth="yes"/>
      <point x="168" y="1543"/>
      <point x="149" y="1512"/>
      <point x="149" y="1454" type="curve" smooth="yes"/>
      <point x="149" y="1425" type="line"/>
      <point x="180" y="1425" type="line"/>
      <point x="180" y="1450" type="line" smooth="yes"/>
      <point x="180" y="1494"/>
      <point x="191" y="1512"/>
      <point x="227" y="1512" type="curve" smooth="yes"/>
      <point x="283" y="1512"/>
      <point x="340" y="1433"/>
    </contour>
  </outline>
</glyph>
<glyph name="Adieresis" format="2">
  <advance width="639"/>
  <unicode hex="00C4"/>
  <anchor x="320" y="0" name="bottom"/>
  <anchor x="635" y="0" name="ogonek"/>
  <anchor x="320" y="1536" name="top"/>
  <outline>
    <contour>
      <point x="98" y="0" type="line"/>
      <point x="307" y="1245" type="line"/>
      <point x="328" y="1245" type="line"/>
      <point x="541" y="0" type="line"/>
      <point x="581" y="0" type="line"/>
      <point x="357" y="1278" type="line"/>
      <point x="278" y="1278" type="line"/>
      <point x="58" y="0" type="line"/>
    </contour>
    <contour>
      <point x="476" y="452" type="line"/>
      <point x="476" y="485" type="line"/>
      <point x="161" y="485" type="line"/>
      <point x="161" y="452" type="line"/>
    </contour>
    <contour>
      <point x="228" y="1444" type="curve" smooth="yes"/>
      <point x="250" y="1444"/>
      <point x="257" y="1463"/>
      <point x="257" y="1503" type="curve" smooth="yes"/>
      <point x="257" y="1511" type="line" smooth="yes"/>
      <point x="257" y="1551"/>
      <point x="250" y="1569"/>
      <point x="228" y="1569" type="curve" smooth="yes"/>
      <point x="206" y="1569"/>
      <point x="199" y="1551"/>
      <point x="199" y="1511" type="curve" smooth="yes"/>
      <point x="199" y="1503" type="line" smooth="yes"/>
      <point x="199" y="1463"/>
      <point x="206" y="1444"/>
    </contour>
    <contour>
      <point x="412" y="1444" type="curve" smooth="yes"/>
      <point x="434" y="1444"/>
      <point x="441" y="1463"/>
      <point x="441" y="1503" type="curve" smooth="yes"/>
      <point x="441" y="1511" type="line" smooth="yes"/>
      <point x="441" y="1551"/>
      <point x="434" y="1569"/>
      <point x="412" y="1569" type="curve" smooth="yes"/>
      <point x="390" y="1569"/>
      <point x="383" y="1551"/>
      <point x="383" y="1511" type="curve" smooth="yes"/>
      <point x="383" y="1503" type="line" smooth="yes"/>
      <point x="383" y="1463"/>
      <point x="390" y="1444"/>
    </contour>
  </outline>
</glyph>
<glyph name="Aring" format="2">
  <advance width="639"/>
  <unicode hex="00C5"/>
  <anchor x="320" y="0" name="bottom"/>
  <anchor x="635" y="0" name="ogonek"/>
  <anchor x="320" y="1563" name="top"/>
  <outline>
    <contour>
      <point x="98" y="0" type="line"/>
      <point x="307" y="1245" type="line"/>
      <point x="328" y="1245" type="line"/>
      <point x="541" y="0" type="line"/>
      <point x="581" y="0" type="line"/>
      <point x="357" y="1278" type="line"/>
      <point x="278" y="1278" type="line"/>
      <point x="58" y="0" type="line"/>
    </contour>
    <contour>
      <point x="476" y="452" type="line"/>
      <point x="476" y="485" type="line"/>
      <point x="161" y="485" type="line"/>
      <point x="161" y="452" type="line"/>
    </contour>
    <contour>
      <point x="192" y="1481" type="line"/>
      <point x="192" y="1404"/>
      <point x="243" y="1356"/>
      <point x="320" y="1356" type="curve" smooth="yes"/>
      <point x="397" y="1356"/>
      <point x="448" y="1404"/>
      <point x="448" y="1481" type="curve"/>
      <point x="448" y="1483" type="line"/>
      <point x="448" y="1562"/>
      <point x="397" y="1610"/>
      <point x="320" y="1610" type="curve" smooth="yes"/>
      <point x="243" y="1610"/>
      <point x="192" y="1562"/>
      <point x="192" y="1483" type="curve"/>
    </contour>
    <contour>
      <point x="225" y="1483" type="line"/>
      <point x="225" y="1544"/>
      <point x="260" y="1580"/>
      <point x="320" y="1580" type="curve" smooth="yes"/>
      <point x="380" y="1580"/>
      <point x="415" y="1544"/>
      <point x="415" y="1483" type="curve"/>
      <point x="415" y="1481" type="line"/>
      <point x="415" y="1422"/>
      <point x="380" y="1386"/>
      <point x="320" y="1386" type="curve" smooth="yes"/>
      <point x="260" y="1386"/>
      <point x="225" y="1422"/>
      <point x="225" y="1481" type="curve"/>
    </contour>
  </outline>
</glyph>
<glyph name="Edieresis" format="2">
  <advance width="542"/>
  <unicode hex="00CB"/>
  <anchor x="303" y="0" name="bottom"/>
  <anchor x="531" y="0" name="ogonek"/>
  <anchor x="303" y="1536" name="top"/>
  <anchor x="20" y="1278" name="topleft"/>
  <outline>
    <contour>
      <point x="160" y="0" type="line"/>
      <point x="160" y="1278" type="line"/>
      <point x="121" y="1278" type="line"/>
      <point x="121" y="0" type="line"/>
    </contour>
    <contour>
      <point x="476" y="0" type="line"/>
      <point x="476" y="35" type="line"/>
      <point x="125" y="35" type="line"/>
      <point x="125" y="0" type="line"/>
    </contour>
    <contour>
      <point x="472" y="641" type="line"/>
      <point x="472" y="675" type="line"/>
      <point x="139" y="675" type="line"/>
      <point x="139" y="641" type="line"/>
    </contour>
    <contour>
      <point x="476" y="1243" type="line"/>
      <point x="476" y="1278" type="line"/>
      <point x="121" y="1278" type="line"/>
      <point x="121" y="1243" type="line"/>
    </contour>
    <contour>
      <point x="211" y="1444" type="curve" smooth="yes"/>
      <point x="233" y="1444"/>
      <point x="240" y="1463"/>
      <point x="240" y="1503" type="curve" smooth="yes"/>
      <point x="240" y="1511" type="line" smooth="yes"/>
      <point x="240" y="1551"/>
      <point x="233" y="1569"/>
      <point x="211" y="1569" type="curve" smooth="yes"/>
      <point x="189" y="1569"/>
      <point x="182" y="1551"/>
      <point x="182" y="1511" type="curve" smooth="yes"/>
      <point x="182" y="1503" type="line" smooth="yes"/>
      <point x="182" y="1463"/>
      <point x="189" y="1444"/>
    </contour>
    <contour>
      <point x="395" y="1444" type="curve" smooth="yes"/>
      <point x="417" y="1444"/>
      <point x="424" y="1463"/>
      <point x="424" y="1503" type="curve" smooth="yes"/>
      <point x="424" y="1511" type="line" smooth="yes"/>
      <point x="424" y="1551"/>
      <point x="417" y="1569"/>
      <point x="395" y="1569" type="curve" smooth="yes"/>
      <point x="373" y="1569"/>
      <point x="366" y="1551"/>
      <point x="366" y="1511" type="curve" smooth="yes"/>
      <point x="366" y="1503" type="line" smooth="yes"/>
      <point x="366" y="1463"/>
      <point x="373" y="1444"/>
    </contour>
  </outline>
</glyph>
<glyph name="Igrave" format="2">
  <advance width="287"/>
  <unicode hex="00CC"/>
  <anchor x="144" y="0" name="bottom"/>
  <anchor x="218" y="0" name="ogonek"/>
  <anchor x="78" y="1516" name="top"/>
  <anchor x="20" y="1278" name="topleft"/>
  <outline>
    <contour>
      <point x="163" y="1278" type="line"/>
      <point x="124" y="1278" type="line"/>
      <point x="124" y="0" type="line"/>
      <point x="163" y="0" type="line"/>
    </contour>
    <contour>
      <point x="-60" y="1589" type="line"/>
      <point x="-60" y="1589" type="line"/>
      <point x="125" y="1386" type="line"/>
      <point x="162" y="1386" type="line"/>
      <point x="162" y="1386" type="line"/>
      <point x="-14" y="1589" type="line"/>
    </contour>
  </outline>
</glyph>
<glyph name="Eth" format="2">
  <advance width="665"/>
  <unicode hex="00D0"/>
  <anchor x="322" y="0" name="bottom"/>
  <anchor x="333" y="639" name="center"/>
  <anchor x="322" y="1278" name="top"/>
  <outline>
    <contour>
      <point x="354" y="647" type="line"/>
      <point x="354" y="681" type="line"/>
      <point x="22" y="681" type="line"/>
      <point x="22" y="647" type="line"/>
    </contour>
    <contour>
      <point x="307" y="0" type="line" smooth="yes"/>
      <point x="476" y="0"/>
      <point x="565" y="106"/>
      <point x="565" y="297" type="curve" smooth="yes"/>
      <point x="565" y="980" type="line" smooth="yes"/>
      <point x="565" y="1172"/>
      <point x="476" y="1278"/>
      <point x="307" y="1278" type="curve" smooth="yes"/>
      <point x="139" y="1278" type="line"/>
      <point x="139" y="1243" type="line"/>
      <point x="305" y="1243" type="line" smooth="yes"/>
      <point x="453" y="1243"/>
      <point x="526" y="1152"/>
      <point x="526" y="978" type="curve" smooth="yes"/>
      <point x="526" y="298" type="line" smooth="yes"/>
      <point x="526" y="126"/>
      <point x="453" y="35"/>
      <point x="305" y="35" type="curve" smooth="yes"/>
      <point x="132" y="35" type="line"/>
      <point x="132" y="0" type="line"/>
    </contour>
    <contour>
      <point x="160" y="0" type="line"/>
      <point x="160" y="1278" type="line"/>
      <point x="121" y="1278" type="line"/>
      <point x="121" y="0" type="line"/>
    </contour>
  </outline>
</glyph>
<glyph name="Ntilde" format="2">
  <advance width="696"/>
  <unicode hex="00D1"/>
  <anchor x="348" y="0" name="bottom"/>
  <anchor x="348" y="1529" name="top"/>
  <outline>
    <contour>
      <point x="121" y="1278" type="line"/>
      <point x="121" y="0" type="line"/>
      <point x="160" y="0" type="line"/>
      <point x="160" y="643" type="line"/>
      <point x="156" y="1245" type="line"/>
      <point x="167" y="1245" type="line"/>
      <point x="501" y="0" type="line"/>
      <point x="575" y="0" type="line"/>
      <point x="575" y="1278" type="line"/>
      <point x="536" y="1278" type="line"/>
      <point x="536" y="635" type="line"/>
      <point x="540" y="33" type="line"/>
      <point x="529" y="33" type="line"/>
      <point x="194" y="1278" type="line"/>
    </contour>
    <contour>
      <point x="438" y="1433" type="curve" smooth="yes"/>
      <point x="498" y="1433"/>
      <point x="518" y="1464"/>
      <point x="518" y="1522" type="curve" smooth="yes"/>
      <point x="518" y="1550" type="line"/>
      <point x="486" y="1550" type="line"/>
      <point x="486" y="1526" type="line" smooth="yes"/>
      <point x="486" y="1481"/>
      <point x="476" y="1464"/>
      <point x="440" y="1464" type="curve" smooth="yes"/>
      <point x="384" y="1464"/>
      <point x="325" y="1543"/>
      <point x="257" y="1543" type="curve" smooth="yes"/>
      <point x="196" y="1543"/>
      <point x="177" y="1512"/>
      <point x="177" y="1454" type="curve" smooth="yes"/>
      <point x="177" y="1425" type="line"/>
      <point x="208" y="1425" type="line"/>
      <point x="208" y="1450" type="line" smooth="yes"/>
      <point x="208" y="1494"/>
      <point x="219" y="1512"/>
      <point x="255" y="1512" type="curve" smooth="yes"/>
      <point x="311" y="1512"/>
      <point x="368" y="1433"/>
    </contour>
  </outline>
</glyph>
<glyph name="Odieresis" format="2">
  <advance width="664"/>
  <unicode hex="00D6"/>
  <anchor x="332" y="0" name="bottom"/>
  <anchor x="332" y="639" name="center"/>
  <anchor x="481" y="10" name="ogonek"/>
  <anchor x="332" y="1536" name="top"/>
  <anchor x="20" y="1278" name="topleft"/>
  <anchor x="568" y="1278" name="topright"/>
  <outline>
    <contour>
      <point x="332" y="-15" type="curve" smooth="yes"/>
      <point x="485" y="-15"/>
      <point x="564" y="89"/>
      <point x="564" y="291" type="curve" smooth="yes"/>
      <point x="564" y="985" type="line" smooth="yes"/>
      <point x="564" y="1187"/>
      <point x="485" y="1293"/>
      <point x="332" y="1293" type="curve" smooth="yes"/>
      <point x="178" y="1293"/>
      <point x="100" y="1187"/>
      <point x="100" y="985" type="curve" smooth="yes"/>
      <point x="100" y="291" type="line" smooth="yes"/>
      <point x="100" y="89"/>
      <point x="178" y="-15"/>
    </contour>
    <contour>
      <point x="332" y="21" type="curve" smooth="yes"/>
      <point x="201" y="21"/>
      <point x="139" y="116"/>
      <point x="139" y="290" type="curve" smooth="yes"/>
      <point x="139" y="987" type="line" smooth="yes"/>
      <point x="139" y="1162"/>
      <point x="201" y="1257"/>
      <point x="332" y="1257" type="curve" smooth="yes"/>
      <point x="463" y="1257"/>
      <point x="525" y="1162"/>
      <point x="525" y="987" type="curve" smooth="yes"/>
      <point x="525" y="290" type="line" smooth="yes"/>
      <point x="525" y="116"/>
      <point x="463" y="21"/>
    </contour>
    <contour>
      <point x="240" y="1444" type="curve" smooth="yes"/>
      <point x="262" y="1444"/>
      <point x="269" y="1463"/>
      <point x="269" y="1503" type="curve" smooth="yes"/>
      <point x="269" y="1511" type="line" smooth="yes"/>
      <point x="269" y="1551"/>
      <point x="262" y="1569"/>
      <point x="240" y="1569" type="curve" smooth="yes"/>
      <point x="218" y="1569"/>
      <point x="211" y="1551"/>
      <point x="211" y="1511" type="curve" smooth="yes"/>
      <point x="211" y="1503" type="line" smooth="yes"/>
      <point x="211" y="1463"/>
      <point x="218" y="1444"/>
    </contour>
    <contour>
      <point x="424" y="1444" type="curve" smooth="yes"/>
      <point x="446" y="1444"/>
      <point x="453" y="1463"/>
      <point x="453" y="1503" type="curve" smooth="yes"/>
      <point x="453" y="1511" type="line" smooth="yes"/>
      <point x="453" y="1551"/>
      <point x="446" y="1569"/>
      <point x="424" y="1569" type="curve" smooth="yes"/>
      <point x="402" y="1569"/>
      <point x="395" y="1551"/>
      <point x="395" y="1511" type="curve" smooth="yes"/>
      <point x="395" y="1503" type="line" smooth="yes"/>
      <point x="395" y="1463"/>
      <point x="402" y="1444"/>
    </contour>
  </outline>
</glyph>
<glyph name="adieresis" format="2">
  <advance width="553"/>
  <unicode hex="00E4"/>
  <anchor x="263" y="0" name="bottom"/>
  <anchor x="498" y="0" name="ogonek"/>
  <anchor x="263" y="1278" name="top"/>
  <outline>
    <contour>
      <point x="451" y="0" type="line"/>
      <point x="451" y="756" type="line" smooth="yes"/>
      <point x="451" y="918"/>
      <point x="392" y="1003"/>
      <point x="263" y="1003" type="curve" smooth="yes"/>
      <point x="189" y="1003"/>
      <point x="124" y="969"/>
      <point x="78" y="930" type="curve"/>
      <point x="73" y="887" type="line"/>
      <point x="130" y="935"/>
      <point x="196" y="968"/>
      <point x="263" y="968" type="curve" smooth="yes"/>
      <point x="367" y="968"/>
      <point x="414" y="897"/>
      <point x="414" y="754" type="curve" smooth="yes"/>
      <point x="414" y="595" type="line"/>
      <point x="414" y="172" type="line"/>
      <point x="418" y="172" type="line"/>
      <point x="414" y="0" type="line"/>
    </contour>
    <contour>
      <point x="243" y="-13" type="curve" smooth="yes"/>
      <point x="351" y="-13"/>
      <point x="405" y="70"/>
      <point x="423" y="179" type="curve"/>
      <point x="436" y="179" type="line"/>
      <point x="416" y="225" type="line"/>
      <point x="396" y="105"/>
      <point x="346" y="20"/>
      <point x="248" y="20" type="curve" smooth="yes"/>
      <point x="142" y="20"/>
      <point x="101" y="96"/>
      <point x="101" y="231" type="curve" smooth="yes"/>
      <point x="101" y="305" type="line" smooth="yes"/>
      <point x="101" y="418"/>
      <point x="138" y="475"/>
      <point x="255" y="515" type="curve" smooth="yes"/>
      <point x="433" y="576" type="line"/>
      <point x="430" y="611" type="line"/>
      <point x="246" y="546" type="line" smooth="yes"/>
      <point x="104" y="496"/>
      <point x="64" y="427"/>
      <point x="64" y="305" type="curve" smooth="yes"/>
      <point x="64" y="229" type="line" smooth="yes"/>
      <point x="64" y="72"/>
      <point x="119" y="-13"/>
    </contour>
    <contour>
      <point x="171" y="1171" type="curve" smooth="yes"/>
      <point x="193" y="1171"/>
      <point x="200" y="1190"/>
      <point x="200" y="1230" type="curve" smooth="yes"/>
      <point x="200" y="1238" type="line" smooth="yes"/>
      <point x="200" y="1278"/>
      <point x="193" y="1296"/>
      <point x="171" y="1296" type="curve" smooth="yes"/>
      <point x="149" y="1296"/>
      <point x="142" y="1278"/>
      <point x="142" y="1238" type="curve" smooth="yes"/>
      <point x="142" y="1230" type="line" smooth="yes"/>
      <point x="142" y="1190"/>
      <point x="149" y="1171"/>
    </contour>
    <contour>
      <point x="355" y="1171" type="curve" smooth="yes"/>
      <point x="377" y="1171"/>
      <point x="384" y="1190"/>
      <point x="384" y="1230" type="curve" smooth="yes"/>
      <point x="384" y="1238" type="line" smooth="yes"/>
      <point x="384" y="1278"/>
      <point x="377" y="1296"/>
      <point x="355" y="1296" type="curve" smooth="yes"/>
      <point x="333" y="1296"/>
      <point x="326" y="1278"/>
      <point x="326" y="1238" type="curve" smooth="yes"/>
      <point x="326" y="1230" type="line" smooth="yes"/>
      <point x="326" y="1190"/>
      <point x="333" y="1171"/>
    </contour>
  </outline>
</glyph>
<glyph name="aring" format="2">
  <advance width="553"/>
  <unicode hex="00E5"/>
  <anchor x="263" y="0" name="bottom"/>
  <anchor x="498" y="0" name="ogonek"/>
  <anchor x="266" y="1323" name="top"/>
  <outline>
    <contour>
      <point x="451" y="0" type="line"/>
      <point x="451" y="756" type="line" smooth="yes"/>
      <point x="451" y="918"/>
      <point x="392" y="1003"/>
      <point x="263" y="1003" type="curve" smooth="yes"/>
      <point x="189" y="1003"/>
      <point x="124" y="969"/>
      <point x="78" y="930" type="curve"/>
      <point x="73" y="887" type="line"/>
      <point x="130" y="935"/>
      <point x="196" y="968"/>
      <point x="263" y="968" type="curve" smooth="yes"/>
      <point x="367" y="968"/>
      <point x="414" y="897"/>
      <point x="414" y="754" type="curve" smooth="yes"/>
      <point x="414" y="595" type="line"/>
      <point x="414" y="172" type="line"/>
      <point x="418" y="172" type="line"/>
      <point x="414" y="0" type="line"/>
    </contour>
    <contour>
      <point x="243" y="-13" type="curve" smooth="yes"/>
      <point x="351" y="-13"/>
      <point x="405" y="70"/>
      <point x="423" y="179" type="curve"/>
      <point x="436" y="179" type="line"/>
      <point x="416" y="225" type="line"/>
      <point x="396" y="105"/>
      <point x="346" y="20"/>
      <point x="248" y="20" type="curve" smooth="yes"/>
      <point x="142" y="20"/>
      <point x="101" y="96"/>
      <point x="101" y="231" type="curve" smooth="yes"/>
      <point x="101" y="305" type="line" smooth="yes"/>
      <point x="101" y="418"/>
      <point x="138" y="475"/>
      <point x="255" y="515" type="curve" smooth="yes"/>
      <point x="433" y="576" type="line"/>
      <point x="430" y="611" type="line"/>
      <point x="246" y="546" type="line" smooth="yes"/>
      <point x="104" y="496"/>
      <point x="64" y="427"/>
      <point x="64" y="305" type="curve" smooth="yes"/>
      <point x="64" y="229" type="line" smooth="yes"/>
      <point x="64" y="72"/>
      <point x="119" y="-13"/>
    </contour>
    <contour>
      <point x="135" y="1224" type="line"/>
      <point x="135" y="1147"/>
      <point x="186" y="1099"/>
      <point x="263" y="1099" type="curve" smooth="yes"/>
      <point x="340" y="1099"/>
      <point x="391" y="1147"/>
      <point x="391" y="1224" type="curve"/>
      <point x="391" y="1226" type="line"/>
      <point x="391" y="1305"/>
      <point x="340" y="1353"/>
      <point x="263" y="1353" type="curve" smooth="yes"/>
      <point x="186" y="1353"/>
      <point x="135" y="1305"/>
      <point x="135" y="1226" type="curve"/>
    </contour>
    <contour>
      <point x="168" y="1226" type="line"/>
      <point x="168" y="1287"/>
      <point x="203" y="1323"/>
      <point x="263" y="1323" type="curve" smooth="yes"/>
      <point x="323" y="1323"/>
      <point x="358" y="1287"/>
      <point x="358" y="1226" type="curve"/>
      <point x="358" y="1224" type="line"/>
      <point x="358" y="1165"/>
      <point x="323" y="1129"/>
      <point x="263" y="1129" type="curve" smooth="yes"/>
      <point x="203" y="1129"/>
      <point x="168" y="1165"/>
      <point x="168" y="1224" type="curve"/>
    </contour>
  </outline>
</glyph>
<glyph name="idieresis" format="2">
  <advance width="269"/>
  <unicode hex="00EF"/>
  <anchor x="135" y="0" name="bottom"/>
  <anchor x="200" y="0" name="ogonek"/>
  <anchor x="135" y="1278" name="top"/>
  <outline>
    <contour>
      <point x="153" y="0" type="line"/>
      <point x="153" y="990" type="line"/>
      <point x="116" y="990" type="line"/>
      <point x="116" y="0" type="line"/>
    </contour>
    <contour>
      <point x="58" y="1171" type="curve" smooth="yes"/>
      <point x="80" y="1171"/>
      <point x="87" y="1190"/>
      <point x="87" y="1230" type="curve" smooth="yes"/>
      <point x="87" y="1238" type="line" smooth="yes"/>
      <point x="87" y="1278"/>
      <point x="80" y="1296"/>
      <point x="58" y="1296" type="curve" smooth="yes"/>
      <point x="36" y="1296"/>
      <point x="29" y="1278"/>
      <point x="29" y="1238" type="curve" smooth="yes"/>
      <point x="29" y="1230" type="line" smooth="yes"/>
      <point x="29" y="1190"/>
      <point x="36" y="1171"/>
    </contour>
    <contour>
      <point x="212" y="1171" type="curve" smooth="yes"/>
      <point x="234" y="1171"/>
      <point x="241" y="1190"/>
      <point x="241" y="1230" type="curve" smooth="yes"/>
      <point x="241" y="1238" type="line" smooth="yes"/>
      <point x="241" y="1278"/>
      <point x="234" y="1296"/>
      <point x="212" y="1296" type="curve" smooth="yes"/>
      <point x="190" y="1296"/>
      <point x="183" y="1278"/>
      <point x="183" y="1238" type="curve" smooth="yes"/>
      <point x="183" y="1230" type="line" smooth="yes"/>
      <point x="183" y="1190"/>
      <point x="190" y="1171"/>
    </contour>
  </outline>
</glyph>
<glyph name="ntilde" format="2">
  <advance width="623"/>
  <unicode hex="00F1"/>
  <anchor x="312" y="0" name="bottom"/>
  <anchor x="313" y="1268" name="top"/>
  <outline>
    <contour>
      <point x="521" y="0" type="line"/>
      <point x="521" y="740" type="line" smooth="yes"/>
      <point x="521" y="911"/>
      <point x="462" y="1003"/>
      <point x="333" y="1003" type="curve" smooth="yes"/>
      <point x="221" y="1003"/>
      <point x="159" y="929"/>
      <point x="138" y="805" type="curve"/>
      <point x="125" y="805" type="line"/>
      <point x="145" y="760" type="line"/>
      <point x="170" y="897"/>
      <point x="227" y="970"/>
      <point x="327" y="970" type="curve" smooth="yes"/>
      <point x="440" y="970"/>
      <point x="484" y="887"/>
      <point x="484" y="738" type="curve" smooth="yes"/>
      <point x="484" y="0" type="line"/>
    </contour>
    <contour>
      <point x="147" y="0" type="line"/>
      <point x="147" y="822" type="line"/>
      <point x="144" y="822" type="line"/>
      <point x="148" y="990" type="line"/>
      <point x="110" y="990" type="line"/>
      <point x="110" y="0" type="line"/>
    </contour>
    <contour>
      <point x="406" y="1155" type="curve" smooth="yes"/>
      <point x="461" y="1155"/>
      <point x="482" y="1187"/>
      <point x="482" y="1247" type="curve" smooth="yes"/>
      <point x="482" y="1278" type="line"/>
      <point x="450" y="1278" type="line"/>
      <point x="450" y="1251" type="line" smooth="yes"/>
      <point x="450" y="1204"/>
      <point x="440" y="1186"/>
      <point x="406" y="1186" type="curve" smooth="yes"/>
      <point x="354" y="1186"/>
      <point x="303" y="1271"/>
      <point x="237" y="1271" type="curve" smooth="yes"/>
      <point x="182" y="1271"/>
      <point x="161" y="1238"/>
      <point x="161" y="1179" type="curve" smooth="yes"/>
      <point x="161" y="1147" type="line"/>
      <point x="192" y="1147" type="line"/>
      <point x="192" y="1175" type="line" smooth="yes"/>
      <point x="192" y="1221"/>
      <point x="203" y="1240"/>
      <point x="237" y="1240" type="curve" smooth="yes"/>
      <point x="289" y="1240"/>
      <point x="338" y="1155"/>
    </contour>
  </outline>
</glyph>
<glyph name="otilde" format="2">
  <advance width="598"/>
  <unicode hex="00F5"/>
  <anchor x="299" y="0" name="bottom"/>
  <anchor x="299" y="495" name="center"/>
  <anchor x="427" y="0" name="ogonek"/>
  <anchor x="300" y="1268" name="top"/>
  <anchor x="515" y="990" name="topright"/>
  <outline>
    <contour>
      <point x="299" y="-13" type="curve" smooth="yes"/>
      <point x="439" y="-13"/>
      <point x="509" y="79"/>
      <point x="509" y="254" type="curve" smooth="yes"/>
      <point x="509" y="736" type="line" smooth="yes"/>
      <point x="509" y="911"/>
      <point x="439" y="1003"/>
      <point x="299" y="1003" type="curve" smooth="yes"/>
      <point x="159" y="1003"/>
      <point x="89" y="911"/>
      <point x="89" y="736" type="curve" smooth="yes"/>
      <point x="89" y="254" type="line" smooth="yes"/>
      <point x="89" y="79"/>
      <point x="159" y="-13"/>
    </contour>
    <contour>
      <point x="299" y="20" type="curve" smooth="yes"/>
      <point x="181" y="20"/>
      <point x="126" y="101"/>
      <point x="126" y="254" type="curve" smooth="yes"/>
      <point x="126" y="736" type="line" smooth="yes"/>
      <point x="126" y="889"/>
      <point x="181" y="970"/>
      <point x="299" y="970" type="curve" smooth="yes"/>
      <point x="417" y="970"/>
      <point x="472" y="889"/>
      <point x="472" y="736" type="curve" smooth="yes"/>
      <point x="472" y="254" type="line" smooth="yes"/>
      <point x="472" y="101"/>
      <point x="417" y="20"/>
    </contour>
    <contour>
      <point x="393" y="1155" type="curve" smooth="yes"/>
      <point x="448" y="1155"/>
      <point x="469" y="1187"/>
      <point x="469" y="1247" type="curve" smooth="yes"/>
      <point x="469" y="1278" type="line"/>
      <point x="437" y="1278" type="line"/>
      <point x="437" y="1251" type="line" smooth="yes"/>
      <point x="437" y="1204"/>
      <point x="427" y="1186"/>
      <point x="393" y="1186" type="curve" smooth="yes"/>
      <point x="341" y="1186"/>
      <point x="290" y="1271"/>
      <point x="224" y="1271" type="curve" smooth="yes"/>
      <point x="169" y="1271"/>
      <point x="148" y="1238"/>
      <point x="148" y="1179" type="curve" smooth="yes"/>
      <point x="148" y="1147" type="line"/>
      <point x="179" y="1147" type="line"/>
      <point x="179" y="1175" type="line" smooth="yes"/>
      <point x="179" y="1221"/>
      <point x="190" y="1240"/>
      <point x="224" y="1240" type="curve" smooth="yes"/>
      <point x="276" y="1240"/>
      <point x="325" y="1155"/>
    </contour>
  </outline>
</glyph>
<glyph name="odieresis" format="2">
  <advance width="598"/>
  <unicode hex="00F6"/>
  <anchor x="299" y="0" name="bottom"/>
  <anchor x="299" y="495" name="center"/>
  <anchor x="427" y="0" name="ogonek"/>
  <anchor x="299" y="1278" name="top"/>
  <anchor x="515" y="990" name="topright"/>
  <outline>
    <contour>
      <point x="299" y="-13" type="curve" smooth="yes"/>
      <point x="439" y="-13"/>
      <point x="509" y="79"/>
      <point x="509" y="254" type="curve" smooth="yes"/>
      <point x="509" y="736" type="line" smooth="yes"/>
      <point x="509" y="911"/>
      <point x="439" y="1003"/>
      <point x="299" y="1003" type="curve" smooth="yes"/>
      <point x="159" y="1003"/>
      <point x="89" y="911"/>
      <point x="89" y="736" type="curve" smooth="yes"/>
      <point x="89" y="254" type="line" smooth="yes"/>
      <point x="89" y="79"/>
      <point x="159" y="-13"/>
    </contour>
    <contour>
      <point x="299" y="20" type="curve" smooth="yes"/>
      <point x="181" y="20"/>
      <point x="126" y="101"/>
      <point x="126" y="254" type="curve" smooth="yes"/>
      <point x="126" y="736" type="line" smooth="yes"/>
      <point x="126" y="889"/>
      <point x="181" y="970"/>
      <point x="299" y="970" type="curve" smooth="yes"/>
      <point x="417" y="970"/>
      <point x="472" y="889"/>
      <point x="472" y="736" type="curve" smooth="yes"/>
      <point x="472" y="254" type="line" smooth="yes"/>
      <point x="472" y="101"/>
      <point x="417" y="20"/>
    </contour>
    <contour>
      <point x="207" y="1171" type="curve" smooth="yes"/>
      <point x="229" y="1171"/>
      <point x="236" y="1190"/>
      <point x="236" y="1230" type="curve" smooth="yes"/>
      <point x="236" y="1238" type="line" smooth="yes"/>
      <point x="236" y="1278"/>
      <point x="229" y="1296"/>
      <point x="207" y="1296" type="curve" smooth="yes"/>
      <point x="185" y="1296"/>
      <point x="178" y="1278"/>
      <point x="178" y="1238" type="curve" smooth="yes"/>
      <point x="178" y="1230" type="line" smooth="yes"/>
      <point x="178" y="1190"/>
      <point x="185" y="1171"/>
    </contour>
    <contour>
      <point x="391" y="1171" type="curve" smooth="yes"/>
      <point x="413" y="1171"/>
      <point x="420" y="1190"/>
      <point x="420" y="1230" type="curve" smooth="yes"/>
      <point x="420" y="1238" type="line" smooth="yes"/>
      <point x="420" y="1278"/>
      <point x="413" y="1296"/>
      <point x="391" y="1296" type="curve" smooth="yes"/>
      <point x="369" y="1296"/>
      <point x="362" y="1278"/>
      <point x="362" y="1238" type="curve" smooth="yes"/>
      <point x="362" y="1230" type="line" smooth="yes"/>
      <point x="362" y="1190"/>
      <point x="369" y="1171"/>
    </contour>
  </outline>
</glyph>
<glyph name="udieresis" format="2">
  <advance width="623"/>
  <unicode hex="00FC"/>
  <anchor x="312" y="0" name="bottom"/>
  <anchor x="560" y="0" name="ogonek"/>
  <anchor x="312" y="1278" name="top"/>
  <anchor x="605" y="990" name="topright"/>
  <outline>
    <contour>
      <point x="102" y="990" type="line"/>
      <point x="102" y="250" type="line" smooth="yes"/>
      <point x="102" y="79"/>
      <point x="161" y="-13"/>
      <point x="290" y="-13" type="curve" smooth="yes"/>
      <point x="402" y="-13"/>
      <point x="464" y="61"/>
      <point x="485" y="185" type="curve"/>
      <point x="498" y="185" type="line"/>
      <point x="478" y="230" type="line"/>
      <point x="453" y="93"/>
      <point x="396" y="20"/>
      <point x="296" y="20" type="curve" smooth="yes"/>
      <point x="183" y="20"/>
      <point x="139" y="103"/>
      <point x="139" y="252" type="curve" smooth="yes"/>
      <point x="139" y="990" type="line"/>
    </contour>
    <contour>
      <point x="476" y="990" type="line"/>
      <point x="476" y="168" type="line"/>
      <point x="479" y="168" type="line"/>
      <point x="475" y="0" type="line"/>
      <point x="513" y="0" type="line"/>
      <point x="513" y="990" type="line"/>
    </contour>
    <contour>
      <point x="220" y="1171" type="curve" smooth="yes"/>
      <point x="242" y="1171"/>
      <point x="249" y="1190"/>
      <point x="249" y="1230" type="curve" smooth="yes"/>
      <point x="249" y="1238" type="line" smooth="yes"/>
      <point x="249" y="1278"/>
      <point x="242" y="1296"/>
      <point x="220" y="1296" type="curve" smooth="yes"/>
      <point x="198" y="1296"/>
      <point x="191" y="1278"/>
      <point x="191" y="1238" type="curve" smooth="yes"/>
      <point x="191" y="1230" type="line" smooth="yes"/>
      <point x="191" y="1190"/>
      <point x="198" y="1171"/>
    </contour>
    <contour>
      <point x="404" y="1171" type="curve" smooth="yes"/>
      <point x="426" y="1171"/>
      <point x="433" y="1190"/>
      <point x="433" y="1230" type="curve" smooth="yes"/>
      <point x="433" y="1238" type="line" smooth="yes"/>
      <point x="433" y="1278"/>
      <point x="426" y="1296"/>
      <point x="404" y="1296" type="curve" smooth="yes"/>
      <point x="382" y="1296"/>
      <point x="375" y="1278"/>
      <point x="375" y="1238" type="curve" smooth="yes"/>
      <point x="375" y="1230" type="line" smooth="yes"/>
      <point x="375" y="1190"/>
      <point x="382" y="1171"/>
    </contour>
  </outline>
</glyph>
<glyph name="yacute" format="2">
  <advance width="567"/>
  <unicode hex="00FD"/>
  <anchor x="403" y="-10" name="bottom"/>
  <anchor x="294" y="1268" name="top"/>
  <outline>
    <contour>
      <point x="277" y="83" type="line"/>
      <point x="93" y="990" type="line"/>
      <point x="54" y="990" type="line"/>
      <point x="249" y="50" type="line"/>
      <point x="299" y="50" type="line"/>
      <point x="286" y="68" type="line"/>
      <point x="200" y="-350" type="line"/>
      <point x="236" y="-350" type="line"/>
      <point x="513" y="990" type="line"/>
      <point x="474" y="990" type="line"/>
      <point x="288" y="74" type="line"/>
      <point x="304" y="83" type="line"/>
    </contour>
    <contour>
      <point x="268" y="1108" type="line"/>
      <point x="268" y="1108" type="line"/>
      <point x="301" y="1108" type="line"/>
      <point x="432" y="1331" type="line"/>
      <point x="432" y="1331" type="line"/>
      <point x="390" y="1331" type="line"/>
    </contour>
  </outline>
</glyph>
<glyph name="ydieresis" format="2">
  <advance width="567"/>
  <unicode hex="00FF"/>
  <anchor x="403" y="-10" name="bottom"/>
  <anchor x="284" y="1278" name="top"/>
  <outline>
    <contour>
      <point x="277" y="83" type="line"/>
      <point x="93" y="990" type="line"/>
      <point x="54" y="990" type="line"/>
      <point x="249" y="50" type="line"/>
      <point x="299" y="50" type="line"/>
      <point x="286" y="68" type="line"/>
      <point x="200" y="-350" type="line"/>
      <point x="236" y="-350" type="line"/>
      <point x="513" y="990" type="line"/>
      <point x="474" y="990" type="line"/>
      <point x="288" y="74" type="line"/>
      <point x="304" y="83" type="line"/>
    </contour>
    <contour>
      <point x="192" y="1171" type="curve" smooth="yes"/>
      <point x="214" y="1171"/>
      <point x="221" y="1190"/>
      <point x="221" y="1230" type="curve" smooth="yes"/>
      <point x="221" y="1238" type="line" smooth="yes"/>
      <point x="221" y="1278"/>
      <point x="214" y="1296"/>
      <point x="192" y="1296" type="curve" smooth="yes"/>
      <point x="170" y="1296"/>
      <point x="163" y="1278"/>
      <point x="163" y="1238" type="curve" smooth="yes"/>
      <point x="163" y="1230" type="line" smooth="yes"/>
      <point x="163" y="1190"/>
      <point x="170" y="1171"/>
    </contour>
    <contour>
      <point x="376" y="1171" type="curve" smooth="yes"/>
      <point x="398" y="1171"/>
      <point x="405" y="1190"/>
      <point x="405" y="1230" type="curve" smooth="yes"/>
      <point x="405" y="1238" type="line" smooth="yes"/>
      <point x="405" y="1278"/>
      <point x="398" y="1296"/>
      <point x="376" y="1296" type="curve" smooth="yes"/>
      <point x="354" y="1296"/>
      <point x="347" y="1278"/>
      <point x="347" y="1238" type="curve" smooth="yes"/>
      <point x="347" y="1230" type="line" smooth="yes"/>
      <point x="347" y="1190"/>
      <point x="354" y="1171"/>
    </contour>
  </outline>
</glyph>
<glyph name="oe" format="2">
  <advance width="936"/>
  <unicode hex="0153"/>
  <anchor x="468" y="0" name="bottom"/>
  <anchor x="468" y="990" name="top"/>
  <outline>
    <contour>
      <point x="299" y="-13" type="curve" smooth="yes"/>
      <point x="404" y="-13"/>
      <point x="467" y="42"/>
      <point x="491" y="149" type="curve"/>
      <point x="488" y="149" type="line"/>
      <point x="515" y="40"/>
      <point x="583" y="-13"/>
      <point x="686" y="-13" type="curve" smooth="yes"/>
      <point x="757" y="-13"/>
      <point x="814" y="16"/>
      <point x="852" y="49" type="curve"/>
      <point x="857" y="93" type="line"/>
      <point x="810" y="53"/>
      <point x="755" y="22"/>
      <point x="688" y="22" type="curve" smooth="yes"/>
      <point x="575" y="22"/>
      <point x="509" y="99"/>
      <point x="509" y="252" type="curve" smooth="yes"/>
      <point x="509" y="469" type="line"/>
      <point x="509" y="480" type="line"/>
      <point x="509" y="749" type="line" smooth="yes"/>
      <point x="509" y="892"/>
      <point x="561" y="970"/>
      <point x="669" y="970" type="curve" smooth="yes"/>
      <point x="778" y="970"/>
      <point x="829" y="892"/>
      <point x="829" y="749" type="curve" smooth="yes"/>
      <point x="829" y="650"/>
      <point x="829" y="565"/>
      <point x="829" y="460" type="curve"/>
      <point x="862" y="460" type="line"/>
      <point x="866" y="517"/>
      <point x="866" y="559"/>
      <point x="866" y="609" type="curve" smooth="yes"/>
      <point x="866" y="749" type="line" smooth="yes"/>
      <point x="866" y="914"/>
      <point x="800" y="1003"/>
      <point x="669" y="1003" type="curve" smooth="yes"/>
      <point x="571" y="1003"/>
      <point x="510" y="947"/>
      <point x="488" y="841" type="curve"/>
      <point x="491" y="841" type="line"/>
      <point x="465" y="949"/>
      <point x="407" y="1003"/>
      <point x="299" y="1003" type="curve" smooth="yes"/>
      <point x="159" y="1003"/>
      <point x="89" y="911"/>
      <point x="89" y="736" type="curve"/>
      <point x="89" y="254" type="line"/>
      <point x="89" y="79"/>
      <point x="159" y="-13"/>
    </contour>
    <contour>
      <point x="848" y="460" type="line"/>
      <point x="848" y="493" type="line"/>
      <point x="489" y="493" type="line"/>
      <point x="489" y="460" type="line"/>
    </contour>
    <contour>
      <point x="299" y="20" type="curve" smooth="yes"/>
      <point x="181" y="20"/>
      <point x="126" y="101"/>
      <point x="126" y="254" type="curve" smooth="yes"/>
      <point x="126" y="736" type="line" smooth="yes"/>
      <point x="126" y="889"/>
      <point x="181" y="970"/>
      <point x="299" y="970" type="curve" smooth="yes"/>
      <point x="417" y="970"/>
      <point x="472" y="889"/>
      <point x="472" y="736" type="curve" smooth="yes"/>
      <point x="472" y="254" type="line" smooth="yes"/>
      <point x="472" y="101"/>
      <point x="417" y="20"/>
    </contour>
  </outline>
</glyph>
<glyph name="vowelU.dv" format="2">
  <advance width="524"/>
  <unicode hex="0909"/>
  <anchor x="437" y="9" name="bottom3"/>
  <anchor x="236" y="30" name="bottom5"/>
  <anchor x="279" y="1262" name="top"/>
  <outline>
    <contour>
      <point x="-24" y="1242" type="line"/>
      <point x="-29" y="1271" type="line"/>
      <point x="543" y="1271" type="line"/>
      <point x="548" y="1242" type="line"/>
    </contour>
    <contour>
      <point x="350" y="1249" type="line"/>
      <point x="388" y="1192"/>
      <point x="405" y="1113"/>
      <point x="405" y="992" type="curve" smooth="yes"/>
      <point x="405" y="962" type="line" smooth="yes"/>
      <point x="405" y="771"/>
      <point x="362" y="699"/>
      <point x="243" y="677" type="curve"/>
      <point x="243" y="675" type="line"/>
      <point x="364" y="657"/>
      <point x="412" y="576"/>
      <point x="412" y="397" type="curve" smooth="yes"/>
      <point x="412" y="283" type="line" smooth="yes"/>
      <point x="412" y="85"/>
      <point x="333" y="11"/>
      <point x="204" y="11" type="curve" smooth="yes"/>
      <point x="136" y="11"/>
      <point x="83" y="31"/>
      <point x="42" y="63" type="curve"/>
      <point x="39" y="103" type="line"/>
      <point x="88" y="66"/>
      <point x="140" y="44"/>
      <point x="204" y="44" type="curve" smooth="yes"/>
      <point x="309" y="44"/>
      <point x="377" y="105"/>
      <point x="377" y="283" type="curve" smooth="yes"/>
      <point x="377" y="399" type="line" smooth="yes"/>
      <point x="377" y="592"/>
      <point x="322" y="655"/>
      <point x="178" y="659" type="curve" smooth="yes"/>
      <point x="114" y="661" type="line"/>
      <point x="114" y="692" type="line"/>
      <point x="178" y="694" type="line" smooth="yes"/>
      <point x="328" y="697"/>
      <point x="370" y="776"/>
      <point x="370" y="962" type="curve" smooth="yes"/>
      <point x="370" y="990" type="line" smooth="yes"/>
      <point x="370" y="1110"/>
      <point x="357" y="1190"/>
      <point x="311" y="1249" type="curve"/>
    </contour>
  </outline>
  <guideline angle="90" x="692" y="0"/>
</glyph>
<glyph name="vowelShortE.dv" format="2">
  <advance width="678"/>
  <unicode hex="090E"/>
  <anchor x="569" y="9" name="bottom3"/>
  <anchor x="591" y="1262" name="top"/>
  <outline>
    <contour>
      <point x="187" y="1726" type="curve" smooth="yes"/>
      <point x="187" y="1608"/>
      <point x="218" y="1566"/>
      <point x="338" y="1559" type="curve" smooth="yes"/>
      <point x="370" y="1557" type="line" smooth="yes"/>
      <point x="502" y="1549"/>
      <point x="546" y="1485"/>
      <point x="546" y="1351" type="curve" smooth="yes"/>
      <point x="546" y="1262" type="line"/>
      <point x="513" y="1262" type="line"/>
      <point x="513" y="1351" type="line" smooth="yes"/>
      <point x="513" y="1466"/>
      <point x="478" y="1517"/>
      <point x="368" y="1524" type="curve" smooth="yes"/>
      <point x="336" y="1526" type="line" smooth="yes"/>
      <point x="200" y="1534"/>
      <point x="154" y="1592"/>
      <point x="154" y="1713" type="curve" smooth="yes"/>
      <point x="154" y="1726"/>
      <point x="155" y="1741"/>
      <point x="157" y="1754" type="curve"/>
      <point x="187" y="1754" type="line"/>
      <point x="187" y="1749.45"/>
      <point x="187" y="1730.84"/>
    </contour>
    <contour>
      <point x="-19" y="1242" type="line"/>
      <point x="-24" y="1271" type="line"/>
      <point x="696" y="1271" type="line"/>
      <point x="702" y="1242" type="line"/>
    </contour>
    <contour>
      <point x="177" y="461" type="line" smooth="yes"/>
      <point x="177" y="142"/>
      <point x="266" y="33"/>
      <point x="443" y="33" type="curve" smooth="yes"/>
      <point x="474" y="33"/>
      <point x="504" y="37"/>
      <point x="538" y="48" type="curve"/>
      <point x="533" y="13" type="line"/>
      <point x="506" y="4"/>
      <point x="474" y="0"/>
      <point x="443" y="0" type="curve" smooth="yes"/>
      <point x="247" y="0"/>
      <point x="142" y="116"/>
      <point x="142" y="456" type="curve" smooth="yes"/>
      <point x="142" y="1249" type="line"/>
      <point x="177" y="1249" type="line"/>
    </contour>
    <contour>
      <point x="547" y="721" type="line" smooth="yes"/>
      <point x="547" y="479"/>
      <point x="497" y="395"/>
      <point x="364" y="395" type="curve" smooth="yes"/>
      <point x="360" y="395"/>
      <point x="358" y="395"/>
      <point x="354" y="395" type="curve"/>
      <point x="354" y="427" type="line"/>
      <point x="354.55" y="427"/>
      <point x="360.347" y="427"/>
      <point x="361" y="427" type="curve"/>
      <point x="474" y="427"/>
      <point x="512" y="499"/>
      <point x="512" y="727" type="curve" smooth="yes"/>
      <point x="512" y="1255" type="line"/>
      <point x="547" y="1257" type="line"/>
    </contour>
  </outline>
  <guideline angle="90" x="155" y="0"/>
  <guideline angle="90" x="317" y="0"/>
  <guideline angle="90" x="689" y="0"/>
  <guideline angle="90" x="547" y="0"/>
</glyph>
<glyph name="vowelE.dv" format="2">
  <advance width="678"/>
  <unicode hex="090F"/>
  <anchor x="569" y="9" name="bottom3"/>
  <anchor x="351" y="1262" name="top"/>
  <outline>
    <contour>
      <point x="-19" y="1242" type="line"/>
      <point x="-24" y="1271" type="line"/>
      <point x="696" y="1271" type="line"/>
      <point x="702" y="1242" type="line"/>
    </contour>
    <contour>
      <point x="177" y="461" type="line" smooth="yes"/>
      <point x="177" y="142"/>
      <point x="266" y="33"/>
      <point x="443" y="33" type="curve" smooth="yes"/>
      <point x="474" y="33"/>
      <point x="504" y="37"/>
      <point x="538" y="48" type="curve"/>
      <point x="533" y="13" type="line"/>
      <point x="506" y="4"/>
      <point x="474" y="0"/>
      <point x="443" y="0" type="curve" smooth="yes"/>
      <point x="247" y="0"/>
      <point x="142" y="116"/>
      <point x="142" y="456" type="curve" smooth="yes"/>
      <point x="142" y="1249" type="line"/>
      <point x="177" y="1249" type="line"/>
    </contour>
    <contour>
      <point x="547" y="721" type="line" smooth="yes"/>
      <point x="547" y="479"/>
      <point x="497" y="395"/>
      <point x="364" y="395" type="curve" smooth="yes"/>
      <point x="360" y="395"/>
      <point x="358" y="395"/>
      <point x="354" y="395" type="curve"/>
      <point x="354" y="427" type="line"/>
      <point x="354.55" y="427"/>
      <point x="360.347" y="427"/>
      <point x="361" y="427" type="curve"/>
      <point x="474" y="427"/>
      <point x="512" y="499"/>
      <point x="512" y="727" type="curve" smooth="yes"/>
      <point x="512" y="1255" type="line"/>
      <point x="547" y="1257" type="line"/>
    </contour>
  </outline>
  <guideline angle="90" x="689" y="0"/>
</glyph>
<glyph name="vowelO.dv" format="2">
  <advance width="1198"/>
  <unicode hex="0913"/>
  <anchor x="980" y="1262" name="top"/>
  <outline>
    <contour>
      <point x="636" y="1746" type="line"/>
      <point x="674" y="1746" type="line"/>
      <point x="750.212" y="1647.42"/>
      <point x="967.14" y="1366.83"/>
      <point x="1042" y="1270" type="curve"/>
      <point x="1042" y="1262" type="line"/>
      <point x="1012" y="1262" type="line"/>
      <point x="1012" y="1266" type="line"/>
      <point x="941" y="1353"/>
      <point x="863" y="1448"/>
      <point x="808" y="1519" type="curve" smooth="yes"/>
      <point x="636" y="1741" type="line"/>
    </contour>
    <contour>
      <point x="1047" y="0" type="line"/>
      <point x="1012" y="0" type="line"/>
      <point x="1012" y="1251" type="line"/>
      <point x="1047" y="1251" type="line"/>
    </contour>
    <contour>
      <point x="1222" y="1242" type="line"/>
      <point x="843" y="1242" type="line"/>
      <point x="837" y="1271" type="line"/>
      <point x="1216" y="1271" type="line"/>
    </contour>
    <contour>
      <point x="885" y="1242" type="line"/>
      <point x="523" y="1242" type="line"/>
      <point x="517" y="1271" type="line"/>
      <point x="880" y="1271" type="line"/>
    </contour>
    <contour>
      <point x="675" y="0" type="line"/>
      <point x="675" y="1253" type="line"/>
      <point x="710" y="1253" type="line"/>
      <point x="710" y="0" type="line"/>
    </contour>
    <contour>
      <point x="29" y="137" type="line"/>
      <point x="79" y="95"/>
      <point x="134" y="73"/>
      <point x="196" y="73" type="curve" smooth="yes"/>
      <point x="323" y="73"/>
      <point x="377" y="150"/>
      <point x="377" y="312" type="curve" smooth="yes"/>
      <point x="377" y="418" type="line" smooth="yes"/>
      <point x="377" y="585"/>
      <point x="320" y="657"/>
      <point x="178" y="662" type="curve" smooth="yes"/>
      <point x="116" y="664" type="line"/>
      <point x="116" y="694" type="line"/>
      <point x="178" y="696" type="line" smooth="yes"/>
      <point x="318" y="699"/>
      <point x="375" y="771"/>
      <point x="375" y="935" type="curve" smooth="yes"/>
      <point x="375" y="1029" type="line" smooth="yes"/>
      <point x="375" y="1178"/>
      <point x="328" y="1248"/>
      <point x="219" y="1248" type="curve" smooth="yes"/>
      <point x="162" y="1248"/>
      <point x="118" y="1233"/>
      <point x="68" y="1192" type="curve"/>
      <point x="72" y="1235" type="line"/>
      <point x="110" y="1264"/>
      <point x="158" y="1281"/>
      <point x="219" y="1281" type="curve" smooth="yes"/>
      <point x="349" y="1281"/>
      <point x="410" y="1201"/>
      <point x="410" y="1030" type="curve" smooth="yes"/>
      <point x="410" y="935" type="line" smooth="yes"/>
      <point x="410" y="767"/>
      <point x="351" y="684"/>
      <point x="224" y="679" type="curve"/>
      <point x="224" y="673" type="line"/>
      <point x="346" y="664"/>
      <point x="412" y="594"/>
      <point x="412" y="418" type="curve" smooth="yes"/>
      <point x="412" y="309" type="line" smooth="yes"/>
      <point x="412" y="123"/>
      <point x="342" y="40"/>
      <point x="196" y="40" type="curve" smooth="yes"/>
      <point x="129" y="40"/>
      <point x="75" y="60"/>
      <point x="33" y="95" type="curve"/>
    </contour>
    <contour>
      <point x="213" y="683" type="line"/>
      <point x="261" y="686" type="line"/>
      <point x="261" y="684" type="line"/>
      <point x="335" y="686"/>
      <point x="410" y="688"/>
      <point x="493" y="688" type="curve" smooth="yes"/>
      <point x="692" y="688" type="line"/>
      <point x="692" y="657" type="line"/>
      <point x="493" y="657" type="line" smooth="yes"/>
      <point x="410" y="657"/>
      <point x="337" y="657"/>
      <point x="261" y="664" type="curve"/>
      <point x="261" y="661" type="line"/>
      <point x="213" y="668" type="line"/>
    </contour>
  </outline>
  <guideline angle="90" x="643" y="0"/>
  <guideline angle="90" x="1042" y="0"/>
  <guideline angle="90" x="1012" y="0"/>
  <guideline angle="90" x="1029" y="0"/>
  <guideline angle="0" x="0" y="1262"/>
</glyph>
<glyph name="Ka.dv" format="2">
  <advance width="924"/>
  <unicode hex="0915"/>
  <anchor x="468" y="9" name="bottom"/>
  <anchor x="463" y="9" name="bottom2"/>
  <anchor x="690" y="9" name="bottom3"/>
  <anchor x="468" y="30" name="bottom5"/>
  <anchor x="468" y="1262" name="top"/>
  <outline>
    <contour>
      <point x="-16" y="1242" type="line"/>
      <point x="-22" y="1271" type="line"/>
      <point x="940" y="1271" type="line"/>
      <point x="946" y="1242" type="line"/>
    </contour>
    <contour>
      <point x="107" y="451" type="curve" smooth="yes"/>
      <point x="107" y="758" type="line" smooth="yes"/>
      <point x="107" y="929"/>
      <point x="168" y="1014"/>
      <point x="295" y="1014" type="curve" smooth="yes"/>
      <point x="326" y="1014"/>
      <point x="352" y="1008"/>
      <point x="372" y="998" type="curve"/>
      <point x="376" y="962" type="line"/>
      <point x="350" y="975"/>
      <point x="328" y="981"/>
      <point x="295" y="981" type="curve" smooth="yes"/>
      <point x="193" y="981"/>
      <point x="142" y="909"/>
      <point x="142" y="754" type="curve" smooth="yes"/>
      <point x="142" y="454" type="line" smooth="yes"/>
      <point x="142" y="304"/>
      <point x="192" y="228"/>
      <point x="295" y="228" type="curve" smooth="yes"/>
      <point x="372" y="228"/>
      <point x="436" y="272"/>
      <point x="455" y="381" type="curve"/>
      <point x="459" y="319" type="line"/>
      <point x="456" y="319" type="line"/>
      <point x="441" y="246"/>
      <point x="383" y="195"/>
      <point x="295" y="195" type="curve" smooth="yes"/>
      <point x="169" y="195"/>
      <point x="107" y="280"/>
    </contour>
    <contour>
      <point x="817" y="765" type="curve" smooth="yes"/>
      <point x="817" y="443" type="line" smooth="yes"/>
      <point x="817" y="276"/>
      <point x="762" y="195"/>
      <point x="646" y="195" type="curve" smooth="yes"/>
      <point x="615" y="195"/>
      <point x="586" y="201"/>
      <point x="565" y="212" type="curve"/>
      <point x="560" y="248" type="line"/>
      <point x="586" y="235"/>
      <point x="611" y="228"/>
      <point x="644" y="228" type="curve" smooth="yes"/>
      <point x="742" y="228"/>
      <point x="782" y="298"/>
      <point x="782" y="447" type="curve" smooth="yes"/>
      <point x="782" y="762" type="line" smooth="yes"/>
      <point x="782" y="909"/>
      <point x="734" y="981"/>
      <point x="639" y="981" type="curve" smooth="yes"/>
      <point x="565" y="981"/>
      <point x="504" y="940"/>
      <point x="484" y="837" type="curve"/>
      <point x="478" y="891" type="line"/>
      <point x="481" y="891" type="line"/>
      <point x="496" y="964"/>
      <point x="555" y="1014"/>
      <point x="639" y="1014" type="curve" smooth="yes"/>
      <point x="755" y="1014"/>
      <point x="817" y="933"/>
    </contour>
    <contour>
      <point x="486" y="1251" type="line"/>
      <point x="486" y="0" type="line"/>
      <point x="451" y="0" type="line"/>
      <point x="451" y="1251" type="line"/>
    </contour>
  </outline>
  <guideline angle="90" x="463" y="0"/>
  <guideline angle="0" x="0" y="9"/>
  <guideline angle="90" x="468" y="0"/>
  <guideline angle="90" x="451" y="0"/>
  <guideline angle="0" x="0" y="1262"/>
  <guideline angle="90" x="486" y="0"/>
  <guideline angle="0" x="0" y="30"/>
</glyph>
<glyph name="Kha.dv" format="2">
  <advance width="936"/>
  <unicode hex="0916"/>
  <anchor x="767" y="9" name="bottom"/>
  <anchor x="762" y="9" name="bottom2"/>
  <anchor x="785" y="9" name="bottom3"/>
  <anchor x="767" y="30" name="bottom5"/>
  <anchor x="767" y="1262" name="top"/>
  <outline>
    <contour>
      <point x="785" y="1251" type="line"/>
      <point x="785" y="0" type="line"/>
      <point x="750" y="0" type="line"/>
      <point x="750" y="1251" type="line"/>
    </contour>
    <contour>
      <point x="650" y="1242" type="line"/>
      <point x="644" y="1271" type="line"/>
      <point x="954" y="1271" type="line"/>
      <point x="960" y="1242" type="line"/>
    </contour>
    <contour>
      <point x="-18" y="1242" type="line"/>
      <point x="-24" y="1271" type="line"/>
      <point x="954" y="1271" type="line"/>
      <point x="960" y="1242" type="line"/>
    </contour>
    <contour>
      <point x="300" y="1005" type="curve" smooth="yes"/>
      <point x="300" y="922" type="line" smooth="yes"/>
      <point x="300" y="703"/>
      <point x="228" y="617"/>
      <point x="63" y="617" type="curve" smooth="yes"/>
      <point x="57" y="617" type="line"/>
      <point x="35" y="648" type="line"/>
      <point x="63" y="648" type="line" smooth="yes"/>
      <point x="204" y="648"/>
      <point x="265" y="725"/>
      <point x="265" y="922" type="curve" smooth="yes"/>
      <point x="265" y="1003" type="line" smooth="yes"/>
      <point x="265" y="1124"/>
      <point x="254" y="1200"/>
      <point x="223" y="1249" type="curve"/>
      <point x="259" y="1249" type="line"/>
      <point x="289" y="1198"/>
      <point x="300" y="1126"/>
    </contour>
    <contour>
      <point x="728" y="126" type="line"/>
      <point x="685" y="99"/>
      <point x="617" y="80"/>
      <point x="537" y="80" type="curve" smooth="yes"/>
      <point x="330" y="80"/>
      <point x="215" y="198"/>
      <point x="132" y="514" type="curve" smooth="yes"/>
      <point x="106" y="613" type="line"/>
      <point x="35" y="617" type="line"/>
      <point x="35" y="648" type="line"/>
      <point x="135" y="638" type="line"/>
      <point x="167" y="522" type="line" smooth="yes"/>
      <point x="251" y="217"/>
      <point x="356" y="114"/>
      <point x="536" y="114" type="curve" smooth="yes"/>
      <point x="620" y="114"/>
      <point x="690" y="135"/>
      <point x="754" y="178" type="curve"/>
      <point x="754" y="171" type="line"/>
    </contour>
    <contour>
      <point x="614" y="383" type="curve" smooth="yes"/>
      <point x="502" y="383"/>
      <point x="448" y="464"/>
      <point x="448" y="648" type="curve" smooth="yes"/>
      <point x="448" y="765" type="line" smooth="yes"/>
      <point x="448" y="941"/>
      <point x="497" y="1023"/>
      <point x="614" y="1023" type="curve" smooth="yes"/>
      <point x="634" y="1023"/>
      <point x="649" y="1021"/>
      <point x="667" y="1016" type="curve"/>
      <point x="673" y="983" type="line"/>
      <point x="653" y="988"/>
      <point x="638" y="990"/>
      <point x="616" y="990" type="curve" smooth="yes"/>
      <point x="520" y="990"/>
      <point x="483" y="916"/>
      <point x="483" y="764" type="curve" smooth="yes"/>
      <point x="483" y="651" type="line" smooth="yes"/>
      <point x="483" y="491"/>
      <point x="524" y="416"/>
      <point x="614" y="416" type="curve" smooth="yes"/>
      <point x="682" y="416"/>
      <point x="732" y="447"/>
      <point x="752" y="528" type="curve"/>
      <point x="758" y="477" type="line"/>
      <point x="754" y="477" type="line"/>
      <point x="735" y="419"/>
      <point x="690" y="383"/>
    </contour>
  </outline>
  <guideline angle="90" x="300" y="0"/>
  <guideline angle="90" x="869" y="0"/>
  <guideline angle="90" x="300" y="0"/>
  <guideline angle="90" x="154" y="0"/>
  <guideline angle="90" x="762" y="0"/>
  <guideline angle="0" x="0" y="9"/>
  <guideline angle="90" x="767" y="0"/>
  <guideline angle="90" x="750" y="0"/>
  <guideline angle="0" x="0" y="1262"/>
  <guideline angle="90" x="785" y="0"/>
  <guideline angle="0" x="0" y="-125"/>
</glyph>
<glyph name="Tta.dv" format="2">
  <advance width="574"/>
  <unicode hex="091F"/>
  <anchor x="354" y="33" name="bottom"/>
  <anchor x="318" y="33" name="bottom2"/>
  <anchor x="543" y="33" name="bottom3"/>
  <anchor x="328" y="-122" name="bottom4"/>
  <anchor x="336" y="54" name="bottom5"/>
  <anchor x="447" y="1262" name="top"/>
  <outline>
    <contour>
      <point x="330" y="1242" type="line"/>
      <point x="324" y="1271" type="line"/>
      <point x="584" y="1271" type="line"/>
      <point x="590" y="1242" type="line"/>
    </contour>
    <contour>
      <point x="465" y="1252" type="line"/>
      <point x="465" y="1016" type="line"/>
      <point x="431" y="1016" type="line"/>
      <point x="431" y="1252" type="line"/>
    </contour>
    <contour>
      <point x="-10" y="1242" type="line"/>
      <point x="-16" y="1271" type="line"/>
      <point x="621" y="1271" type="line"/>
      <point x="626" y="1242" type="line"/>
    </contour>
    <contour>
      <point x="430" y="920" type="line"/>
      <point x="430" y="1253" type="line"/>
      <point x="465" y="1253" type="line"/>
      <point x="465" y="902" type="line"/>
    </contour>
    <contour>
      <point x="498" y="75" type="line"/>
      <point x="460" y="43"/>
      <point x="408" y="24"/>
      <point x="339" y="24" type="curve" smooth="yes"/>
      <point x="196" y="24"/>
      <point x="109" y="109"/>
      <point x="109" y="313" type="curve" smooth="yes"/>
      <point x="109" y="657" type="line" smooth="yes"/>
      <point x="109" y="861"/>
      <point x="185" y="949"/>
      <point x="341" y="949" type="curve" smooth="yes"/>
      <point x="391" y="949"/>
      <point x="422" y="944"/>
      <point x="465" y="933" type="curve"/>
      <point x="465" y="902" type="line"/>
      <point x="419" y="913"/>
      <point x="385" y="916"/>
      <point x="341" y="916" type="curve" smooth="yes"/>
      <point x="207" y="916"/>
      <point x="144" y="837"/>
      <point x="144" y="655" type="curve" smooth="yes"/>
      <point x="144" y="315" type="line" smooth="yes"/>
      <point x="144" y="131"/>
      <point x="216" y="57"/>
      <point x="339" y="57" type="curve" smooth="yes"/>
      <point x="402" y="57"/>
      <point x="453" y="76"/>
      <point x="501" y="118" type="curve"/>
    </contour>
  </outline>
  <guideline angle="0" x="0" y="33"/>
  <guideline angle="0" x="0" y="54"/>
  <guideline angle="90" x="447" y="0"/>
</glyph>
<glyph name="Ttha.dv" format="2">
  <advance width="664"/>
  <unicode hex="0920"/>
  <anchor x="360" y="29" name="bottom"/>
  <anchor x="307" y="29" name="bottom2"/>
  <anchor x="559" y="29" name="bottom3"/>
  <anchor x="331" y="-122" name="bottom4"/>
  <anchor x="349" y="50" name="bottom5"/>
  <anchor x="404" y="1262" name="top"/>
  <outline>
    <contour>
      <point x="287" y="1242" type="line"/>
      <point x="281" y="1271" type="line"/>
      <point x="541" y="1271" type="line"/>
      <point x="547" y="1242" type="line"/>
    </contour>
    <contour>
      <point x="422" y="1252" type="line"/>
      <point x="422" y="1016" type="line"/>
      <point x="388" y="1016" type="line"/>
      <point x="388" y="1252" type="line"/>
    </contour>
    <contour>
      <point x="-16" y="1271" type="line"/>
      <point x="683" y="1271" type="line"/>
      <point x="689" y="1242" type="line"/>
      <point x="-10" y="1242" type="line"/>
    </contour>
    <contour>
      <point x="387" y="1253" type="line"/>
      <point x="422" y="1253" type="line"/>
      <point x="422" y="914" type="line"/>
      <point x="387" y="918" type="line"/>
    </contour>
    <contour>
      <point x="417" y="942" type="line"/>
      <point x="511" y="898"/>
      <point x="557" y="839"/>
      <point x="557" y="646" type="curve" smooth="yes"/>
      <point x="557" y="302" type="line" smooth="yes"/>
      <point x="557" y="110"/>
      <point x="481" y="20"/>
      <point x="334" y="20" type="curve" smooth="yes"/>
      <point x="185" y="20"/>
      <point x="109" y="110"/>
      <point x="109" y="302" type="curve" smooth="yes"/>
      <point x="109" y="661" type="line" smooth="yes"/>
      <point x="109" y="863"/>
      <point x="189" y="949"/>
      <point x="345" y="949" type="curve" smooth="yes"/>
      <point x="371" y="949"/>
      <point x="398" y="948"/>
      <point x="422" y="940" type="curve"/>
      <point x="422" y="909" type="line"/>
      <point x="395" y="914"/>
      <point x="378" y="916"/>
      <point x="350" y="916" type="curve" smooth="yes"/>
      <point x="211" y="916"/>
      <point x="144" y="843"/>
      <point x="144" y="659" type="curve" smooth="yes"/>
      <point x="144" y="304" type="line" smooth="yes"/>
      <point x="144" y="132"/>
      <point x="207" y="53"/>
      <point x="334" y="53" type="curve" smooth="yes"/>
      <point x="459" y="53"/>
      <point x="522" y="132"/>
      <point x="522" y="304" type="curve" smooth="yes"/>
      <point x="522" y="644" type="line" smooth="yes"/>
      <point x="522" y="815"/>
      <point x="487" y="876"/>
      <point x="398" y="916" type="curve"/>
    </contour>
  </outline>
  <guideline angle="0" x="0" y="29"/>
  <guideline angle="0" x="0" y="50"/>
  <guideline angle="90" x="404" y="0"/>
</glyph>
<glyph name="Nna.dv" format="2">
  <advance width="965"/>
  <unicode hex="0923"/>
  <anchor x="796" y="9" name="bottom"/>
  <anchor x="791" y="9" name="bottom2"/>
  <anchor x="814" y="9" name="bottom3"/>
  <anchor x="796" y="30" name="bottom5"/>
  <anchor x="796" y="1262" name="top"/>
  <outline>
    <contour>
      <point x="814" y="1251" type="line"/>
      <point x="814" y="0" type="line"/>
      <point x="779" y="0" type="line"/>
      <point x="779" y="1251" type="line"/>
    </contour>
    <contour>
      <point x="679" y="1242" type="line"/>
      <point x="673" y="1271" type="line"/>
      <point x="983" y="1271" type="line"/>
      <point x="989" y="1242" type="line"/>
    </contour>
    <contour>
      <point x="-20" y="1242" type="line"/>
      <point x="-25" y="1271" type="line"/>
      <point x="983" y="1271" type="line"/>
      <point x="988" y="1242" type="line"/>
    </contour>
    <contour>
      <point x="326" y="296" type="curve" smooth="yes"/>
      <point x="197" y="296"/>
      <point x="131" y="379"/>
      <point x="131" y="545" type="curve" smooth="yes"/>
      <point x="131" y="1253" type="line"/>
      <point x="166" y="1253" type="line"/>
      <point x="166" y="548" type="line" smooth="yes"/>
      <point x="166" y="399"/>
      <point x="219" y="329"/>
      <point x="324" y="329" type="curve" smooth="yes"/>
      <point x="427" y="329"/>
      <point x="477" y="399"/>
      <point x="477" y="548" type="curve" smooth="yes"/>
      <point x="477" y="1253" type="line"/>
      <point x="512" y="1253" type="line"/>
      <point x="512" y="545" type="line" smooth="yes"/>
      <point x="512" y="379"/>
      <point x="453" y="296"/>
    </contour>
  </outline>
  <guideline angle="90" x="791" y="0"/>
  <guideline angle="0" x="0" y="9"/>
  <guideline angle="90" x="796" y="0"/>
  <guideline angle="90" x="779" y="0"/>
  <guideline angle="0" x="0" y="1262"/>
  <guideline angle="90" x="814" y="0"/>
  <guideline angle="0" x="0" y="-125"/>
</glyph>
<glyph name="Da.dv" format="2">
  <advance width="629"/>
  <unicode hex="0926"/>
  <anchor x="545" y="-129" name="bottom"/>
  <anchor x="330" y="-129" name="bottom2"/>
  <anchor x="558" y="-129" name="bottom3"/>
  <anchor x="205" y="1" name="bottom4"/>
  <anchor x="357" y="-108" name="bottom5"/>
  <anchor x="486" y="1262" name="top"/>
  <outline>
    <contour>
      <point x="369" y="1242" type="line"/>
      <point x="363" y="1271" type="line"/>
      <point x="623" y="1271" type="line"/>
      <point x="629" y="1242" type="line"/>
    </contour>
    <contour>
      <point x="504" y="1252" type="line"/>
      <point x="504" y="1016" type="line"/>
      <point x="470" y="1016" type="line"/>
      <point x="470" y="1252" type="line"/>
    </contour>
    <contour>
      <point x="-11" y="1242" type="line"/>
      <point x="-17" y="1271" type="line"/>
      <point x="660" y="1271" type="line"/>
      <point x="666" y="1242" type="line"/>
    </contour>
    <contour>
      <point x="469" y="964" type="line"/>
      <point x="469" y="1253" type="line"/>
      <point x="504" y="1253" type="line"/>
      <point x="504" y="946" type="line"/>
    </contour>
    <contour>
      <point x="508" y="585" type="line"/>
      <point x="508" y="219" type="line"/>
      <point x="552" y="-138" type="line"/>
      <point x="517" y="-138" type="line"/>
      <point x="477" y="206" type="line"/>
      <point x="473" y="208" type="line"/>
      <point x="473" y="585" type="line"/>
    </contour>
    <contour>
      <point x="322" y="142" type="curve" smooth="yes"/>
      <point x="399" y="142"/>
      <point x="445" y="173"/>
      <point x="480" y="243" type="curve"/>
      <point x="482" y="193" type="line"/>
      <point x="458" y="149"/>
      <point x="405" y="109"/>
      <point x="322" y="109" type="curve" smooth="yes"/>
      <point x="175" y="109"/>
      <point x="107" y="206"/>
      <point x="107" y="429" type="curve" smooth="yes"/>
      <point x="107" y="666" type="line" smooth="yes"/>
      <point x="107" y="894"/>
      <point x="182" y="995"/>
      <point x="368" y="995" type="curve" smooth="yes"/>
      <point x="425" y="995"/>
      <point x="456" y="990"/>
      <point x="504" y="979" type="curve"/>
      <point x="504" y="946" type="line"/>
      <point x="453" y="957"/>
      <point x="423" y="962"/>
      <point x="368" y="962" type="curve" smooth="yes"/>
      <point x="204" y="962"/>
      <point x="142" y="872"/>
      <point x="142" y="664" type="curve" smooth="yes"/>
      <point x="142" y="431" type="line" smooth="yes"/>
      <point x="142" y="230"/>
      <point x="195" y="142"/>
    </contour>
  </outline>
  <guideline angle="90" x="1215" y="0"/>
  <guideline angle="0" x="0" y="-129"/>
  <guideline angle="0" x="0" y="-108"/>
  <guideline angle="90" x="486" y="0"/>
</glyph>
<glyph name="Na.dv" format="2">
  <advance width="664"/>
  <unicode hex="0928"/>
  <anchor x="495" y="9" name="bottom"/>
  <anchor x="490" y="9" name="bottom2"/>
  <anchor x="513" y="9" name="bottom3"/>
  <anchor x="495" y="30" name="bottom5"/>
  <anchor x="495" y="1262" name="top"/>
  <outline>
    <contour>
      <point x="513" y="1251" type="line"/>
      <point x="513" y="0" type="line"/>
      <point x="478" y="0" type="line"/>
      <point x="478" y="1251" type="line"/>
    </contour>
    <contour>
      <point x="378" y="1242" type="line"/>
      <point x="372" y="1271" type="line"/>
      <point x="682" y="1271" type="line"/>
      <point x="688" y="1242" type="line"/>
    </contour>
    <contour>
      <point x="688" y="1242" type="line"/>
      <point x="-20" y="1242" type="line"/>
      <point x="-26" y="1271" type="line"/>
      <point x="682" y="1271" type="line"/>
    </contour>
    <contour>
      <point x="491" y="817" type="line"/>
      <point x="491" y="786" type="line"/>
      <point x="145" y="786" type="line"/>
      <point x="145" y="817" type="line"/>
    </contour>
    <contour>
      <point x="123" y="326" type="line"/>
      <point x="110" y="504"/>
      <point x="103" y="605"/>
      <point x="90" y="784" type="curve"/>
      <point x="130" y="817" type="line"/>
      <point x="158" y="817" type="line"/>
      <point x="158" y="326" type="line"/>
    </contour>
  </outline>
  <guideline angle="90" x="490" y="0"/>
  <guideline angle="0" x="0" y="9"/>
  <guideline angle="90" x="495" y="0"/>
  <guideline angle="90" x="478" y="0"/>
  <guideline angle="0" x="0" y="1262"/>
  <guideline angle="90" x="513" y="0"/>
  <guideline angle="0" x="0" y="-125"/>
</glyph>
<glyph name="NaNukta.dv" format="2">
  <advance width="664"/>
  <unicode hex="0929"/>
  <anchor x="495" y="9" name="bottom"/>
  <anchor x="490" y="9" name="bottom2"/>
  <anchor x="513" y="9" name="bottom3"/>
  <anchor x="495" y="30" name="bottom5"/>
  <anchor x="495" y="1262" name="top"/>
  <outline>
    <contour>
      <point x="513" y="1251" type="line"/>
      <point x="513" y="0" type="line"/>
      <point x="478" y="0" type="line"/>
      <point x="478" y="1251" type="line"/>
    </contour>
    <contour>
      <point x="378" y="1242" type="line"/>
      <point x="372" y="1271" type="line"/>
      <point x="682" y="1271" type="line"/>
      <point x="688" y="1242" type="line"/>
    </contour>
    <contour>
      <point x="688" y="1242" type="line"/>
      <point x="-20" y="1242" type="line"/>
      <point x="-26" y="1271" type="line"/>
      <point x="682" y="1271" type="line"/>
    </contour>
    <contour>
      <point x="491" y="817" type="line"/>
      <point x="491" y="786" type="line"/>
      <point x="145" y="786" type="line"/>
      <point x="145" y="817" type="line"/>
    </contour>
    <contour>
      <point x="123" y="326" type="line"/>
      <point x="110" y="504"/>
      <point x="103" y="605"/>
      <point x="90" y="784" type="curve"/>
      <point x="130" y="817" type="line"/>
      <point x="158" y="817" type="line"/>
      <point x="158" y="326" type="line"/>
    </contour>
    <contour>
      <point x="136" y="-29" type="curve" smooth="yes"/>
      <point x="114" y="-29"/>
      <point x="107" y="-9"/>
      <point x="107" y="37" type="curve"/>
      <point x="107" y="38.6572"/>
      <point x="107" y="50.5645"/>
      <point x="107" y="52" type="curve"/>
      <point x="107" y="98"/>
      <point x="114" y="118"/>
      <point x="136" y="118" type="curve" smooth="yes"/>
      <point x="158" y="118"/>
      <point x="165" y="98"/>
      <point x="165" y="52" type="curve"/>
      <point x="165" y="50.3428"/>
      <point x="165" y="38.4355"/>
      <point x="165" y="37" type="curve"/>
      <point x="165" y="-9"/>
      <point x="158" y="-29"/>
    </contour>
  </outline>
  <guideline angle="90" x="490" y="0"/>
  <guideline angle="0" x="0" y="9"/>
  <guideline angle="90" x="495" y="0"/>
  <guideline angle="90" x="478" y="0"/>
  <guideline angle="0" x="0" y="1262"/>
  <guideline angle="90" x="513" y="0"/>
  <guideline angle="0" x="0" y="-125"/>
</glyph>
<glyph name="Pha.dv" format="2">
  <advance width="967"/>
  <unicode hex="092B"/>
  <anchor x="506" y="9" name="bottom"/>
  <anchor x="501" y="9" name="bottom2"/>
  <anchor x="729" y="9" name="bottom3"/>
  <anchor x="506" y="30" name="bottom5"/>
  <anchor x="506" y="1262" name="top"/>
  <outline>
    <contour>
      <point x="-19" y="1242" type="line"/>
      <point x="-25" y="1271" type="line"/>
      <point x="984" y="1271" type="line"/>
      <point x="989" y="1242" type="line"/>
    </contour>
    <contour>
      <point x="319" y="333" type="curve" smooth="yes"/>
      <point x="194" y="333"/>
      <point x="132" y="409"/>
      <point x="132" y="583" type="curve" smooth="yes"/>
      <point x="132" y="1251" type="line"/>
      <point x="167" y="1251" type="line"/>
      <point x="167" y="587" type="line" smooth="yes"/>
      <point x="167" y="429"/>
      <point x="216" y="366"/>
      <point x="317" y="366" type="curve" smooth="yes"/>
      <point x="409" y="366"/>
      <point x="465" y="414"/>
      <point x="490" y="523" type="curve"/>
      <point x="494" y="460" type="line"/>
      <point x="490" y="460" type="line"/>
      <point x="472" y="387"/>
      <point x="419" y="333"/>
    </contour>
    <contour>
      <point x="680" y="931" type="curve" smooth="yes"/>
      <point x="605" y="931"/>
      <point x="542" y="885"/>
      <point x="520" y="782" type="curve"/>
      <point x="514" y="834" type="line"/>
      <point x="518" y="834" type="line"/>
      <point x="532" y="907"/>
      <point x="592" y="964"/>
      <point x="682" y="964" type="curve" smooth="yes"/>
      <point x="807" y="964"/>
      <point x="860" y="876"/>
      <point x="860" y="692" type="curve" smooth="yes"/>
      <point x="860" y="405" type="line" smooth="yes"/>
      <point x="860" y="232"/>
      <point x="814" y="158"/>
      <point x="706" y="158" type="curve" smooth="yes"/>
      <point x="680" y="158"/>
      <point x="656" y="162"/>
      <point x="636" y="171" type="curve"/>
      <point x="632" y="206" type="line"/>
      <point x="652" y="197"/>
      <point x="674" y="191"/>
      <point x="704" y="191" type="curve" smooth="yes"/>
      <point x="794" y="191"/>
      <point x="825" y="258"/>
      <point x="825" y="410" type="curve" smooth="yes"/>
      <point x="825" y="688" type="line" smooth="yes"/>
      <point x="825" y="854"/>
      <point x="783" y="931"/>
    </contour>
    <contour>
      <point x="524" y="1251" type="line"/>
      <point x="524" y="0" type="line"/>
      <point x="489" y="0" type="line"/>
      <point x="489" y="1251" type="line"/>
    </contour>
  </outline>
  <guideline angle="90" x="389" y="0"/>
  <guideline angle="0" x="0" y="9"/>
  <guideline angle="90" x="501" y="0"/>
  <guideline angle="0" x="0" y="9"/>
  <guideline angle="90" x="506" y="0"/>
  <guideline angle="90" x="489" y="0"/>
  <guideline angle="0" x="0" y="1262"/>
  <guideline angle="90" x="524" y="0"/>
  <guideline angle="0" x="0" y="30"/>
  <guideline angle="0" x="0" y="333"/>
</glyph>
<glyph name="Ba.dv" format="2">
  <advance width="699"/>
  <unicode hex="092C"/>
  <anchor x="530" y="9" name="bottom"/>
  <anchor x="525" y="9" name="bottom2"/>
  <anchor x="548" y="9" name="bottom3"/>
  <anchor x="530" y="30" name="bottom5"/>
  <anchor x="530" y="1262" name="top"/>
  <outline>
    <contour>
      <point x="548" y="1251" type="line"/>
      <point x="548" y="0" type="line"/>
      <point x="513" y="0" type="line"/>
      <point x="513" y="1251" type="line"/>
    </contour>
    <contour>
      <point x="413" y="1242" type="line"/>
      <point x="407" y="1271" type="line"/>
      <point x="717" y="1271" type="line"/>
      <point x="723" y="1242" type="line"/>
    </contour>
    <contour>
      <point x="-20" y="1242" type="line"/>
      <point x="-26" y="1271" type="line"/>
      <point x="617" y="1271" type="line"/>
      <point x="623" y="1242" type="line"/>
    </contour>
    <contour>
      <point x="170" y="938" type="line"/>
      <point x="199" y="951" type="line"/>
      <point x="504" y="307" type="line"/>
      <point x="479" y="285" type="line"/>
    </contour>
    <contour>
      <point x="109" y="469" type="curve" smooth="yes"/>
      <point x="109" y="734" type="line" smooth="yes"/>
      <point x="109" y="926"/>
      <point x="182" y="1019"/>
      <point x="326" y="1019" type="curve" smooth="yes"/>
      <point x="374" y="1019"/>
      <point x="403" y="1012"/>
      <point x="429" y="1001" type="curve"/>
      <point x="434" y="966" type="line"/>
      <point x="401" y="979"/>
      <point x="374" y="986"/>
      <point x="328" y="986" type="curve" smooth="yes"/>
      <point x="204" y="986"/>
      <point x="144" y="902"/>
      <point x="144" y="730" type="curve" smooth="yes"/>
      <point x="144" y="473" type="line" smooth="yes"/>
      <point x="144" y="304"/>
      <point x="201" y="219"/>
      <point x="324" y="219" type="curve" smooth="yes"/>
      <point x="418" y="219"/>
      <point x="491" y="269"/>
      <point x="515" y="392" type="curve"/>
      <point x="519" y="329" type="line"/>
      <point x="515" y="329" type="line"/>
      <point x="497" y="245"/>
      <point x="431" y="186"/>
      <point x="324" y="186" type="curve" smooth="yes"/>
      <point x="179" y="186"/>
      <point x="109" y="280"/>
    </contour>
  </outline>
  <guideline angle="90" x="525" y="0"/>
  <guideline angle="0" x="0" y="9"/>
  <guideline angle="90" x="530" y="0"/>
  <guideline angle="90" x="513" y="0"/>
  <guideline angle="0" x="0" y="1262"/>
  <guideline angle="90" x="548" y="0"/>
  <guideline angle="0" x="0" y="-125"/>
</glyph>
<glyph name="Ma.dv" format="2">
  <advance width="720"/>
  <unicode hex="092E"/>
  <anchor x="551" y="9" name="bottom"/>
  <anchor x="546" y="9" name="bottom2"/>
  <anchor x="569" y="9" name="bottom3"/>
  <anchor x="551" y="30" name="bottom5"/>
  <anchor x="551" y="1262" name="top"/>
  <outline>
    <contour>
      <point x="569" y="1251" type="line"/>
      <point x="569" y="0" type="line"/>
      <point x="534" y="0" type="line"/>
      <point x="534" y="1251" type="line"/>
    </contour>
    <contour>
      <point x="434" y="1242" type="line"/>
      <point x="428" y="1271" type="line"/>
      <point x="738" y="1271" type="line"/>
      <point x="744" y="1242" type="line"/>
    </contour>
    <contour>
      <point x="743" y="1242" type="line"/>
      <point x="-20" y="1242" type="line"/>
      <point x="-26" y="1271" type="line"/>
      <point x="737" y="1271" type="line"/>
    </contour>
    <contour>
      <point x="552" y="620" type="line"/>
      <point x="552" y="589" type="line"/>
      <point x="175" y="589" type="line"/>
      <point x="175" y="620" type="line"/>
    </contour>
    <contour>
      <point x="191" y="1253" type="line"/>
      <point x="191" y="506" type="line"/>
      <point x="156" y="506" type="line"/>
      <point x="156" y="1253" type="line"/>
    </contour>
    <contour>
      <point x="158" y="164" type="line"/>
      <point x="144" y="329"/>
      <point x="136" y="421"/>
      <point x="121" y="587" type="curve"/>
      <point x="156" y="618" type="line"/>
      <point x="191" y="618" type="line"/>
      <point x="191" y="164" type="line"/>
    </contour>
  </outline>
  <guideline angle="90" color="0,1,1,1" name="Ma counter space" x="191" y="0"/>
  <guideline angle="90" x="546" y="0"/>
  <guideline angle="0" x="0" y="9"/>
  <guideline angle="90" x="551" y="0"/>
  <guideline angle="90" x="534" y="0"/>
  <guideline angle="0" x="0" y="1262"/>
  <guideline angle="90" x="569" y="0"/>
  <guideline angle="0" x="0" y="-125"/>
</glyph>
<glyph name="RaNukta.dv" format="2">
  <advance width="420"/>
  <unicode hex="0931"/>
  <anchor x="210" y="9" name="bottom2"/>
  <anchor x="474" y="9" name="bottom3"/>
  <anchor x="246" y="30" name="bottom5"/>
  <anchor x="255" y="1262" name="top"/>
  <outline>
    <contour>
      <point x="456" y="1242" type="line"/>
      <point x="-19" y="1242" type="line"/>
      <point x="-24" y="1271" type="line"/>
      <point x="450" y="1271" type="line"/>
    </contour>
    <contour>
      <point x="315" y="0" type="line"/>
      <point x="280" y="0" type="line"/>
      <point x="102" y="585" type="line"/>
      <point x="35" y="589" type="line"/>
      <point x="35" y="620" type="line"/>
      <point x="130" y="613" type="line"/>
      <point x="130" y="604" type="line"/>
      <point x="158" y="517"/>
      <point x="179" y="446"/>
      <point x="203" y="368" type="curve" smooth="yes"/>
      <point x="315" y="2" type="line"/>
    </contour>
    <contour>
      <point x="278" y="1249" type="line"/>
      <point x="308" y="1198"/>
      <point x="319" y="1130"/>
      <point x="319" y="999" type="curve" smooth="yes"/>
      <point x="319" y="896" type="line" smooth="yes"/>
      <point x="319" y="675"/>
      <point x="238" y="589"/>
      <point x="78" y="589" type="curve" smooth="yes"/>
      <point x="59" y="589" type="line"/>
      <point x="35" y="620" type="line"/>
      <point x="78" y="620" type="line" smooth="yes"/>
      <point x="210" y="620"/>
      <point x="284" y="696"/>
      <point x="284" y="898" type="curve" smooth="yes"/>
      <point x="284" y="997" type="line" smooth="yes"/>
      <point x="284" y="1128"/>
      <point x="273" y="1200"/>
      <point x="241" y="1249" type="curve"/>
    </contour>
    <contour>
      <point x="90" y="-147" type="curve" smooth="yes"/>
      <point x="68" y="-147"/>
      <point x="61" y="-127"/>
      <point x="61" y="-81" type="curve"/>
      <point x="61" y="-79.3428"/>
      <point x="61" y="-67.4355"/>
      <point x="61" y="-66" type="curve"/>
      <point x="61" y="-20"/>
      <point x="68" y="0"/>
      <point x="90" y="0" type="curve" smooth="yes"/>
      <point x="112" y="0"/>
      <point x="119" y="-20"/>
      <point x="119" y="-66" type="curve"/>
      <point x="119" y="-67.6572"/>
      <point x="119" y="-79.5645"/>
      <point x="119" y="-81" type="curve"/>
      <point x="119" y="-127"/>
      <point x="112" y="-147"/>
    </contour>
  </outline>
  <guideline angle="90" x="261" y="0"/>
  <guideline angle="90" x="205" y="0"/>
  <guideline angle="0" x="0" y="1262"/>
  <guideline angle="0" x="0" y="30"/>
</glyph>
<glyph name="Lla.dv" format="2">
  <advance width="883"/>
  <unicode hex="0933"/>
  <anchor x="626" y="42" name="bottom"/>
  <anchor x="567" y="42" name="bottom2"/>
  <anchor x="666" y="42" name="bottom3"/>
  <anchor x="461" y="63" name="bottom5"/>
  <anchor x="612" y="1262" name="top"/>
  <outline>
    <contour>
      <point x="495" y="1242" type="line"/>
      <point x="489" y="1271" type="line"/>
      <point x="749" y="1271" type="line"/>
      <point x="755" y="1242" type="line"/>
    </contour>
    <contour>
      <point x="630" y="1252" type="line"/>
      <point x="630" y="1016" type="line"/>
      <point x="596" y="1016" type="line"/>
      <point x="596" y="1252" type="line"/>
    </contour>
    <contour>
      <point x="909" y="1242" type="line"/>
      <point x="-20" y="1242" type="line"/>
      <point x="-26" y="1271" type="line"/>
      <point x="903" y="1271" type="line"/>
    </contour>
    <contour>
      <point x="630" y="940" type="line"/>
      <point x="595" y="940" type="line"/>
      <point x="595" y="1257" type="line"/>
      <point x="630" y="1257" type="line"/>
    </contour>
    <contour>
      <point x="776" y="291" type="line" smooth="yes"/>
      <point x="776" y="97"/>
      <point x="711" y="33"/>
      <point x="594" y="33" type="curve" smooth="yes"/>
      <point x="489" y="33"/>
      <point x="447" y="101"/>
      <point x="431" y="173" type="curve"/>
      <point x="427" y="173" type="line"/>
      <point x="429" y="236" type="line"/>
      <point x="442" y="236" type="line"/>
      <point x="449" y="134"/>
      <point x="504" y="66"/>
      <point x="595" y="66" type="curve" smooth="yes"/>
      <point x="692" y="66"/>
      <point x="741" y="123"/>
      <point x="741" y="298" type="curve" smooth="yes"/>
      <point x="741" y="696" type="line" smooth="yes"/>
      <point x="741" y="870"/>
      <point x="697" y="922"/>
      <point x="607" y="922" type="curve" smooth="yes"/>
      <point x="513" y="922"/>
      <point x="471" y="870"/>
      <point x="466" y="749" type="curve" smooth="yes"/>
      <point x="442" y="201" type="line"/>
      <point x="434" y="186" type="line"/>
      <point x="427" y="90"/>
      <point x="379" y="33"/>
      <point x="283" y="33" type="curve" smooth="yes"/>
      <point x="166" y="33"/>
      <point x="109" y="93"/>
      <point x="109" y="293" type="curve" smooth="yes"/>
      <point x="109" y="705" type="line" smooth="yes"/>
      <point x="109" y="887"/>
      <point x="180" y="955"/>
      <point x="294" y="955" type="curve" smooth="yes"/>
      <point x="387" y="955"/>
      <point x="434" y="895"/>
      <point x="445" y="821" type="curve"/>
      <point x="451" y="821" type="line"/>
      <point x="447" y="751" type="line"/>
      <point x="434" y="751" type="line"/>
      <point x="430.934" y="852"/>
      <point x="385.971" y="922"/>
      <point x="294" y="922" type="curve" smooth="yes"/>
      <point x="196" y="922"/>
      <point x="144" y="865"/>
      <point x="144" y="699" type="curve" smooth="yes"/>
      <point x="144" y="294" type="line" smooth="yes"/>
      <point x="144" y="124"/>
      <point x="180" y="66"/>
      <point x="283" y="66" type="curve" smooth="yes"/>
      <point x="370" y="66"/>
      <point x="405" y="114"/>
      <point x="410" y="228" type="curve" smooth="yes"/>
      <point x="434" y="808" type="line"/>
      <point x="445" y="811" type="line"/>
      <point x="456" y="896"/>
      <point x="508" y="955"/>
      <point x="607" y="955" type="curve" smooth="yes"/>
      <point x="714" y="955"/>
      <point x="776" y="890"/>
      <point x="776" y="699" type="curve" smooth="yes"/>
    </contour>
  </outline>
  <guideline angle="0" x="0" y="519"/>
  <guideline angle="0" x="0" y="42"/>
  <guideline angle="90" x="567" y="0"/>
  <guideline angle="90" x="631" y="0"/>
  <guideline angle="0" x="0" y="63"/>
  <guideline angle="90" x="612" y="0"/>
</glyph>
<glyph name="LlaNukta.dv" format="2">
  <advance width="883"/>
  <unicode hex="0934"/>
  <anchor x="626" y="42" name="bottom"/>
  <anchor x="567" y="42" name="bottom2"/>
  <anchor x="666" y="42" name="bottom3"/>
  <anchor x="461" y="63" name="bottom5"/>
  <anchor x="612" y="1262" name="top"/>
  <outline>
    <contour>
      <point x="495" y="1242" type="line"/>
      <point x="489" y="1271" type="line"/>
      <point x="749" y="1271" type="line"/>
      <point x="755" y="1242" type="line"/>
    </contour>
    <contour>
      <point x="630" y="1252" type="line"/>
      <point x="630" y="1016" type="line"/>
      <point x="596" y="1016" type="line"/>
      <point x="596" y="1252" type="line"/>
    </contour>
    <contour>
      <point x="909" y="1242" type="line"/>
      <point x="-20" y="1242" type="line"/>
      <point x="-26" y="1271" type="line"/>
      <point x="903" y="1271" type="line"/>
    </contour>
    <contour>
      <point x="630" y="940" type="line"/>
      <point x="595" y="940" type="line"/>
      <point x="595" y="1257" type="line"/>
      <point x="630" y="1257" type="line"/>
    </contour>
    <contour>
      <point x="776" y="291" type="line" smooth="yes"/>
      <point x="776" y="97"/>
      <point x="711" y="33"/>
      <point x="594" y="33" type="curve" smooth="yes"/>
      <point x="489" y="33"/>
      <point x="447" y="101"/>
      <point x="431" y="173" type="curve"/>
      <point x="427" y="173" type="line"/>
      <point x="429" y="236" type="line"/>
      <point x="442" y="236" type="line"/>
      <point x="449" y="134"/>
      <point x="504" y="66"/>
      <point x="595" y="66" type="curve" smooth="yes"/>
      <point x="692" y="66"/>
      <point x="741" y="123"/>
      <point x="741" y="298" type="curve" smooth="yes"/>
      <point x="741" y="696" type="line" smooth="yes"/>
      <point x="741" y="870"/>
      <point x="697" y="922"/>
      <point x="607" y="922" type="curve" smooth="yes"/>
      <point x="513" y="922"/>
      <point x="471" y="870"/>
      <point x="466" y="749" type="curve" smooth="yes"/>
      <point x="442" y="201" type="line"/>
      <point x="434" y="186" type="line"/>
      <point x="427" y="90"/>
      <point x="379" y="33"/>
      <point x="283" y="33" type="curve" smooth="yes"/>
      <point x="166" y="33"/>
      <point x="109" y="93"/>
      <point x="109" y="293" type="curve" smooth="yes"/>
      <point x="109" y="705" type="line" smooth="yes"/>
      <point x="109" y="887"/>
      <point x="180" y="955"/>
      <point x="294" y="955" type="curve" smooth="yes"/>
      <point x="387" y="955"/>
      <point x="434" y="895"/>
      <point x="445" y="821" type="curve"/>
      <point x="451" y="821" type="line"/>
      <point x="447" y="751" type="line"/>
      <point x="434" y="751" type="line"/>
      <point x="430.934" y="852"/>
      <point x="385.971" y="922"/>
      <point x="294" y="922" type="curve" smooth="yes"/>
      <point x="196" y="922"/>
      <point x="144" y="865"/>
      <point x="144" y="699" type="curve" smooth="yes"/>
      <point x="144" y="294" type="line" smooth="yes"/>
      <point x="144" y="124"/>
      <point x="180" y="66"/>
      <point x="283" y="66" type="curve" smooth="yes"/>
      <point x="370" y="66"/>
      <point x="405" y="114"/>
      <point x="410" y="228" type="curve" smooth="yes"/>
      <point x="434" y="808" type="line"/>
      <point x="445" y="811" type="line"/>
      <point x="456" y="896"/>
      <point x="508" y="955"/>
      <point x="607" y="955" type="curve" smooth="yes"/>
      <point x="714" y="955"/>
      <point x="776" y="890"/>
      <point x="776" y="699" type="curve" smooth="yes"/>
    </contour>
    <contour>
      <point x="432" y="-257" type="curve" smooth="yes"/>
      <point x="410" y="-257"/>
      <point x="403" y="-237"/>
      <point x="403" y="-191" type="curve"/>
      <point x="403" y="-189.343"/>
      <point x="403" y="-177.435"/>
      <point x="403" y="-176" type="curve"/>
      <point x="403" y="-130"/>
      <point x="410" y="-110"/>
      <point x="432" y="-110" type="curve" smooth="yes"/>
      <point x="454" y="-110"/>
      <point x="461" y="-130"/>
      <point x="461" y="-176" type="curve"/>
      <point x="461" y="-177.657"/>
      <point x="461" y="-189.565"/>
      <point x="461" y="-191" type="curve"/>
      <point x="461" y="-237"/>
      <point x="454" y="-257"/>
    </contour>
  </outline>
  <guideline angle="90" x="487" y="0"/>
  <guideline angle="0" x="0" y="519"/>
  <guideline angle="0" x="0" y="42"/>
  <guideline angle="90" x="567" y="0"/>
  <guideline angle="90" x="631" y="0"/>
  <guideline angle="0" x="0" y="63"/>
  <guideline angle="90" x="612" y="0"/>
</glyph>
<glyph name="Ssa.dv" format="2">
  <advance width="713"/>
  <unicode hex="0937"/>
  <anchor x="544" y="9" name="bottom"/>
  <anchor x="539" y="9" name="bottom2"/>
  <anchor x="562" y="9" name="bottom3"/>
  <anchor x="544" y="30" name="bottom5"/>
  <anchor x="544" y="1262" name="top"/>
  <outline>
    <contour>
      <point x="562" y="1251" type="line"/>
      <point x="562" y="0" type="line"/>
      <point x="527" y="0" type="line"/>
      <point x="527" y="1251" type="line"/>
    </contour>
    <contour>
      <point x="427" y="1242" type="line"/>
      <point x="421" y="1271" type="line"/>
      <point x="731" y="1271" type="line"/>
      <point x="737" y="1242" type="line"/>
    </contour>
    <contour>
      <point x="-19" y="1242" type="line"/>
      <point x="-25" y="1271" type="line"/>
      <point x="731" y="1271" type="line"/>
      <point x="737" y="1242" type="line"/>
    </contour>
    <contour>
      <point x="336" y="320" type="curve" smooth="yes"/>
      <point x="203" y="320"/>
      <point x="131" y="401"/>
      <point x="131" y="585" type="curve" smooth="yes"/>
      <point x="131" y="1251" type="line"/>
      <point x="166" y="1251" type="line"/>
      <point x="166" y="589" type="line" smooth="yes"/>
      <point x="166" y="423"/>
      <point x="225" y="353"/>
      <point x="336" y="353" type="curve" smooth="yes"/>
      <point x="441" y="353"/>
      <point x="503" y="397"/>
      <point x="529" y="510" type="curve"/>
      <point x="534" y="453" type="line"/>
      <point x="530" y="453" type="line"/>
      <point x="513" y="375"/>
      <point x="450" y="320"/>
    </contour>
    <contour>
      <point x="148" y="1236" type="curve"/>
      <point x="163" y="1249" type="line"/>
      <point x="485" y="620" type="line" smooth="yes"/>
      <point x="506" y="579"/>
      <point x="524" y="539"/>
      <point x="544" y="486" type="curve"/>
      <point x="527" y="467" type="line"/>
      <point x="207" y="1094" type="line" smooth="yes"/>
      <point x="178" y="1150"/>
      <point x="166" y="1177"/>
    </contour>
  </outline>
  <guideline angle="90" x="539" y="0"/>
  <guideline angle="0" x="0" y="9"/>
  <guideline angle="90" x="544" y="0"/>
  <guideline angle="90" x="527" y="0"/>
  <guideline angle="0" x="0" y="1262"/>
  <guideline angle="90" x="562" y="0"/>
  <guideline angle="0" x="0" y="-125"/>
</glyph>
<glyph name="Avagraha.dv" format="2">
  <advance width="572"/>
  <unicode hex="093D"/>
  <outline>
    <contour>
      <point x="72" y="119" type="line"/>
      <point x="131" y="62"/>
      <point x="191" y="34"/>
      <point x="265" y="34" type="curve" smooth="yes"/>
      <point x="391" y="34"/>
      <point x="451" y="107"/>
      <point x="451" y="298" type="curve" smooth="yes"/>
      <point x="451" y="330" type="line" smooth="yes"/>
      <point x="451" y="516"/>
      <point x="416.202" y="590.282"/>
      <point x="282" y="686" type="curve" smooth="yes"/>
      <point x="144.201" y="784.283"/>
      <point x="94" y="860"/>
      <point x="94" y="1004" type="curve" smooth="yes"/>
      <point x="94" y="1016" type="line" smooth="yes"/>
      <point x="94" y="1198"/>
      <point x="176" y="1271"/>
      <point x="329" y="1271" type="curve" smooth="yes"/>
      <point x="464" y="1271" type="line"/>
      <point x="469" y="1240" type="line"/>
      <point x="337" y="1240" type="line" smooth="yes"/>
      <point x="205" y="1240"/>
      <point x="129" y="1184"/>
      <point x="129" y="1018" type="curve" smooth="yes"/>
      <point x="129" y="1005" type="line" smooth="yes"/>
      <point x="129" y="870"/>
      <point x="172.894" y="804.85"/>
      <point x="298" y="717" type="curve" smooth="yes"/>
      <point x="444.895" y="613.85"/>
      <point x="486" y="533"/>
      <point x="486" y="336" type="curve" smooth="yes"/>
      <point x="486" y="296" type="line" smooth="yes"/>
      <point x="486" y="88"/>
      <point x="416" y="0"/>
      <point x="265" y="0" type="curve" smooth="yes"/>
      <point x="187" y="0"/>
      <point x="120" y="29"/>
      <point x="75" y="72" type="curve"/>
    </contour>
  </outline>
  <guideline angle="0" x="0" y="709"/>
</glyph>
<glyph name="matraU.dv" format="2">
  <unicode hex="0941"/>
  <anchor x="-188" y="9" name="_bottom"/>
  <outline>
    <contour>
      <point x="-425" y="-131" type="line"/>
      <point x="-393" y="-341"/>
      <point x="-340" y="-453"/>
      <point x="-226" y="-453" type="curve" smooth="yes"/>
      <point x="-134" y="-453"/>
      <point x="-92" y="-394"/>
      <point x="-92" y="-256" type="curve" smooth="yes"/>
      <point x="-92" y="-212" type="line" smooth="yes"/>
      <point x="-92" y="-79"/>
      <point x="-129" y="-24"/>
      <point x="-207" y="-24" type="curve" smooth="yes"/>
      <point x="-254" y="-24"/>
      <point x="-291" y="-41"/>
      <point x="-333" y="-74" type="curve"/>
      <point x="-329" y="-31" type="line"/>
      <point x="-300" y="-9"/>
      <point x="-259" y="9"/>
      <point x="-208" y="9" type="curve" smooth="yes"/>
      <point x="-105" y="9"/>
      <point x="-57" y="-67"/>
      <point x="-57" y="-212" type="curve" smooth="yes"/>
      <point x="-57" y="-258" type="line" smooth="yes"/>
      <point x="-57" y="-416"/>
      <point x="-109" y="-486"/>
      <point x="-226" y="-486" type="curve" smooth="yes"/>
      <point x="-365" y="-486"/>
      <point x="-423" y="-365"/>
      <point x="-460" y="-131" type="curve"/>
    </contour>
  </outline>
  <guideline angle="0" x="0" y="9"/>
  <guideline angle="90" x="-186" y="0"/>
  <guideline angle="90" x="-28" y="0"/>
</glyph>
<glyph name="matraRu.dv" format="2">
  <unicode hex="0943"/>
  <anchor x="-169" y="9" name="_bottom"/>
  <outline>
    <contour>
      <point x="-201" y="-488" type="curve" smooth="yes"/>
      <point x="-316" y="-488"/>
      <point x="-376" y="-415"/>
      <point x="-376" y="-255" type="curve" smooth="yes"/>
      <point x="-376" y="-222" type="line" smooth="yes"/>
      <point x="-376" y="-51"/>
      <point x="-314" y="15"/>
      <point x="-180" y="15" type="curve" smooth="yes"/>
      <point x="-151" y="15" type="line"/>
      <point x="-151" y="-17" type="line"/>
      <point x="-175" y="-17" type="line" smooth="yes"/>
      <point x="-291" y="-17"/>
      <point x="-341" y="-71"/>
      <point x="-341" y="-224" type="curve" smooth="yes"/>
      <point x="-341" y="-253" type="line" smooth="yes"/>
      <point x="-341" y="-394"/>
      <point x="-295" y="-455"/>
      <point x="-201" y="-455" type="curve" smooth="yes"/>
      <point x="-151" y="-455"/>
      <point x="-113" y="-441"/>
      <point x="-72" y="-406" type="curve"/>
      <point x="-76" y="-448" type="line"/>
      <point x="-107" y="-474"/>
      <point x="-148" y="-488"/>
    </contour>
  </outline>
  <guideline angle="0" x="0" y="5936"/>
  <guideline angle="90" x="-186" y="0"/>
  <guideline angle="0" x="0" y="9"/>
  <guideline angle="90" x="-151" y="0"/>
  <guideline angle="0" x="0" y="15"/>
  <guideline angle="90" x="-396" y="0"/>
</glyph>
<glyph name="matraShortE.dv" format="2">
  <unicode hex="0946"/>
  <anchor x="-169" y="1262" name="_top"/>
  <outline>
    <contour>
      <point x="-511" y="1726" type="curve" smooth="yes"/>
      <point x="-511" y="1608"/>
      <point x="-480" y="1566"/>
      <point x="-360" y="1559" type="curve" smooth="yes"/>
      <point x="-328" y="1557" type="line" smooth="yes"/>
      <point x="-196" y="1549"/>
      <point x="-152" y="1485"/>
      <point x="-152" y="1351" type="curve" smooth="yes"/>
      <point x="-152" y="1262" type="line"/>
      <point x="-185" y="1262" type="line"/>
      <point x="-185" y="1351" type="line" smooth="yes"/>
      <point x="-185" y="1466"/>
      <point x="-220" y="1517"/>
      <point x="-330" y="1524" type="curve" smooth="yes"/>
      <point x="-362" y="1526" type="line" smooth="yes"/>
      <point x="-498" y="1534"/>
      <point x="-544" y="1592"/>
      <point x="-544" y="1713" type="curve" smooth="yes"/>
      <point x="-544" y="1726"/>
      <point x="-543" y="1741"/>
      <point x="-541" y="1754" type="curve"/>
      <point x="-511" y="1754" type="line"/>
      <point x="-511" y="1749.45"/>
      <point x="-511" y="1730.84"/>
    </contour>
  </outline>
  <guideline angle="90" x="-169" y="0"/>
  <guideline angle="90" x="-43" y="0"/>
  <guideline angle="0" x="0" y="1262"/>
</glyph>
<glyph name="matraE.dv" format="2">
  <unicode hex="0947"/>
  <anchor x="-169" y="1262" name="_top"/>
  <outline>
    <contour>
      <point x="-562" y="1746" type="line"/>
      <point x="-524" y="1746" type="line"/>
      <point x="-447.788" y="1647.42"/>
      <point x="-230.86" y="1366.83"/>
      <point x="-156" y="1270" type="curve"/>
      <point x="-156" y="1262" type="line"/>
      <point x="-186" y="1262" type="line"/>
      <point x="-186" y="1266" type="line"/>
      <point x="-257" y="1353"/>
      <point x="-335" y="1448"/>
      <point x="-390" y="1519" type="curve" smooth="yes"/>
      <point x="-562" y="1741" type="line"/>
    </contour>
  </outline>
  <guideline angle="90" x="-555" y="0"/>
  <guideline angle="90" x="-156" y="0"/>
  <guideline angle="90" x="-186" y="0"/>
  <guideline angle="90" x="-169" y="0"/>
  <guideline angle="0" x="0" y="1262"/>
</glyph>
<glyph name="matraAi.dv" format="2">
  <unicode hex="0948"/>
  <anchor x="-169" y="1262" name="_top"/>
  <outline>
    <contour>
      <point x="-544" y="1604" type="line"/>
      <point x="-186" y="1292" type="line"/>
      <point x="-184" y="1294" type="line"/>
      <point x="-235" y="1413"/>
      <point x="-265" y="1495"/>
      <point x="-308" y="1610" type="curve" smooth="yes"/>
      <point x="-392" y="1835" type="line"/>
      <point x="-392" y="1840" type="line"/>
      <point x="-357" y="1840" type="line"/>
      <point x="-153" y="1270" type="line"/>
      <point x="-153" y="1262" type="line"/>
      <point x="-191" y="1262" type="line"/>
      <point x="-191" y="1271" type="line"/>
      <point x="-270" y="1330"/>
      <point x="-350" y="1394"/>
      <point x="-418" y="1453" type="curve" smooth="yes"/>
      <point x="-585" y="1597" type="line"/>
      <point x="-585" y="1604" type="line"/>
    </contour>
  </outline>
  <guideline angle="90" x="-169" y="0"/>
  <guideline angle="0" x="0" y="1262"/>
</glyph>
<glyph name="matraShortO.dv" format="2">
  <advance width="337"/>
  <unicode hex="094A"/>
  <outline>
    <contour>
      <point x="-174" y="1726" type="curve" smooth="yes"/>
      <point x="-174" y="1608"/>
      <point x="-143" y="1566"/>
      <point x="-23" y="1559" type="curve" smooth="yes"/>
      <point x="9" y="1557" type="line" smooth="yes"/>
      <point x="141" y="1549"/>
      <point x="185" y="1485"/>
      <point x="185" y="1351" type="curve" smooth="yes"/>
      <point x="185" y="1262" type="line"/>
      <point x="152" y="1262" type="line"/>
      <point x="152" y="1351" type="line" smooth="yes"/>
      <point x="152" y="1466"/>
      <point x="117" y="1517"/>
      <point x="7" y="1524" type="curve" smooth="yes"/>
      <point x="-25" y="1526" type="line" smooth="yes"/>
      <point x="-161" y="1534"/>
      <point x="-207" y="1592"/>
      <point x="-207" y="1713" type="curve" smooth="yes"/>
      <point x="-207" y="1726"/>
      <point x="-206" y="1741"/>
      <point x="-204" y="1754" type="curve"/>
      <point x="-174" y="1754" type="line"/>
      <point x="-174" y="1749.45"/>
      <point x="-174" y="1730.84"/>
    </contour>
    <contour>
      <point x="186" y="0" type="line"/>
      <point x="151" y="0" type="line"/>
      <point x="151" y="1251" type="line"/>
      <point x="186" y="1251" type="line"/>
    </contour>
    <contour>
      <point x="361" y="1242" type="line"/>
      <point x="-18" y="1242" type="line"/>
      <point x="-24" y="1271" type="line"/>
      <point x="355" y="1271" type="line"/>
    </contour>
  </outline>
  <guideline angle="90" x="150" y="0"/>
</glyph>
<glyph name="GaNukta.dv" format="2">
  <advance width="708"/>
  <unicode hex="095A"/>
  <anchor x="539" y="9" name="bottom"/>
  <anchor x="534" y="9" name="bottom2"/>
  <anchor x="557" y="9" name="bottom3"/>
  <anchor x="539" y="30" name="bottom5"/>
  <anchor x="539" y="1262" name="top"/>
  <outline>
    <contour>
      <point x="633" y="1242" type="line"/>
      <point x="-12" y="1242" type="line"/>
      <point x="-18" y="1271" type="line"/>
      <point x="627" y="1271" type="line"/>
    </contour>
    <contour>
      <point x="153" y="1253" type="curve"/>
      <point x="190" y="1253" type="line"/>
      <point x="230" y="1187"/>
      <point x="243" y="1097"/>
      <point x="243" y="881" type="curve" smooth="yes"/>
      <point x="243" y="772" type="line" smooth="yes"/>
      <point x="243" y="490.653"/>
      <point x="191.615" y="407"/>
      <point x="76" y="407" type="curve" smooth="yes"/>
      <point x="60.2308" y="407"/>
      <point x="46.4615" y="409.4"/>
      <point x="35" y="413" type="curve"/>
      <point x="32" y="445" type="line"/>
      <point x="45.5525" y="441.453"/>
      <point x="58" y="440"/>
      <point x="72" y="440" type="curve" smooth="yes"/>
      <point x="168.785" y="440"/>
      <point x="208" y="518.601"/>
      <point x="208" y="776" type="curve" smooth="yes"/>
      <point x="208" y="885" type="line" smooth="yes"/>
      <point x="208" y="1089"/>
      <point x="196" y="1187"/>
    </contour>
    <contour>
      <point x="557" y="1251" type="line"/>
      <point x="557" y="0" type="line"/>
      <point x="522" y="0" type="line"/>
      <point x="522" y="1251" type="line"/>
    </contour>
    <contour>
      <point x="422" y="1242" type="line"/>
      <point x="416" y="1271" type="line"/>
      <point x="726" y="1271" type="line"/>
      <point x="732" y="1242" type="line"/>
    </contour>
    <contour>
      <point x="134" y="17" type="curve" smooth="yes"/>
      <point x="112" y="17"/>
      <point x="105" y="37"/>
      <point x="105" y="83" type="curve"/>
      <point x="105" y="84.6572"/>
      <point x="105" y="96.5645"/>
      <point x="105" y="98" type="curve"/>
      <point x="105" y="144"/>
      <point x="112" y="164"/>
      <point x="134" y="164" type="curve" smooth="yes"/>
      <point x="156" y="164"/>
      <point x="163" y="144"/>
      <point x="163" y="98" type="curve"/>
      <point x="163" y="96.3428"/>
      <point x="163" y="84.4355"/>
      <point x="163" y="83" type="curve"/>
      <point x="163" y="37"/>
      <point x="156" y="17"/>
    </contour>
  </outline>
  <guideline angle="0" x="0" y="119"/>
  <guideline angle="90" x="534" y="0"/>
  <guideline angle="0" x="0" y="9"/>
  <guideline angle="90" x="539" y="0"/>
  <guideline angle="90" x="522" y="0"/>
  <guideline angle="0" x="0" y="1262"/>
  <guideline angle="90" x="557" y="0"/>
  <guideline angle="0" x="0" y="-125"/>
</glyph>
<glyph name="JaNukta.dv" format="2">
  <advance width="801"/>
  <unicode hex="095B"/>
  <anchor x="632" y="9" name="bottom"/>
  <anchor x="627" y="9" name="bottom2"/>
  <anchor x="650" y="9" name="bottom3"/>
  <anchor x="632" y="30" name="bottom5"/>
  <anchor x="632" y="1262" name="top"/>
  <outline>
    <contour>
      <point x="650" y="1251" type="line"/>
      <point x="650" y="0" type="line"/>
      <point x="615" y="0" type="line"/>
      <point x="615" y="1251" type="line"/>
    </contour>
    <contour>
      <point x="515" y="1242" type="line"/>
      <point x="509" y="1271" type="line"/>
      <point x="819" y="1271" type="line"/>
      <point x="825" y="1242" type="line"/>
    </contour>
    <contour>
      <point x="824" y="1242" type="line"/>
      <point x="-18" y="1242" type="line"/>
      <point x="-24" y="1271" type="line"/>
      <point x="819" y="1271" type="line"/>
    </contour>
    <contour>
      <point x="633" y="927" type="line"/>
      <point x="633" y="896" type="line"/>
      <point x="322" y="896" type="line"/>
      <point x="230" y="899" type="line"/>
      <point x="90" y="900" type="line"/>
      <point x="90" y="927" type="line"/>
    </contour>
    <contour>
      <point x="239" y="918" type="line"/>
      <point x="239" y="905" type="line"/>
      <point x="346" y="885"/>
      <point x="385" y="806"/>
      <point x="385" y="637" type="curve" smooth="yes"/>
      <point x="385" y="458" type="line" smooth="yes"/>
      <point x="385" y="250"/>
      <point x="315" y="171"/>
      <point x="184" y="171" type="curve" smooth="yes"/>
      <point x="124" y="171"/>
      <point x="75" y="190"/>
      <point x="42" y="219" type="curve"/>
      <point x="39" y="261" type="line"/>
      <point x="83" y="224"/>
      <point x="125" y="204"/>
      <point x="184" y="204" type="curve" smooth="yes"/>
      <point x="289" y="204"/>
      <point x="350" y="276"/>
      <point x="350" y="460" type="curve" smooth="yes"/>
      <point x="350" y="633" type="line" smooth="yes"/>
      <point x="350" y="826"/>
      <point x="304" y="890"/>
      <point x="169" y="896" type="curve" smooth="yes"/>
      <point x="90" y="900" type="line"/>
      <point x="90" y="918" type="line"/>
    </contour>
    <contour>
      <point x="197" y="-160" type="curve" smooth="yes"/>
      <point x="175" y="-160"/>
      <point x="168" y="-140"/>
      <point x="168" y="-94" type="curve"/>
      <point x="168" y="-92.3428"/>
      <point x="168" y="-80.4355"/>
      <point x="168" y="-79" type="curve"/>
      <point x="168" y="-33"/>
      <point x="175" y="-13"/>
      <point x="197" y="-13" type="curve" smooth="yes"/>
      <point x="219" y="-13"/>
      <point x="226" y="-33"/>
      <point x="226" y="-79" type="curve"/>
      <point x="226" y="-80.6572"/>
      <point x="226" y="-92.5645"/>
      <point x="226" y="-94" type="curve"/>
      <point x="226" y="-140"/>
      <point x="219" y="-160"/>
    </contour>
  </outline>
  <guideline angle="0" x="0" y="63"/>
  <guideline angle="90" x="168" y="0"/>
  <guideline angle="90" x="627" y="0"/>
  <guideline angle="0" x="0" y="9"/>
  <guideline angle="90" x="632" y="0"/>
  <guideline angle="90" x="615" y="0"/>
  <guideline angle="0" x="0" y="1262"/>
  <guideline angle="90" x="650" y="0"/>
  <guideline angle="0" x="0" y="-125"/>
</glyph>
<glyph name="PhaNukta.dv" format="2">
  <advance width="967"/>
  <unicode hex="095E"/>
  <anchor x="506" y="9" name="bottom"/>
  <anchor x="501" y="9" name="bottom2"/>
  <anchor x="729" y="9" name="bottom3"/>
  <anchor x="506" y="30" name="bottom5"/>
  <anchor x="506" y="1262" name="top"/>
  <outline>
    <contour>
      <point x="-19" y="1242" type="line"/>
      <point x="-25" y="1271" type="line"/>
      <point x="984" y="1271" type="line"/>
      <point x="989" y="1242" type="line"/>
    </contour>
    <contour>
      <point x="319" y="333" type="curve" smooth="yes"/>
      <point x="194" y="333"/>
      <point x="132" y="409"/>
      <point x="132" y="583" type="curve" smooth="yes"/>
      <point x="132" y="1251" type="line"/>
      <point x="167" y="1251" type="line"/>
      <point x="167" y="587" type="line" smooth="yes"/>
      <point x="167" y="429"/>
      <point x="216" y="366"/>
      <point x="317" y="366" type="curve" smooth="yes"/>
      <point x="409" y="366"/>
      <point x="465" y="414"/>
      <point x="490" y="523" type="curve"/>
      <point x="494" y="460" type="line"/>
      <point x="490" y="460" type="line"/>
      <point x="472" y="387"/>
      <point x="419" y="333"/>
    </contour>
    <contour>
      <point x="680" y="931" type="curve" smooth="yes"/>
      <point x="605" y="931"/>
      <point x="542" y="885"/>
      <point x="520" y="782" type="curve"/>
      <point x="514" y="834" type="line"/>
      <point x="518" y="834" type="line"/>
      <point x="532" y="907"/>
      <point x="592" y="964"/>
      <point x="682" y="964" type="curve" smooth="yes"/>
      <point x="807" y="964"/>
      <point x="860" y="876"/>
      <point x="860" y="692" type="curve" smooth="yes"/>
      <point x="860" y="405" type="line" smooth="yes"/>
      <point x="860" y="232"/>
      <point x="814" y="158"/>
      <point x="706" y="158" type="curve" smooth="yes"/>
      <point x="680" y="158"/>
      <point x="656" y="162"/>
      <point x="636" y="171" type="curve"/>
      <point x="632" y="206" type="line"/>
      <point x="652" y="197"/>
      <point x="674" y="191"/>
      <point x="704" y="191" type="curve" smooth="yes"/>
      <point x="794" y="191"/>
      <point x="825" y="258"/>
      <point x="825" y="410" type="curve" smooth="yes"/>
      <point x="825" y="688" type="line" smooth="yes"/>
      <point x="825" y="854"/>
      <point x="783" y="931"/>
    </contour>
    <contour>
      <point x="524" y="1251" type="line"/>
      <point x="524" y="0" type="line"/>
      <point x="489" y="0" type="line"/>
      <point x="489" y="1251" type="line"/>
    </contour>
    <contour>
      <point x="201" y="-18" type="curve" smooth="yes"/>
      <point x="179" y="-18"/>
      <point x="172" y="2"/>
      <point x="172" y="48" type="curve"/>
      <point x="172" y="49.6572"/>
      <point x="172" y="61.5645"/>
      <point x="172" y="63" type="curve"/>
      <point x="172" y="109"/>
      <point x="179" y="129"/>
      <point x="201" y="129" type="curve" smooth="yes"/>
      <point x="223" y="129"/>
      <point x="230" y="109"/>
      <point x="230" y="63" type="curve"/>
      <point x="230" y="61.3428"/>
      <point x="230" y="49.4355"/>
      <point x="230" y="48" type="curve"/>
      <point x="230" y="2"/>
      <point x="223" y="-18"/>
    </contour>
  </outline>
  <guideline angle="90" x="178" y="0"/>
  <guideline angle="0" x="0" y="-101"/>
  <guideline angle="90" x="389" y="0"/>
  <guideline angle="0" x="0" y="9"/>
  <guideline angle="90" x="501" y="0"/>
  <guideline angle="0" x="0" y="9"/>
  <guideline angle="90" x="506" y="0"/>
  <guideline angle="90" x="489" y="0"/>
  <guideline angle="0" x="0" y="1262"/>
  <guideline angle="90" x="524" y="0"/>
  <guideline angle="0" x="0" y="30"/>
  <guideline angle="0" x="0" y="333"/>
</glyph>
<glyph name="vowelLruu.dv" format="2">
  <advance width="845"/>
  <unicode hex="0961"/>
  <anchor x="649" y="-270" name="bottom3"/>
  <anchor x="587" y="1262" name="top"/>
  <outline>
    <contour>
      <point x="742" y="662" type="line"/>
      <point x="742" y="613" type="line" smooth="yes"/>
      <point x="742" y="473"/>
      <point x="713" y="407"/>
      <point x="634" y="300" type="curve" smooth="yes"/>
      <point x="589" y="240"/>
      <point x="544" y="181"/>
      <point x="544" y="96" type="curve" smooth="yes"/>
      <point x="544" y="5"/>
      <point x="581" y="-29"/>
      <point x="651" y="-29" type="curve" smooth="yes"/>
      <point x="689" y="-29"/>
      <point x="722" y="-19"/>
      <point x="751" y="0" type="curve"/>
      <point x="747" y="-37" type="line"/>
      <point x="724" y="-52"/>
      <point x="691" y="-61"/>
      <point x="651" y="-61" type="curve" smooth="yes"/>
      <point x="563" y="-61"/>
      <point x="510" y="-10"/>
      <point x="510" y="96" type="curve" smooth="yes"/>
      <point x="510" y="184"/>
      <point x="552" y="247"/>
      <point x="605" y="319" type="curve" smooth="yes"/>
      <point x="678" y="419"/>
      <point x="707" y="481"/>
      <point x="707" y="613" type="curve" smooth="yes"/>
      <point x="707" y="659" type="line"/>
    </contour>
    <contour>
      <point x="648" y="-57" type="line"/>
      <point x="576" y="-70"/>
      <point x="552" y="-125"/>
      <point x="552" y="-193" type="curve" smooth="yes"/>
      <point x="552" y="-287"/>
      <point x="595" y="-326"/>
      <point x="659" y="-326" type="curve" smooth="yes"/>
      <point x="702" y="-326"/>
      <point x="729" y="-315"/>
      <point x="762" y="-295" type="curve"/>
      <point x="758" y="-333" type="line"/>
      <point x="736" y="-348"/>
      <point x="703" y="-359"/>
      <point x="661" y="-359" type="curve" smooth="yes"/>
      <point x="569" y="-359"/>
      <point x="518" y="-303"/>
      <point x="518" y="-193" type="curve" smooth="yes"/>
      <point x="518" y="-116"/>
      <point x="550" y="-61"/>
      <point x="616" y="-44" type="curve"/>
      <point x="616" y="-37" type="line"/>
    </contour>
    <contour>
      <point x="470" y="1242" type="line"/>
      <point x="464" y="1271" type="line"/>
      <point x="724" y="1271" type="line"/>
      <point x="730" y="1242" type="line"/>
    </contour>
    <contour>
      <point x="605" y="1252" type="line"/>
      <point x="605" y="1016" type="line"/>
      <point x="571" y="1016" type="line"/>
      <point x="571" y="1252" type="line"/>
    </contour>
    <contour>
      <point x="-18" y="1242" type="line"/>
      <point x="-24" y="1271" type="line"/>
      <point x="857" y="1271" type="line"/>
      <point x="863" y="1242" type="line"/>
    </contour>
    <contour>
      <point x="605" y="1249" type="line"/>
      <point x="605" y="940" type="line"/>
      <point x="570" y="940" type="line"/>
      <point x="570" y="1249" type="line"/>
    </contour>
    <contour>
      <point x="109" y="470" type="curve" smooth="yes"/>
      <point x="109" y="677" type="line" smooth="yes"/>
      <point x="109" y="881"/>
      <point x="171" y="953"/>
      <point x="287" y="953" type="curve" smooth="yes"/>
      <point x="368" y="953"/>
      <point x="414" y="903"/>
      <point x="425" y="804" type="curve"/>
      <point x="427" y="804" type="line"/>
      <point x="438" y="903"/>
      <point x="491" y="953"/>
      <point x="580" y="953" type="curve" smooth="yes"/>
      <point x="681" y="953"/>
      <point x="742" y="889"/>
      <point x="742" y="690" type="curve" smooth="yes"/>
      <point x="742" y="629" type="line"/>
      <point x="707" y="626" type="line"/>
      <point x="707" y="690" type="line" smooth="yes"/>
      <point x="707" y="868"/>
      <point x="661" y="920"/>
      <point x="580" y="920" type="curve" smooth="yes"/>
      <point x="500" y="920"/>
      <point x="444" y="870"/>
      <point x="443" y="734" type="curve" smooth="yes"/>
      <point x="442" y="324" type="line"/>
      <point x="410" y="324" type="line"/>
      <point x="408" y="732" type="line" smooth="yes"/>
      <point x="408" y="867"/>
      <point x="361" y="920"/>
      <point x="287" y="920" type="curve" smooth="yes"/>
      <point x="190" y="920"/>
      <point x="144" y="856"/>
      <point x="144" y="675" type="curve" smooth="yes"/>
      <point x="144" y="474" type="line" smooth="yes"/>
      <point x="144" y="244"/>
      <point x="184" y="132"/>
      <point x="296" y="2" type="curve"/>
      <point x="296" y="0" type="line"/>
      <point x="254" y="0" type="line"/>
      <point x="151" y="123"/>
      <point x="109" y="241"/>
    </contour>
  </outline>
  <guideline angle="90" x="587" y="0"/>
</glyph>
<glyph name="matraLruu.dv" format="2">
  <unicode hex="0963"/>
  <outline>
    <contour>
      <point x="-68" y="-166" type="line"/>
      <point x="-68" y="-180" type="line" smooth="yes"/>
      <point x="-68" y="-241"/>
      <point x="-84.7276" y="-281.874"/>
      <point x="-130.54" y="-346" type="curve" smooth="yes"/>
      <point x="-164.743" y="-393.875"/>
      <point x="-194" y="-429"/>
      <point x="-194" y="-482" type="curve" smooth="yes"/>
      <point x="-194" y="-526"/>
      <point x="-170" y="-552"/>
      <point x="-122" y="-552" type="curve" smooth="yes"/>
      <point x="-94" y="-552"/>
      <point x="-72" y="-545"/>
      <point x="-52" y="-530" type="curve"/>
      <point x="-54" y="-561" type="line"/>
      <point x="-71" y="-574"/>
      <point x="-92" y="-580"/>
      <point x="-120" y="-580" type="curve" smooth="yes"/>
      <point x="-192" y="-580"/>
      <point x="-223" y="-532"/>
      <point x="-223" y="-482" type="curve" smooth="yes"/>
      <point x="-223" y="-421"/>
      <point x="-193.413" y="-382.158"/>
      <point x="-155.075" y="-329" type="curve" smooth="yes"/>
      <point x="-112.636" y="-270.157"/>
      <point x="-100" y="-232"/>
      <point x="-100" y="-180" type="curve" smooth="yes"/>
      <point x="-100" y="-167" type="line"/>
    </contour>
    <contour>
      <point x="-124" y="-578" type="line"/>
      <point x="-172" y="-585"/>
      <point x="-188" y="-614"/>
      <point x="-188" y="-653" type="curve" smooth="yes"/>
      <point x="-188" y="-705"/>
      <point x="-160" y="-725"/>
      <point x="-118" y="-725" type="curve" smooth="yes"/>
      <point x="-90" y="-725"/>
      <point x="-70" y="-720"/>
      <point x="-46" y="-705" type="curve"/>
      <point x="-48" y="-736" type="line"/>
      <point x="-66" y="-748"/>
      <point x="-87" y="-753"/>
      <point x="-118" y="-753" type="curve" smooth="yes"/>
      <point x="-177" y="-753"/>
      <point x="-217" y="-721"/>
      <point x="-217" y="-655" type="curve" smooth="yes"/>
      <point x="-217" y="-611"/>
      <point x="-194" y="-578"/>
      <point x="-149" y="-569" type="curve"/>
      <point x="-149" y="-563" type="line"/>
    </contour>
    <contour>
      <point x="-307" y="-342" type="line"/>
      <point x="-309" y="-144" type="line" smooth="yes"/>
      <point x="-310" y="-58"/>
      <point x="-342" y="-20"/>
      <point x="-398" y="-20" type="curve" smooth="yes"/>
      <point x="-462" y="-20"/>
      <point x="-492" y="-72"/>
      <point x="-492" y="-166" type="curve" smooth="yes"/>
      <point x="-492" y="-216" type="line" smooth="yes"/>
      <point x="-492" y="-344"/>
      <point x="-475" y="-414"/>
      <point x="-390" y="-506" type="curve"/>
      <point x="-430" y="-506" type="line"/>
      <point x="-501" y="-424"/>
      <point x="-524" y="-348"/>
      <point x="-524" y="-218" type="curve" smooth="yes"/>
      <point x="-524" y="-162" type="line" smooth="yes"/>
      <point x="-524" y="-50"/>
      <point x="-479" y="9"/>
      <point x="-398" y="9" type="curve" smooth="yes"/>
      <point x="-341" y="9"/>
      <point x="-304" y="-20"/>
      <point x="-294" y="-75" type="curve"/>
      <point x="-293" y="-75" type="line"/>
      <point x="-284" y="-20"/>
      <point x="-244" y="9"/>
      <point x="-188" y="9" type="curve" smooth="yes"/>
      <point x="-106" y="9"/>
      <point x="-68" y="-49"/>
      <point x="-68" y="-153" type="curve" smooth="yes"/>
      <point x="-68" y="-167" type="line"/>
      <point x="-100" y="-169" type="line"/>
      <point x="-100" y="-156" type="line" smooth="yes"/>
      <point x="-100" y="-69"/>
      <point x="-126" y="-20"/>
      <point x="-185" y="-20" type="curve" smooth="yes"/>
      <point x="-246" y="-20"/>
      <point x="-276" y="-58"/>
      <point x="-278" y="-144" type="curve" smooth="yes"/>
      <point x="-282" y="-342" type="line"/>
    </contour>
  </outline>
</glyph>
<glyph name="Danda.dv" format="2">
  <advance width="550"/>
  <unicode hex="0964"/>
  <outline>
    <contour>
      <point x="293" y="1308" type="line"/>
      <point x="293" y="0" type="line"/>
      <point x="258" y="0" type="line"/>
      <point x="258" y="1321" type="line"/>
    </contour>
  </outline>
</glyph>
<glyph name="Shunya.dv" format="2">
  <advance width="626"/>
  <unicode hex="0966"/>
  <outline>
    <contour>
      <point x="314" y="228" type="curve" smooth="yes"/>
      <point x="428" y="228"/>
      <point x="485" y="300"/>
      <point x="485" y="456" type="curve" smooth="yes"/>
      <point x="485" y="791" type="line" smooth="yes"/>
      <point x="485" y="955"/>
      <point x="428" y="1029"/>
      <point x="314" y="1029" type="curve" smooth="yes"/>
      <point x="200" y="1029"/>
      <point x="141" y="957"/>
      <point x="141" y="791" type="curve" smooth="yes"/>
      <point x="141" y="456" type="line" smooth="yes"/>
      <point x="141" y="300"/>
      <point x="198" y="228"/>
    </contour>
    <contour>
      <point x="314" y="195" type="curve" smooth="yes"/>
      <point x="174" y="195"/>
      <point x="106" y="282"/>
      <point x="106" y="454" type="curve" smooth="yes"/>
      <point x="106" y="793" type="line" smooth="yes"/>
      <point x="106" y="975"/>
      <point x="176" y="1062"/>
      <point x="314" y="1062" type="curve" smooth="yes"/>
      <point x="452" y="1062"/>
      <point x="520" y="975"/>
      <point x="520" y="793" type="curve" smooth="yes"/>
      <point x="520" y="454" type="line" smooth="yes"/>
      <point x="520" y="285"/>
      <point x="452" y="195"/>
    </contour>
  </outline>
  <guideline angle="0" x="0" y="711"/>
  <guideline angle="0" x="0" y="1655"/>
</glyph>
<glyph name="Saat.dv" format="2">
  <advance width="860"/>
  <unicode hex="096D"/>
  <outline>
    <contour>
      <point x="190" y="1260" type="curve"/>
      <point x="225" y="1260" type="line"/>
      <point x="174" y="1084"/>
      <point x="168" y="905"/>
      <point x="168" y="651" type="curve" smooth="yes"/>
      <point x="168" y="462" type="line" smooth="yes"/>
      <point x="168" y="155"/>
      <point x="258" y="33"/>
      <point x="437" y="33" type="curve" smooth="yes"/>
      <point x="619" y="33"/>
      <point x="706" y="158"/>
      <point x="706" y="432" type="curve" smooth="yes"/>
      <point x="706" y="482" type="line"/>
      <point x="706" y="491" type="line"/>
      <point x="706" y="800" type="line" smooth="yes"/>
      <point x="706" y="959"/>
      <point x="661" y="1025"/>
      <point x="571" y="1025" type="curve" smooth="yes"/>
      <point x="479" y="1025"/>
      <point x="437" y="957"/>
      <point x="437" y="800" type="curve" smooth="yes"/>
      <point x="437" y="616" type="line" smooth="yes"/>
      <point x="437" y="443"/>
      <point x="483" y="388"/>
      <point x="566" y="388" type="curve" smooth="yes"/>
      <point x="637" y="388"/>
      <point x="683" y="429"/>
      <point x="707" y="526" type="curve"/>
      <point x="711" y="467" type="line"/>
      <point x="707" y="467" type="line"/>
      <point x="689" y="399"/>
      <point x="639" y="355"/>
      <point x="564" y="355" type="curve" smooth="yes"/>
      <point x="463" y="355"/>
      <point x="402" y="425"/>
      <point x="402" y="615" type="curve" smooth="yes"/>
      <point x="402" y="802" type="line" smooth="yes"/>
      <point x="402" y="975"/>
      <point x="455" y="1058"/>
      <point x="571" y="1058" type="curve" smooth="yes"/>
      <point x="685" y="1058"/>
      <point x="741" y="977"/>
      <point x="741" y="802" type="curve" smooth="yes"/>
      <point x="741" y="431" type="line" smooth="yes"/>
      <point x="741" y="131"/>
      <point x="641" y="0"/>
      <point x="437" y="0" type="curve" smooth="yes"/>
      <point x="233" y="0"/>
      <point x="133" y="132"/>
      <point x="133" y="460" type="curve" smooth="yes"/>
      <point x="133" y="651" type="line" smooth="yes"/>
      <point x="133" y="905"/>
      <point x="139" y="1086"/>
    </contour>
  </outline>
  <guideline angle="0" x="0" y="598"/>
</glyph>
<glyph name="Nau.dv" format="2">
  <advance width="605"/>
  <unicode hex="096F"/>
  <outline>
    <contour>
      <point x="102" y="1003" type="line" smooth="yes"/>
      <point x="102" y="1184"/>
      <point x="173" y="1275"/>
      <point x="304" y="1275" type="curve" smooth="yes"/>
      <point x="429" y="1275"/>
      <point x="500" y="1195"/>
      <point x="500" y="997" type="curve" smooth="yes"/>
      <point x="500" y="834" type="line" smooth="yes"/>
      <point x="500" y="626"/>
      <point x="424" y="559"/>
      <point x="319" y="559" type="curve" smooth="yes"/>
      <point x="244" y="559"/>
      <point x="194" y="592"/>
      <point x="167" y="648" type="curve"/>
      <point x="163" y="648" type="line"/>
      <point x="156" y="697" type="line"/>
      <point x="192" y="631"/>
      <point x="237" y="592"/>
      <point x="312" y="592" type="curve" smooth="yes"/>
      <point x="406" y="592"/>
      <point x="465" y="657"/>
      <point x="465" y="835" type="curve" smooth="yes"/>
      <point x="465" y="992" type="line" smooth="yes"/>
      <point x="465" y="1170"/>
      <point x="411" y="1242"/>
      <point x="304" y="1242" type="curve" smooth="yes"/>
      <point x="192" y="1242"/>
      <point x="137" y="1160"/>
      <point x="137" y="995" type="curve" smooth="yes"/>
      <point x="137" y="891" type="line" smooth="yes"/>
      <point x="137" y="784"/>
      <point x="156" y="710"/>
      <point x="172" y="659" type="curve"/>
      <point x="179" y="629" type="line"/>
      <point x="444" y="0" type="line"/>
      <point x="406" y="0" type="line"/>
      <point x="187" y="521" type="line" smooth="yes"/>
      <point x="143" y="626"/>
      <point x="102" y="738"/>
      <point x="102" y="896" type="curve" smooth="yes"/>
    </contour>
  </outline>
</glyph>
<glyph name="uni0970" format="2">
  <advance width="578"/>
  <unicode hex="0970"/>
  <outline>
    <contour>
      <point x="289" y="369" type="curve" smooth="yes"/>
      <point x="388" y="369"/>
      <point x="438" y="417.303"/>
      <point x="438" y="577" type="curve" smooth="yes"/>
      <point x="438" y="742" type="line" smooth="yes"/>
      <point x="438" y="886.92"/>
      <point x="388" y="951"/>
      <point x="289" y="951" type="curve" smooth="yes"/>
      <point x="190" y="951"/>
      <point x="140" y="886.92"/>
      <point x="140" y="742" type="curve" smooth="yes"/>
      <point x="140" y="577" type="line" smooth="yes"/>
      <point x="140" y="417.303"/>
      <point x="190" y="369"/>
    </contour>
    <contour>
      <point x="289" y="335" type="curve" smooth="yes"/>
      <point x="173" y="335"/>
      <point x="105" y="393.272"/>
      <point x="105" y="575" type="curve" smooth="yes"/>
      <point x="105" y="744" type="line" smooth="yes"/>
      <point x="105" y="910.914"/>
      <point x="173" y="984"/>
      <point x="289" y="984" type="curve" smooth="yes"/>
      <point x="405" y="984"/>
      <point x="473" y="910.914"/>
      <point x="473" y="744" type="curve" smooth="yes"/>
      <point x="473" y="575" type="line" smooth="yes"/>
      <point x="473" y="393.272"/>
      <point x="405" y="335"/>
    </contour>
  </outline>
</glyph>
<glyph name="uni0974" format="2">
  <advance width="1198"/>
  <unicode hex="0974"/>
  <anchor x="1105" y="1262" name="top"/>
  <outline>
    <contour>
      <point x="1047" y="0" type="line"/>
      <point x="1012" y="0" type="line"/>
      <point x="1012" y="1251" type="line"/>
      <point x="1047" y="1251" type="line"/>
    </contour>
    <contour>
      <point x="1222" y="1242" type="line"/>
      <point x="843" y="1242" type="line"/>
      <point x="837" y="1271" type="line"/>
      <point x="1216" y="1271" type="line"/>
    </contour>
    <contour>
      <point x="1012" y="1663" type="line"/>
      <point x="1045" y="1663" type="line"/>
      <point x="1045" y="1260" type="line"/>
      <point x="1012" y="1260" type="line"/>
    </contour>
    <contour>
      <point x="885" y="1242" type="line"/>
      <point x="523" y="1242" type="line"/>
      <point x="517" y="1271" type="line"/>
      <point x="880" y="1271" type="line"/>
    </contour>
    <contour>
      <point x="675" y="0" type="line"/>
      <point x="675" y="1253" type="line"/>
      <point x="710" y="1253" type="line"/>
      <point x="710" y="0" type="line"/>
    </contour>
    <contour>
      <point x="29" y="137" type="line"/>
      <point x="79" y="95"/>
      <point x="134" y="73"/>
      <point x="196" y="73" type="curve" smooth="yes"/>
      <point x="323" y="73"/>
      <point x="377" y="150"/>
      <point x="377" y="312" type="curve" smooth="yes"/>
      <point x="377" y="418" type="line" smooth="yes"/>
      <point x="377" y="585"/>
      <point x="320" y="657"/>
      <point x="178" y="662" type="curve" smooth="yes"/>
      <point x="116" y="664" type="line"/>
      <point x="116" y="694" type="line"/>
      <point x="178" y="696" type="line" smooth="yes"/>
      <point x="318" y="699"/>
      <point x="375" y="771"/>
      <point x="375" y="935" type="curve" smooth="yes"/>
      <point x="375" y="1029" type="line" smooth="yes"/>
      <point x="375" y="1178"/>
      <point x="328" y="1248"/>
      <point x="219" y="1248" type="curve" smooth="yes"/>
      <point x="162" y="1248"/>
      <point x="118" y="1233"/>
      <point x="68" y="1192" type="curve"/>
      <point x="72" y="1235" type="line"/>
      <point x="110" y="1264"/>
      <point x="158" y="1281"/>
      <point x="219" y="1281" type="curve" smooth="yes"/>
      <point x="349" y="1281"/>
      <point x="410" y="1201"/>
      <point x="410" y="1030" type="curve" smooth="yes"/>
      <point x="410" y="935" type="line" smooth="yes"/>
      <point x="410" y="767"/>
      <point x="351" y="684"/>
      <point x="224" y="679" type="curve"/>
      <point x="224" y="673" type="line"/>
      <point x="346" y="664"/>
      <point x="412" y="594"/>
      <point x="412" y="418" type="curve" smooth="yes"/>
      <point x="412" y="309" type="line" smooth="yes"/>
      <point x="412" y="123"/>
      <point x="342" y="40"/>
      <point x="196" y="40" type="curve" smooth="yes"/>
      <point x="129" y="40"/>
      <point x="75" y="60"/>
      <point x="33" y="95" type="curve"/>
    </contour>
    <contour>
      <point x="213" y="683" type="line"/>
      <point x="261" y="686" type="line"/>
      <point x="261" y="684" type="line"/>
      <point x="335" y="686"/>
      <point x="410" y="688"/>
      <point x="493" y="688" type="curve" smooth="yes"/>
      <point x="692" y="688" type="line"/>
      <point x="692" y="657" type="line"/>
      <point x="493" y="657" type="line" smooth="yes"/>
      <point x="410" y="657"/>
      <point x="337" y="657"/>
      <point x="261" y="664" type="curve"/>
      <point x="261" y="661" type="line"/>
      <point x="213" y="668" type="line"/>
    </contour>
  </outline>
  <guideline angle="90" x="950" y="0"/>
</glyph>
<glyph name="uni0978" format="2">
  <advance width="653"/>
  <unicode hex="0978"/>
  <anchor x="409" y="9" name="bottom"/>
  <anchor x="385" y="9" name="bottom2"/>
  <anchor x="569" y="9" name="bottom3"/>
  <anchor x="360" y="30" name="bottom5"/>
  <anchor x="466" y="1262" name="top"/>
  <outline>
    <contour>
      <point x="683" y="1242" type="line"/>
      <point x="-20" y="1242" type="line"/>
      <point x="-26" y="1271" type="line"/>
      <point x="677" y="1271" type="line"/>
    </contour>
    <contour>
      <point x="191" y="1253" type="line"/>
      <point x="191" y="637" type="line"/>
      <point x="156" y="637" type="line"/>
      <point x="156" y="1253" type="line"/>
    </contour>
    <contour>
      <point x="158" y="283" type="line"/>
      <point x="143" y="449"/>
      <point x="136" y="541"/>
      <point x="121" y="707" type="curve"/>
      <point x="156" y="736" type="line"/>
      <point x="191" y="736" type="line"/>
      <point x="191" y="283" type="line"/>
    </contour>
    <contour>
      <point x="180" y="746" type="line"/>
      <point x="216" y="767"/>
      <point x="272" y="782"/>
      <point x="330" y="782" type="curve" smooth="yes"/>
      <point x="473.557" y="782"/>
      <point x="550" y="700.549"/>
      <point x="550" y="521.092" type="curve" smooth="yes"/>
      <point x="550" y="353.669"/>
      <point x="497" y="177.563"/>
      <point x="410" y="0" type="curve"/>
      <point x="373" y="0" type="line"/>
      <point x="373" y="1.4357" type="line"/>
      <point x="463" y="184.462"/>
      <point x="514" y="356.928"/>
      <point x="514" y="520.845" type="curve" smooth="yes"/>
      <point x="514" y="678.281"/>
      <point x="453.824" y="749"/>
      <point x="330" y="749" type="curve" smooth="yes"/>
      <point x="272" y="749"/>
      <point x="220" y="733"/>
      <point x="182" y="710" type="curve"/>
    </contour>
  </outline>
  <guideline angle="90" x="692" y="0"/>
</glyph>
<glyph name="uni097E" format="2">
  <advance width="602"/>
  <unicode hex="097E"/>
  <anchor x="339" y="-407" name="bottom"/>
  <anchor x="275" y="-280" name="bottom2"/>
  <anchor x="451" y="1262" name="top"/>
  <outline>
    <contour>
      <point x="85" y="-280" type="line"/>
      <point x="85" y="-247" type="line"/>
      <point x="489" y="-247" type="line"/>
      <point x="489" y="-280" type="line"/>
    </contour>
    <contour>
      <point x="626" y="1242" type="line"/>
      <point x="-18" y="1242" type="line"/>
      <point x="-24" y="1271" type="line"/>
      <point x="620" y="1271" type="line"/>
    </contour>
    <contour>
      <point x="434" y="1253" type="line"/>
      <point x="469" y="1253" type="line"/>
      <point x="469" y="951" type="line"/>
      <point x="455" y="958"/>
      <point x="436" y="964"/>
      <point x="434" y="970" type="curve"/>
    </contour>
    <contour>
      <point x="88" y="131" type="line"/>
      <point x="145" y="77"/>
      <point x="202" y="46"/>
      <point x="289" y="46" type="curve" smooth="yes"/>
      <point x="420" y="46"/>
      <point x="477" y="123"/>
      <point x="477" y="287" type="curve" smooth="yes"/>
      <point x="477" y="315" type="line" smooth="yes"/>
      <point x="477" y="460"/>
      <point x="432" y="543"/>
      <point x="328" y="543" type="curve" smooth="yes"/>
      <point x="267" y="543"/>
      <point x="226" y="526"/>
      <point x="180" y="500" type="curve"/>
      <point x="121" y="563"/>
      <point x="98" y="622"/>
      <point x="98" y="742" type="curve" smooth="yes"/>
      <point x="98" y="760" type="line" smooth="yes"/>
      <point x="98" y="924"/>
      <point x="173" y="1003"/>
      <point x="326" y="1003" type="curve" smooth="yes"/>
      <point x="379" y="1003"/>
      <point x="425" y="995"/>
      <point x="469" y="981" type="curve"/>
      <point x="469" y="951" type="line"/>
      <point x="423" y="964"/>
      <point x="379" y="970"/>
      <point x="328" y="970" type="curve" smooth="yes"/>
      <point x="195" y="970"/>
      <point x="133" y="903"/>
      <point x="133" y="758" type="curve" smooth="yes"/>
      <point x="133" y="742" type="line" smooth="yes"/>
      <point x="133" y="637"/>
      <point x="149" y="590"/>
      <point x="190" y="542" type="curve"/>
      <point x="224" y="560"/>
      <point x="270" y="576"/>
      <point x="324" y="576" type="curve" smooth="yes"/>
      <point x="453" y="576"/>
      <point x="512" y="484"/>
      <point x="512" y="316" type="curve" smooth="yes"/>
      <point x="512" y="285" type="line" smooth="yes"/>
      <point x="512" y="98"/>
      <point x="440" y="13"/>
      <point x="289" y="13" type="curve" smooth="yes"/>
      <point x="195" y="13"/>
      <point x="136" y="44"/>
      <point x="92" y="85" type="curve"/>
    </contour>
    <contour>
      <point x="334" y="1242" type="line"/>
      <point x="328" y="1271" type="line"/>
      <point x="588" y="1271" type="line"/>
      <point x="594" y="1242" type="line"/>
    </contour>
    <contour>
      <point x="469" y="1252" type="line"/>
      <point x="469" y="1016" type="line"/>
      <point x="435" y="1016" type="line"/>
      <point x="435" y="1252" type="line"/>
    </contour>
  </outline>
  <guideline angle="0" x="0" y="22"/>
  <guideline angle="0" x="0" y="545"/>
  <guideline angle="90" x="275" y="0"/>
  <guideline angle="90" x="518" y="0"/>
  <guideline angle="0" x="0" y="-280"/>
  <guideline angle="90" x="451" y="0"/>
</glyph>
<glyph name="sevensuperior" format="2">
  <advance width="288"/>
  <unicode hex="2077"/>
  <outline>
    <contour>
      <point x="116" y="700" type="line"/>
      <point x="267" y="1353" type="line"/>
      <point x="267" y="1383" type="line"/>
      <point x="22" y="1383" type="line"/>
      <point x="22" y="1352" type="line"/>
      <point x="233" y="1352" type="line"/>
      <point x="80" y="700" type="line"/>
    </contour>
  </outline>
</glyph>
<glyph name="minus" format="2">
  <advance width="568"/>
  <unicode hex="2212"/>
  <outline>
    <contour>
      <point x="507" y="620" type="line"/>
      <point x="507" y="653" type="line"/>
      <point x="61" y="653" type="line"/>
      <point x="61" y="620" type="line"/>
    </contour>
  </outline>
</glyph>
<glyph name="bulletoperator" format="2">
  <advance width="195"/>
  <unicode hex="2219"/>
  <outline>
    <contour>
      <point x="97" y="459" type="curve" smooth="yes"/>
      <point x="119" y="459"/>
      <point x="127" y="477"/>
      <point x="127" y="518" type="curve" smooth="yes"/>
      <point x="127" y="536" type="line" smooth="yes"/>
      <point x="127" y="576"/>
      <point x="119" y="595"/>
      <point x="97" y="595" type="curve" smooth="yes"/>
      <point x="75" y="595"/>
      <point x="68" y="576"/>
      <point x="68" y="536" type="curve" smooth="yes"/>
      <point x="68" y="518" type="line" smooth="yes"/>
      <point x="68" y="477"/>
      <point x="75" y="459"/>
    </contour>
  </outline>
</glyph>
<glyph name="uniA8FB" format="2">
  <advance width="432"/>
  <unicode hex="A8FB"/>
  <outline>
    <contour>
      <point x="456" y="1242" type="line"/>
      <point x="-19" y="1242" type="line"/>
      <point x="-24" y="1271" type="line"/>
      <point x="450" y="1271" type="line"/>
    </contour>
  </outline>
</glyph>
<glyph name="BaBhaRa.dv" format="2">
  <advance width="1100"/>
  <anchor x="932" y="9" name="bottom"/>
  <anchor x="927" y="9" name="bottom2"/>
  <anchor x="950" y="9" name="bottom3"/>
  <anchor x="932" y="1262" name="top"/>
  <outline>
    <contour>
      <point x="-20" y="1242" type="line"/>
      <point x="-26" y="1271" type="line"/>
      <point x="407" y="1271" type="line"/>
      <point x="413" y="1242" type="line"/>
    </contour>
    <contour>
      <point x="170" y="938" type="line"/>
      <point x="199" y="951" type="line"/>
      <point x="516" y="286" type="line"/>
      <point x="491" y="264" type="line"/>
    </contour>
    <contour>
      <point x="109" y="469" type="curve" smooth="yes"/>
      <point x="109" y="734" type="line" smooth="yes"/>
      <point x="109" y="926"/>
      <point x="182" y="1019"/>
      <point x="326" y="1019" type="curve" smooth="yes"/>
      <point x="374" y="1019"/>
      <point x="403" y="1012"/>
      <point x="429" y="1001" type="curve"/>
      <point x="434" y="966" type="line"/>
      <point x="401" y="979"/>
      <point x="374" y="986"/>
      <point x="328" y="986" type="curve" smooth="yes"/>
      <point x="204" y="986"/>
      <point x="144" y="902"/>
      <point x="144" y="730" type="curve" smooth="yes"/>
      <point x="144" y="473" type="line" smooth="yes"/>
      <point x="144" y="304"/>
      <point x="208" y="219"/>
      <point x="342" y="219" type="curve" smooth="yes"/>
      <point x="450" y="219"/>
      <point x="526" y="279"/>
      <point x="550" y="412" type="curve"/>
      <point x="558" y="349" type="line"/>
      <point x="554" y="349" type="line"/>
      <point x="537" y="255"/>
      <point x="464" y="186"/>
      <point x="346" y="186" type="curve" smooth="yes"/>
      <point x="186" y="186"/>
      <point x="109" y="280"/>
    </contour>
    <contour>
      <point x="784" y="1242" type="line"/>
      <point x="777" y="1271" type="line"/>
      <point x="1117" y="1271" type="line"/>
      <point x="1124" y="1242" type="line"/>
    </contour>
    <contour>
      <point x="929" y="672" type="line"/>
      <point x="929" y="642" type="line"/>
      <point x="569" y="642" type="line"/>
      <point x="569" y="672" type="line"/>
    </contour>
    <contour>
      <point x="545" y="-28" type="line"/>
      <point x="545" y="-24" type="line"/>
      <point x="928" y="519" type="line"/>
      <point x="928" y="469" type="line"/>
      <point x="585" y="-28" type="line"/>
    </contour>
    <contour>
      <point x="915" y="0" type="line"/>
      <point x="915" y="478" type="line"/>
      <point x="915" y="491" type="line"/>
      <point x="915" y="1253" type="line"/>
      <point x="950" y="1253" type="line"/>
      <point x="950" y="0" type="line"/>
    </contour>
    <contour>
      <point x="552" y="254" type="line"/>
      <point x="538" y="405"/>
      <point x="530" y="491"/>
      <point x="515" y="642" type="curve"/>
      <point x="550" y="670" type="line"/>
      <point x="585" y="670" type="line"/>
      <point x="585" y="254" type="line"/>
    </contour>
    <contour>
      <point x="550" y="624" type="line"/>
      <point x="550" y="1056" type="line" smooth="yes"/>
      <point x="550" y="1194"/>
      <point x="523" y="1242"/>
      <point x="421" y="1242" type="curve" smooth="yes"/>
      <point x="374" y="1242" type="line"/>
      <point x="368" y="1271" type="line"/>
      <point x="422" y="1271" type="line" smooth="yes"/>
      <point x="547" y="1271"/>
      <point x="585" y="1209"/>
      <point x="585" y="1058" type="curve" smooth="yes"/>
      <point x="585" y="624" type="line"/>
    </contour>
  </outline>
  <guideline angle="90" x="932" y="0"/>
</glyph>
<glyph name="BaDa.dv" format="2">
  <advance width="1034"/>
  <anchor x="950" y="-129" name="bottom"/>
  <anchor x="735" y="-129" name="bottom2"/>
  <anchor x="963" y="-129" name="bottom3"/>
  <anchor x="610" y="1" name="bottom4"/>
  <anchor x="762" y="-108" name="bottom5"/>
  <anchor x="891" y="1262" name="top"/>
  <outline>
    <contour>
      <point x="-20" y="1242" type="line"/>
      <point x="-26" y="1271" type="line"/>
      <point x="517" y="1271" type="line"/>
      <point x="523" y="1242" type="line"/>
    </contour>
    <contour>
      <point x="170" y="938" type="line"/>
      <point x="199" y="951" type="line"/>
      <point x="509" y="300" type="line"/>
      <point x="484" y="278" type="line"/>
    </contour>
    <contour>
      <point x="109" y="469" type="curve" smooth="yes"/>
      <point x="109" y="734" type="line" smooth="yes"/>
      <point x="109" y="926"/>
      <point x="182" y="1019"/>
      <point x="326" y="1019" type="curve" smooth="yes"/>
      <point x="374" y="1019"/>
      <point x="403" y="1012"/>
      <point x="429" y="1001" type="curve"/>
      <point x="434" y="966" type="line"/>
      <point x="401" y="979"/>
      <point x="374" y="986"/>
      <point x="328" y="986" type="curve" smooth="yes"/>
      <point x="204" y="986"/>
      <point x="144" y="902"/>
      <point x="144" y="730" type="curve" smooth="yes"/>
      <point x="144" y="473" type="line" smooth="yes"/>
      <point x="144" y="304"/>
      <point x="202.314" y="219"/>
      <point x="328.15" y="219" type="curve" smooth="yes"/>
      <point x="424.317" y="219"/>
      <point x="499" y="269"/>
      <point x="523" y="392" type="curve"/>
      <point x="529" y="329" type="line"/>
      <point x="525" y="329" type="line"/>
      <point x="507" y="245"/>
      <point x="438.626" y="186"/>
      <point x="328.41" y="186" type="curve" smooth="yes"/>
      <point x="180.436" y="186"/>
      <point x="109" y="280"/>
    </contour>
    <contour>
      <point x="774" y="1242" type="line"/>
      <point x="768" y="1271" type="line"/>
      <point x="1028" y="1271" type="line"/>
      <point x="1034" y="1242" type="line"/>
    </contour>
    <contour>
      <point x="909" y="1252" type="line"/>
      <point x="909" y="1016" type="line"/>
      <point x="875" y="1016" type="line"/>
      <point x="875" y="1252" type="line"/>
    </contour>
    <contour>
      <point x="394" y="1242" type="line"/>
      <point x="388" y="1271" type="line"/>
      <point x="1065" y="1271" type="line"/>
      <point x="1071" y="1242" type="line"/>
    </contour>
    <contour>
      <point x="874" y="964" type="line"/>
      <point x="874" y="1253" type="line"/>
      <point x="909" y="1253" type="line"/>
      <point x="909" y="946" type="line"/>
    </contour>
    <contour>
      <point x="913" y="585" type="line"/>
      <point x="913" y="219" type="line"/>
      <point x="957" y="-138" type="line"/>
      <point x="922" y="-138" type="line"/>
      <point x="882" y="206" type="line"/>
      <point x="878" y="208" type="line"/>
      <point x="878" y="585" type="line"/>
    </contour>
    <contour>
      <point x="727" y="142" type="curve" smooth="yes"/>
      <point x="804" y="142"/>
      <point x="850" y="173"/>
      <point x="885" y="243" type="curve"/>
      <point x="887" y="193" type="line"/>
      <point x="863" y="149"/>
      <point x="810" y="109"/>
      <point x="727" y="109" type="curve" smooth="yes"/>
      <point x="580" y="109"/>
      <point x="512" y="206"/>
      <point x="512" y="429" type="curve" smooth="yes"/>
      <point x="512" y="666" type="line" smooth="yes"/>
      <point x="512" y="894"/>
      <point x="587" y="995"/>
      <point x="773" y="995" type="curve" smooth="yes"/>
      <point x="830" y="995"/>
      <point x="861" y="990"/>
      <point x="909" y="979" type="curve"/>
      <point x="909" y="946" type="line"/>
      <point x="858" y="957"/>
      <point x="828" y="962"/>
      <point x="773" y="962" type="curve" smooth="yes"/>
      <point x="609" y="962"/>
      <point x="547" y="872"/>
      <point x="547" y="664" type="curve" smooth="yes"/>
      <point x="547" y="431" type="line" smooth="yes"/>
      <point x="547" y="230"/>
      <point x="600" y="142"/>
    </contour>
  </outline>
  <guideline angle="90" x="1620" y="0"/>
  <guideline angle="0" x="0" y="-129"/>
  <guideline angle="0" x="0" y="-108"/>
  <guideline angle="90" x="891" y="0"/>
</glyph>
<glyph name="BaDda.dv" format="2">
  <advance width="998"/>
  <anchor x="723" y="22" name="bottom"/>
  <anchor x="670" y="22" name="bottom2"/>
  <anchor x="913" y="22" name="bottom3"/>
  <anchor x="711" y="43" name="bottom5"/>
  <anchor x="846" y="1262" name="top"/>
  <outline>
    <contour>
      <point x="-20" y="1242" type="line"/>
      <point x="-26" y="1271" type="line"/>
      <point x="517" y="1271" type="line"/>
      <point x="523" y="1242" type="line"/>
    </contour>
    <contour>
      <point x="478" y="295" type="line"/>
      <point x="170" y="938" type="line"/>
      <point x="199" y="951" type="line"/>
      <point x="501" y="323" type="line"/>
    </contour>
    <contour>
      <point x="329" y="218" type="curve" smooth="yes"/>
      <point x="179" y="218"/>
      <point x="109" y="312"/>
      <point x="109" y="501" type="curve" smooth="yes"/>
      <point x="109" y="736" type="line" smooth="yes"/>
      <point x="109" y="924"/>
      <point x="182" y="1019"/>
      <point x="329" y="1019" type="curve" smooth="yes"/>
      <point x="431" y="1019"/>
      <point x="494" y="963"/>
      <point x="519" y="875" type="curve"/>
      <point x="502" y="844" type="line"/>
      <point x="470" y="945"/>
      <point x="410" y="986"/>
      <point x="329" y="986" type="curve" smooth="yes"/>
      <point x="201" y="986"/>
      <point x="144" y="900"/>
      <point x="144" y="732" type="curve" smooth="yes"/>
      <point x="144" y="505" type="line" smooth="yes"/>
      <point x="144" y="336"/>
      <point x="201" y="251"/>
      <point x="329" y="251" type="curve" smooth="yes"/>
      <point x="394" y="251"/>
      <point x="461" y="276"/>
      <point x="501" y="323" type="curve"/>
      <point x="501" y="280" type="line"/>
      <point x="462" y="242"/>
      <point x="398" y="218"/>
    </contour>
    <contour>
      <point x="729" y="1242" type="line"/>
      <point x="723" y="1271" type="line"/>
      <point x="983" y="1271" type="line"/>
      <point x="989" y="1242" type="line"/>
    </contour>
    <contour>
      <point x="864" y="1252" type="line"/>
      <point x="864" y="1016" type="line"/>
      <point x="830" y="1016" type="line"/>
      <point x="830" y="1252" type="line"/>
    </contour>
    <contour>
      <point x="1022" y="1242" type="line"/>
      <point x="378" y="1242" type="line"/>
      <point x="373" y="1271" type="line"/>
      <point x="1017" y="1271" type="line"/>
    </contour>
    <contour>
      <point x="829" y="1253" type="line"/>
      <point x="864" y="1253" type="line"/>
      <point x="864" y="951" type="line"/>
      <point x="862.495" y="951.817"/>
      <point x="830.55" y="969.159"/>
      <point x="829" y="970" type="curve"/>
    </contour>
    <contour>
      <point x="476" y="144" type="line"/>
      <point x="531" y="83"/>
      <point x="594" y="46"/>
      <point x="689" y="46" type="curve" smooth="yes"/>
      <point x="813" y="46"/>
      <point x="877" y="125"/>
      <point x="877" y="293" type="curve" smooth="yes"/>
      <point x="877" y="316" type="line" smooth="yes"/>
      <point x="877" y="469"/>
      <point x="835" y="543"/>
      <point x="733" y="543" type="curve" smooth="yes"/>
      <point x="671" y="543"/>
      <point x="632" y="526"/>
      <point x="586" y="500" type="curve"/>
      <point x="522" y="545"/>
      <point x="492" y="596"/>
      <point x="492" y="729" type="curve" smooth="yes"/>
      <point x="492" y="760" type="line" smooth="yes"/>
      <point x="492" y="924"/>
      <point x="568" y="1003"/>
      <point x="721" y="1003" type="curve" smooth="yes"/>
      <point x="774" y="1003"/>
      <point x="820" y="995"/>
      <point x="864" y="981" type="curve"/>
      <point x="864" y="951" type="line"/>
      <point x="818" y="964"/>
      <point x="774" y="970"/>
      <point x="722" y="970" type="curve" smooth="yes"/>
      <point x="590" y="970"/>
      <point x="527" y="903"/>
      <point x="527" y="758" type="curve" smooth="yes"/>
      <point x="527" y="729" type="line" smooth="yes"/>
      <point x="527" y="618"/>
      <point x="546" y="572"/>
      <point x="592" y="539" type="curve"/>
      <point x="629" y="559"/>
      <point x="671" y="576"/>
      <point x="730" y="576" type="curve" smooth="yes"/>
      <point x="853" y="576"/>
      <point x="912" y="493"/>
      <point x="912" y="318" type="curve" smooth="yes"/>
      <point x="912" y="291" type="line" smooth="yes"/>
      <point x="912" y="99"/>
      <point x="835" y="13"/>
      <point x="691" y="13" type="curve" smooth="yes"/>
      <point x="583" y="13"/>
      <point x="522" y="52"/>
      <point x="480" y="94" type="curve"/>
    </contour>
  </outline>
  <guideline angle="0" x="0" y="313"/>
  <guideline angle="0" x="0" y="545"/>
  <guideline angle="90" x="728" y="0"/>
  <guideline angle="0" x="0" y="22"/>
  <guideline angle="0" x="0" y="545"/>
  <guideline angle="90" x="723" y="0"/>
  <guideline angle="90" x="913" y="0"/>
  <guideline angle="0" x="0" y="43"/>
  <guideline angle="90" x="846" y="0"/>
</glyph>
<glyph name="BaJaNukta.dv" format="2">
  <advance width="1244"/>
  <anchor x="1075" y="9" name="bottom"/>
  <anchor x="1070" y="9" name="bottom2"/>
  <anchor x="1093" y="9" name="bottom3"/>
  <anchor x="1075" y="30" name="bottom5"/>
  <anchor x="1075" y="1262" name="top"/>
  <outline>
    <contour>
      <point x="1093" y="1251" type="line"/>
      <point x="1093" y="0" type="line"/>
      <point x="1058" y="0" type="line"/>
      <point x="1058" y="1251" type="line"/>
    </contour>
    <contour>
      <point x="958" y="1242" type="line"/>
      <point x="952" y="1271" type="line"/>
      <point x="1262" y="1271" type="line"/>
      <point x="1268" y="1242" type="line"/>
    </contour>
    <contour>
      <point x="1168" y="1242" type="line"/>
      <point x="426" y="1242" type="line"/>
      <point x="420" y="1271" type="line"/>
      <point x="1163" y="1271" type="line"/>
    </contour>
    <contour>
      <point x="1077" y="927" type="line"/>
      <point x="1077" y="896" type="line"/>
      <point x="766" y="896" type="line"/>
      <point x="674" y="899" type="line"/>
      <point x="534" y="900" type="line"/>
      <point x="534" y="927" type="line"/>
    </contour>
    <contour>
      <point x="683" y="918" type="line"/>
      <point x="683" y="905" type="line"/>
      <point x="790" y="885"/>
      <point x="829" y="806"/>
      <point x="829" y="637" type="curve" smooth="yes"/>
      <point x="829" y="451" type="line" smooth="yes"/>
      <point x="829" y="245"/>
      <point x="774" y="164"/>
      <point x="645" y="164" type="curve" smooth="yes"/>
      <point x="573" y="164"/>
      <point x="521" y="196"/>
      <point x="491" y="237" type="curve"/>
      <point x="494" y="294" type="line"/>
      <point x="531" y="221"/>
      <point x="588" y="197"/>
      <point x="643" y="197" type="curve" smooth="yes"/>
      <point x="750" y="197"/>
      <point x="794" y="269"/>
      <point x="794" y="453" type="curve" smooth="yes"/>
      <point x="794" y="633" type="line" smooth="yes"/>
      <point x="794" y="826"/>
      <point x="748" y="889"/>
      <point x="613" y="896" type="curve" smooth="yes"/>
      <point x="534" y="900" type="line"/>
      <point x="534" y="918" type="line"/>
    </contour>
    <contour>
      <point x="-20" y="1242" type="line"/>
      <point x="-26" y="1271" type="line"/>
      <point x="517" y="1271" type="line"/>
      <point x="523" y="1242" type="line"/>
    </contour>
    <contour>
      <point x="170" y="915" type="line"/>
      <point x="199" y="928" type="line"/>
      <point x="494" y="294" type="line"/>
      <point x="478" y="251" type="line"/>
    </contour>
    <contour>
      <point x="109" y="446" type="curve" smooth="yes"/>
      <point x="109" y="711" type="line" smooth="yes"/>
      <point x="109" y="903"/>
      <point x="182" y="996"/>
      <point x="326" y="996" type="curve" smooth="yes"/>
      <point x="374" y="996"/>
      <point x="403" y="989"/>
      <point x="429" y="978" type="curve"/>
      <point x="434" y="943" type="line"/>
      <point x="401" y="956"/>
      <point x="374" y="963"/>
      <point x="328" y="963" type="curve" smooth="yes"/>
      <point x="204" y="963"/>
      <point x="144" y="879"/>
      <point x="144" y="707" type="curve" smooth="yes"/>
      <point x="144" y="450" type="line" smooth="yes"/>
      <point x="144" y="281"/>
      <point x="201" y="196"/>
      <point x="324" y="196" type="curve" smooth="yes"/>
      <point x="401" y="196"/>
      <point x="463" y="225"/>
      <point x="494" y="294" type="curve"/>
      <point x="501" y="240" type="line"/>
      <point x="497" y="240" type="line"/>
      <point x="466" y="193"/>
      <point x="407" y="163"/>
      <point x="324" y="163" type="curve" smooth="yes"/>
      <point x="179" y="163"/>
      <point x="109" y="257"/>
    </contour>
    <contour>
      <point x="639" y="-160" type="curve" smooth="yes"/>
      <point x="617" y="-160"/>
      <point x="610" y="-140"/>
      <point x="610" y="-94" type="curve"/>
      <point x="610" y="-92.3428"/>
      <point x="610" y="-80.4355"/>
      <point x="610" y="-79" type="curve"/>
      <point x="610" y="-33"/>
      <point x="617" y="-13"/>
      <point x="639" y="-13" type="curve" smooth="yes"/>
      <point x="661" y="-13"/>
      <point x="668" y="-33"/>
      <point x="668" y="-79" type="curve"/>
      <point x="668" y="-80.6572"/>
      <point x="668" y="-92.5645"/>
      <point x="668" y="-94" type="curve"/>
      <point x="668" y="-140"/>
      <point x="661" y="-160"/>
    </contour>
  </outline>
  <guideline angle="90" x="267" y="0"/>
  <guideline angle="90" x="1070" y="0"/>
  <guideline angle="0" x="0" y="9"/>
  <guideline angle="90" x="1075" y="0"/>
  <guideline angle="90" x="1058" y="0"/>
  <guideline angle="0" x="0" y="1262"/>
  <guideline angle="90" x="1093" y="0"/>
  <guideline angle="0" x="0" y="-125"/>
  <guideline angle="90" x="639" y="0"/>
  <guideline angle="0" x="0" y="5"/>
</glyph>
<glyph name="BaLaYa.dv" format="2">
  <advance width="1710"/>
  <anchor x="1541" y="9" name="bottom"/>
  <anchor x="1536" y="9" name="bottom2"/>
  <anchor x="1559" y="9" name="bottom3"/>
  <anchor x="1541" y="30" name="bottom5"/>
  <anchor x="1541" y="1262" name="top"/>
  <outline>
    <contour>
      <point x="-21" y="1242" type="line"/>
      <point x="-26" y="1271" type="line"/>
      <point x="517" y="1271" type="line"/>
      <point x="522" y="1242" type="line"/>
    </contour>
    <contour>
      <point x="170" y="938" type="line"/>
      <point x="198" y="951" type="line"/>
      <point x="503" y="307" type="line"/>
      <point x="480" y="285" type="line"/>
    </contour>
    <contour>
      <point x="108" y="469" type="curve" smooth="yes"/>
      <point x="108" y="734" type="line" smooth="yes"/>
      <point x="108" y="926"/>
      <point x="181" y="1019"/>
      <point x="325" y="1019" type="curve" smooth="yes"/>
      <point x="373" y="1019"/>
      <point x="402" y="1012"/>
      <point x="428" y="1001" type="curve"/>
      <point x="434" y="966" type="line"/>
      <point x="400" y="979"/>
      <point x="373" y="986"/>
      <point x="327" y="986" type="curve" smooth="yes"/>
      <point x="204" y="986"/>
      <point x="143" y="902"/>
      <point x="143" y="730" type="curve" smooth="yes"/>
      <point x="143" y="473" type="line" smooth="yes"/>
      <point x="143" y="304"/>
      <point x="200" y="219"/>
      <point x="323" y="219" type="curve" smooth="yes"/>
      <point x="418" y="219"/>
      <point x="491" y="269"/>
      <point x="515" y="392" type="curve"/>
      <point x="526" y="329" type="line"/>
      <point x="520" y="329" type="line"/>
      <point x="499" y="248"/>
      <point x="432" y="186"/>
      <point x="323" y="186" type="curve" smooth="yes"/>
      <point x="178" y="186"/>
      <point x="108" y="280"/>
    </contour>
    <contour>
      <point x="1559" y="1251" type="line"/>
      <point x="1559" y="0" type="line"/>
      <point x="1524" y="0" type="line"/>
      <point x="1524" y="1251" type="line"/>
    </contour>
    <contour>
      <point x="1424" y="1242" type="line"/>
      <point x="1418" y="1271" type="line"/>
      <point x="1728" y="1271" type="line"/>
      <point x="1734" y="1242" type="line"/>
    </contour>
    <contour>
      <point x="946" y="1271" type="line"/>
      <point x="1728" y="1271" type="line"/>
      <point x="1734" y="1242" type="line"/>
      <point x="951" y="1242" type="line"/>
    </contour>
    <contour>
      <point x="1224" y="1249" type="line"/>
      <point x="1259" y="1199"/>
      <point x="1268" y="1129"/>
      <point x="1268" y="1018" type="curve" smooth="yes"/>
      <point x="1268" y="959" type="line" smooth="yes"/>
      <point x="1268" y="782"/>
      <point x="1209" y="714"/>
      <point x="1086" y="714" type="curve" smooth="yes"/>
      <point x="1069" y="714" type="line"/>
      <point x="1053" y="746" type="line"/>
      <point x="1079" y="746" type="line" smooth="yes"/>
      <point x="1180" y="746"/>
      <point x="1233" y="795"/>
      <point x="1233" y="961" type="curve" smooth="yes"/>
      <point x="1233" y="1016" type="line" smooth="yes"/>
      <point x="1233" y="1133"/>
      <point x="1224" y="1198"/>
      <point x="1187" y="1249" type="curve"/>
    </contour>
    <contour>
      <point x="1053" y="564" type="line" smooth="yes"/>
      <point x="1053" y="649"/>
      <point x="1053" y="705"/>
      <point x="1053" y="746" type="curve"/>
      <point x="1088" y="727" type="line"/>
      <point x="1088" y="555" type="line" smooth="yes"/>
      <point x="1088" y="354"/>
      <point x="1163" y="273"/>
      <point x="1301" y="273" type="curve" smooth="yes"/>
      <point x="1426" y="273"/>
      <point x="1498" y="336"/>
      <point x="1528" y="472" type="curve"/>
      <point x="1533" y="409" type="line"/>
      <point x="1529" y="409" type="line"/>
      <point x="1507" y="307"/>
      <point x="1436" y="240"/>
      <point x="1301" y="240" type="curve" smooth="yes"/>
      <point x="1139" y="240"/>
      <point x="1053" y="341"/>
      <point x="1053" y="551" type="curve" smooth="yes"/>
    </contour>
    <contour>
      <point x="936" y="897" type="curve" smooth="yes"/>
      <point x="868" y="897"/>
      <point x="817" y="844"/>
      <point x="816" y="702" type="curve" smooth="yes"/>
      <point x="814" y="283" type="line"/>
      <point x="799" y="283" type="line"/>
      <point x="799" y="786" type="line"/>
      <point x="811" y="880"/>
      <point x="859" y="930"/>
      <point x="937" y="930" type="curve" smooth="yes"/>
      <point x="1019" y="930"/>
      <point x="1068" y="881"/>
      <point x="1084" y="745" type="curve"/>
      <point x="1054" y="726" type="line"/>
      <point x="1041" y="853"/>
      <point x="1000" y="897"/>
    </contour>
    <contour>
      <point x="346" y="1242" type="line"/>
      <point x="341" y="1271" type="line"/>
      <point x="1081" y="1271" type="line"/>
      <point x="1086" y="1242" type="line"/>
    </contour>
    <contour>
      <point x="810" y="283" type="line"/>
      <point x="783" y="283" type="line"/>
      <point x="781" y="702" type="line" smooth="yes"/>
      <point x="780" y="842"/>
      <point x="728" y="897"/>
      <point x="652" y="897" type="curve" smooth="yes"/>
      <point x="551" y="897"/>
      <point x="504" y="821"/>
      <point x="504" y="658" type="curve" smooth="yes"/>
      <point x="504" y="436"/>
      <point x="552" y="237"/>
      <point x="657" y="2" type="curve"/>
      <point x="657" y="0" type="line"/>
      <point x="621" y="0" type="line"/>
      <point x="519" y="232"/>
      <point x="468" y="438"/>
      <point x="468" y="659" type="curve" smooth="yes"/>
      <point x="468" y="845"/>
      <point x="531" y="930"/>
      <point x="651" y="930" type="curve" smooth="yes"/>
      <point x="735" y="930"/>
      <point x="785" y="878"/>
      <point x="796" y="792" type="curve"/>
      <point x="810" y="792" type="line"/>
    </contour>
  </outline>
  <guideline angle="90" x="255" y="0"/>
  <guideline angle="0" x="0" y="882"/>
  <guideline angle="90" x="1536" y="0"/>
  <guideline angle="0" x="0" y="9"/>
  <guideline angle="90" x="1541" y="0"/>
  <guideline angle="90" x="1524" y="0"/>
  <guideline angle="0" x="0" y="1262"/>
  <guideline angle="90" x="1559" y="0"/>
  <guideline angle="0" x="0" y="-125"/>
</glyph>
<glyph name="BaRa.dv" format="2">
  <advance width="699"/>
  <anchor x="531" y="9" name="bottom"/>
  <anchor x="526" y="9" name="bottom2"/>
  <anchor x="549" y="9" name="bottom3"/>
  <anchor x="531" y="1262" name="top"/>
  <outline>
    <contour>
      <point x="549" y="1061" type="line"/>
      <point x="549" y="0" type="line"/>
      <point x="514" y="0" type="line"/>
      <point x="514" y="1061" type="line"/>
    </contour>
    <contour>
      <point x="-20" y="1242" type="line"/>
      <point x="-26" y="1271" type="line"/>
      <point x="718" y="1271" type="line"/>
      <point x="723" y="1242" type="line"/>
    </contour>
    <contour>
      <point x="549" y="1260" type="line"/>
      <point x="549" y="916" type="line"/>
      <point x="514" y="916" type="line"/>
      <point x="514" y="1260" type="line"/>
    </contour>
    <contour>
      <point x="171" y="938" type="line"/>
      <point x="199" y="951" type="line"/>
      <point x="495" y="326" type="line"/>
      <point x="471" y="304" type="line"/>
    </contour>
    <contour>
      <point x="311" y="234" type="curve" smooth="yes"/>
      <point x="370" y="234"/>
      <point x="403" y="247"/>
      <point x="449" y="289" type="curve" smooth="yes"/>
      <point x="523" y="355" type="line"/>
      <point x="523" y="316" type="line"/>
      <point x="144" y="-35" type="line"/>
      <point x="96" y="-35" type="line"/>
      <point x="96" y="-31" type="line"/>
      <point x="392" y="234" type="line"/>
      <point x="401" y="228" type="line"/>
      <point x="374" y="210"/>
      <point x="352" y="202"/>
      <point x="311" y="202" type="curve" smooth="yes"/>
      <point x="177" y="202"/>
      <point x="109" y="289"/>
      <point x="109" y="480" type="curve" smooth="yes"/>
      <point x="109" y="734" type="line" smooth="yes"/>
      <point x="109" y="926"/>
      <point x="182" y="1019"/>
      <point x="326" y="1019" type="curve" smooth="yes"/>
      <point x="374" y="1019"/>
      <point x="403" y="1012"/>
      <point x="429" y="1001" type="curve"/>
      <point x="434" y="966" type="line"/>
      <point x="401" y="979"/>
      <point x="374" y="986"/>
      <point x="328" y="986" type="curve" smooth="yes"/>
      <point x="204" y="986"/>
      <point x="144" y="902"/>
      <point x="144" y="730" type="curve" smooth="yes"/>
      <point x="144" y="484" type="line" smooth="yes"/>
      <point x="144" y="315"/>
      <point x="197" y="234"/>
    </contour>
  </outline>
  <guideline angle="90" x="531" y="0"/>
  <guideline angle="90" x="531" y="0"/>
</glyph>
<glyph name="BaSha.MAR.dv" format="2">
  <advance width="1318"/>
  <anchor x="1149" y="9" name="bottom"/>
  <anchor x="1144" y="9" name="bottom2"/>
  <anchor x="1167" y="9" name="bottom3"/>
  <anchor x="1149" y="30" name="bottom5"/>
  <anchor x="1149" y="1262" name="top"/>
  <outline>
    <contour>
      <point x="-21" y="1242" type="line"/>
      <point x="-26" y="1271" type="line"/>
      <point x="517" y="1271" type="line"/>
      <point x="522" y="1242" type="line"/>
    </contour>
    <contour>
      <point x="170" y="938" type="line"/>
      <point x="198" y="951" type="line"/>
      <point x="498" y="317" type="line"/>
      <point x="475" y="295" type="line"/>
    </contour>
    <contour>
      <point x="108" y="492" type="curve" smooth="yes"/>
      <point x="108" y="734" type="line" smooth="yes"/>
      <point x="108" y="926"/>
      <point x="181" y="1019"/>
      <point x="325" y="1019" type="curve" smooth="yes"/>
      <point x="373" y="1019"/>
      <point x="402" y="1012"/>
      <point x="428" y="1001" type="curve"/>
      <point x="434" y="966" type="line"/>
      <point x="400" y="979"/>
      <point x="373" y="986"/>
      <point x="327" y="986" type="curve" smooth="yes"/>
      <point x="204" y="986"/>
      <point x="143" y="902"/>
      <point x="143" y="730" type="curve" smooth="yes"/>
      <point x="143" y="496" type="line" smooth="yes"/>
      <point x="143" y="327"/>
      <point x="200" y="242"/>
      <point x="323" y="242" type="curve" smooth="yes"/>
      <point x="424" y="242"/>
      <point x="490" y="296"/>
      <point x="512" y="403" type="curve"/>
      <point x="542" y="373" type="line"/>
      <point x="536" y="373" type="line"/>
      <point x="508" y="271"/>
      <point x="443" y="209"/>
      <point x="323" y="209" type="curve" smooth="yes"/>
      <point x="178" y="209"/>
      <point x="108" y="303"/>
    </contour>
    <contour>
      <point x="1167" y="1251" type="line"/>
      <point x="1167" y="0" type="line"/>
      <point x="1132" y="0" type="line"/>
      <point x="1132" y="1251" type="line"/>
    </contour>
    <contour>
      <point x="1032" y="1242" type="line"/>
      <point x="1026" y="1271" type="line"/>
      <point x="1336" y="1271" type="line"/>
      <point x="1342" y="1242" type="line"/>
    </contour>
    <contour>
      <point x="422" y="1271" type="line"/>
      <point x="1237" y="1271" type="line"/>
      <point x="1242" y="1242" type="line"/>
      <point x="428" y="1242" type="line"/>
    </contour>
    <contour>
      <point x="698" y="1010" type="line"/>
      <point x="698" y="1255" type="line"/>
      <point x="732" y="1255" type="line"/>
      <point x="732" y="1010" type="line"/>
    </contour>
    <contour>
      <point x="860" y="-50" type="line"/>
      <point x="821" y="-50" type="line"/>
      <point x="589" y="357" type="line"/>
      <point x="512" y="370" type="line"/>
      <point x="512" y="403" type="line"/>
      <point x="621" y="375" type="line"/>
      <point x="621" y="366" type="line"/>
      <point x="660" y="297"/>
      <point x="685" y="254"/>
      <point x="734" y="169" type="curve" smooth="yes"/>
      <point x="860" y="-48" type="line"/>
    </contour>
    <contour>
      <point x="700" y="1021" type="curve" smooth="yes"/>
      <point x="825" y="1021"/>
      <point x="893" y="940"/>
      <point x="893" y="751" type="curve" smooth="yes"/>
      <point x="893" y="653" type="line" smooth="yes"/>
      <point x="893" y="447"/>
      <point x="805" y="357"/>
      <point x="636" y="357" type="curve" smooth="yes"/>
      <point x="593" y="357"/>
      <point x="568" y="364"/>
      <point x="538" y="372" type="curve"/>
      <point x="512" y="403" type="line"/>
      <point x="560" y="394"/>
      <point x="593" y="390"/>
      <point x="636" y="390" type="curve" smooth="yes"/>
      <point x="779" y="390"/>
      <point x="858" y="466"/>
      <point x="858" y="655" type="curve" smooth="yes"/>
      <point x="858" y="750" type="line" smooth="yes"/>
      <point x="858" y="925"/>
      <point x="802" y="988"/>
      <point x="700" y="988" type="curve" smooth="yes"/>
      <point x="636" y="988"/>
      <point x="589" y="969"/>
      <point x="534" y="922" type="curve"/>
      <point x="538" y="966" type="line"/>
      <point x="579" y="1000"/>
      <point x="631" y="1021"/>
    </contour>
  </outline>
  <guideline angle="90" x="1144" y="0"/>
  <guideline angle="0" x="0" y="9"/>
  <guideline angle="90" x="1149" y="0"/>
  <guideline angle="90" x="1132" y="0"/>
  <guideline angle="0" x="0" y="1262"/>
  <guideline angle="90" x="1167" y="0"/>
  <guideline angle="0" x="0" y="-125"/>
</glyph>
<glyph name="BaSha.dv" format="2">
  <advance width="1308"/>
  <anchor x="1139" y="9" name="bottom"/>
  <anchor x="1134" y="9" name="bottom2"/>
  <anchor x="1157" y="9" name="bottom3"/>
  <anchor x="1139" y="30" name="bottom5"/>
  <anchor x="1139" y="1262" name="top"/>
  <outline>
    <contour>
      <point x="-21" y="1242" type="line"/>
      <point x="-26" y="1271" type="line"/>
      <point x="469" y="1271" type="line"/>
      <point x="474" y="1242" type="line"/>
    </contour>
    <contour>
      <point x="170" y="957" type="line"/>
      <point x="199" y="970" type="line"/>
      <point x="504" y="326" type="line"/>
      <point x="480" y="304" type="line"/>
    </contour>
    <contour>
      <point x="434" y="984" type="line"/>
      <point x="400" y="997"/>
      <point x="373" y="1005"/>
      <point x="327" y="1005" type="curve" smooth="yes"/>
      <point x="204" y="1005"/>
      <point x="143" y="920"/>
      <point x="143" y="749" type="curve" smooth="yes"/>
      <point x="143" y="491" type="line" smooth="yes"/>
      <point x="143" y="322"/>
      <point x="205" y="237"/>
      <point x="326" y="237" type="curve" smooth="yes"/>
      <point x="448" y="237"/>
      <point x="514" y="320"/>
      <point x="512" y="488" type="curve"/>
      <point x="543" y="483" type="line"/>
      <point x="542" y="295"/>
      <point x="470" y="204"/>
      <point x="327" y="204" type="curve" smooth="yes"/>
      <point x="182" y="204"/>
      <point x="108" y="298"/>
      <point x="108" y="488" type="curve" smooth="yes"/>
      <point x="108" y="753" type="line" smooth="yes"/>
      <point x="108" y="944"/>
      <point x="181" y="1038"/>
      <point x="325" y="1038" type="curve" smooth="yes"/>
      <point x="373" y="1038"/>
      <point x="402" y="1030"/>
      <point x="428" y="1019" type="curve"/>
    </contour>
    <contour>
      <point x="1157" y="1251" type="line"/>
      <point x="1157" y="0" type="line"/>
      <point x="1122" y="0" type="line"/>
      <point x="1122" y="1251" type="line"/>
    </contour>
    <contour>
      <point x="1022" y="1242" type="line"/>
      <point x="1016" y="1271" type="line"/>
      <point x="1326" y="1271" type="line"/>
      <point x="1332" y="1242" type="line"/>
    </contour>
    <contour>
      <point x="986" y="1271" type="line"/>
      <point x="1326" y="1271" type="line"/>
      <point x="1332" y="1242" type="line"/>
      <point x="992" y="1242" type="line"/>
    </contour>
    <contour>
      <point x="870" y="0" type="line"/>
      <point x="833" y="0" type="line"/>
      <point x="600" y="453" type="line"/>
      <point x="512" y="456" type="line"/>
      <point x="512" y="488" type="line"/>
      <point x="626" y="480" type="line"/>
      <point x="626" y="473" type="line"/>
      <point x="665" y="399"/>
      <point x="688" y="354"/>
      <point x="730" y="273" type="curve" smooth="yes"/>
      <point x="870" y="2" type="line"/>
    </contour>
    <contour>
      <point x="902" y="1008" type="curve" smooth="yes"/>
      <point x="902" y="828" type="line" smooth="yes"/>
      <point x="902" y="561"/>
      <point x="798" y="457"/>
      <point x="589" y="457" type="curve" smooth="yes"/>
      <point x="569" y="457"/>
      <point x="554" y="457"/>
      <point x="530" y="459" type="curve"/>
      <point x="512" y="488" type="line"/>
      <point x="547" y="488"/>
      <point x="567" y="488"/>
      <point x="591" y="488" type="curve" smooth="yes"/>
      <point x="774" y="488"/>
      <point x="867" y="583"/>
      <point x="867" y="830" type="curve" smooth="yes"/>
      <point x="867" y="1006" type="line" smooth="yes"/>
      <point x="867" y="1189"/>
      <point x="823" y="1248"/>
      <point x="729" y="1248" type="curve" smooth="yes"/>
      <point x="633" y="1248"/>
      <point x="585" y="1183"/>
      <point x="585" y="1029" type="curve" smooth="yes"/>
      <point x="585" y="966" type="line" smooth="yes"/>
      <point x="585" y="880"/>
      <point x="591" y="817"/>
      <point x="613" y="747" type="curve"/>
      <point x="579" y="747" type="line"/>
      <point x="558" y="817"/>
      <point x="551" y="878"/>
      <point x="551" y="966" type="curve" smooth="yes"/>
      <point x="551" y="1030" type="line" smooth="yes"/>
      <point x="551" y="1200"/>
      <point x="609" y="1281"/>
      <point x="729" y="1281" type="curve" smooth="yes"/>
      <point x="847" y="1281"/>
      <point x="902" y="1206"/>
    </contour>
  </outline>
  <guideline angle="90" x="309" y="0"/>
  <guideline angle="90" x="1134" y="0"/>
  <guideline angle="0" x="0" y="9"/>
  <guideline angle="90" x="1139" y="0"/>
  <guideline angle="90" x="1122" y="0"/>
  <guideline angle="0" x="0" y="1262"/>
  <guideline angle="90" x="1157" y="0"/>
  <guideline angle="0" x="0" y="-125"/>
</glyph>
<glyph name="BaTa.dv" format="2">
  <advance width="1059"/>
  <anchor x="890" y="9" name="bottom"/>
  <anchor x="885" y="9" name="bottom2"/>
  <anchor x="908" y="9" name="bottom3"/>
  <anchor x="890" y="30" name="bottom5"/>
  <anchor x="890" y="1262" name="top"/>
  <outline>
    <contour>
      <point x="-20" y="1242" type="line"/>
      <point x="-26" y="1271" type="line"/>
      <point x="517" y="1271" type="line"/>
      <point x="523" y="1242" type="line"/>
    </contour>
    <contour>
      <point x="170" y="938" type="line"/>
      <point x="199" y="951" type="line"/>
      <point x="504" y="307" type="line"/>
      <point x="479" y="285" type="line"/>
    </contour>
    <contour>
      <point x="109" y="469" type="curve" smooth="yes"/>
      <point x="109" y="734" type="line" smooth="yes"/>
      <point x="109" y="926"/>
      <point x="182" y="1019"/>
      <point x="326" y="1019" type="curve" smooth="yes"/>
      <point x="374" y="1019"/>
      <point x="403" y="1012"/>
      <point x="429" y="1001" type="curve"/>
      <point x="434" y="966" type="line"/>
      <point x="401" y="979"/>
      <point x="374" y="986"/>
      <point x="328" y="986" type="curve" smooth="yes"/>
      <point x="204" y="986"/>
      <point x="144" y="902"/>
      <point x="144" y="730" type="curve" smooth="yes"/>
      <point x="144" y="473" type="line" smooth="yes"/>
      <point x="144" y="304"/>
      <point x="201" y="219"/>
      <point x="324" y="219" type="curve" smooth="yes"/>
      <point x="418" y="219"/>
      <point x="491" y="269"/>
      <point x="515" y="392" type="curve"/>
      <point x="519" y="324" type="line"/>
      <point x="515" y="324" type="line"/>
      <point x="497" y="245"/>
      <point x="429" y="186"/>
      <point x="324" y="186" type="curve" smooth="yes"/>
      <point x="179" y="186"/>
      <point x="109" y="280"/>
    </contour>
    <contour>
      <point x="908" y="1251" type="line"/>
      <point x="908" y="0" type="line"/>
      <point x="873" y="0" type="line"/>
      <point x="873" y="1251" type="line"/>
    </contour>
    <contour>
      <point x="773" y="1242" type="line"/>
      <point x="767" y="1271" type="line"/>
      <point x="1077" y="1271" type="line"/>
      <point x="1083" y="1242" type="line"/>
    </contour>
    <contour>
      <point x="349" y="1242" type="line"/>
      <point x="343" y="1271" type="line"/>
      <point x="1077" y="1271" type="line"/>
      <point x="1083" y="1242" type="line"/>
    </contour>
    <contour>
      <point x="584" y="0" type="line"/>
      <point x="506" y="268"/>
      <point x="466" y="482"/>
      <point x="466" y="659" type="curve" smooth="yes"/>
      <point x="466" y="848"/>
      <point x="536" y="924"/>
      <point x="709" y="924" type="curve" smooth="yes"/>
      <point x="886" y="924" type="line"/>
      <point x="886" y="892" type="line"/>
      <point x="715" y="892" type="line" smooth="yes"/>
      <point x="560" y="892"/>
      <point x="502" y="828"/>
      <point x="502" y="659" type="curve" smooth="yes"/>
      <point x="502" y="482"/>
      <point x="539" y="276"/>
      <point x="620" y="0" type="curve"/>
    </contour>
  </outline>
  <guideline angle="90" x="885" y="0"/>
  <guideline angle="0" x="0" y="9"/>
  <guideline angle="90" x="890" y="0"/>
  <guideline angle="90" x="873" y="0"/>
  <guideline angle="0" x="0" y="1262"/>
  <guideline angle="90" x="908" y="0"/>
  <guideline angle="0" x="0" y="-125"/>
</glyph>
<glyph name="Binduone.dv" format="2">
  <anchor x="-169" y="1262" name="_top"/>
  <outline>
    <contour>
      <point x="-82.4909" y="1468.07" type="curve" smooth="yes"/>
      <point x="-104.092" y="1468.07"/>
      <point x="-110.964" y="1486.69"/>
      <point x="-110.964" y="1529.52" type="curve" smooth="yes"/>
      <point x="-110.964" y="1543.48" type="line" smooth="yes"/>
      <point x="-110.964" y="1586.31"/>
      <point x="-104.092" y="1604.93"/>
      <point x="-82.4909" y="1604.93" type="curve" smooth="yes"/>
      <point x="-59.9084" y="1604.93"/>
      <point x="-53.0355" y="1586.31"/>
      <point x="-53.0355" y="1543.48" type="curve" smooth="yes"/>
      <point x="-53.0355" y="1529.52" type="line" smooth="yes"/>
      <point x="-53.0355" y="1486.69"/>
      <point x="-59.9084" y="1468.07"/>
    </contour>
  </outline>
  <guideline angle="90" x="79" y="0"/>
</glyph>
